SplineFontDB: 3.2
FontName: Silwki
FullName: Silwki
FamilyName: Silwki
Weight: Regular
Copyright: Copyright (c) 2025, W.F.Turnip
UComments: "2025-3-28: Created with FontForge (http://fontforge.org)"
Version: 001.000
ItalicAngle: 0
UnderlinePosition: -85
UnderlineWidth: 42
Ascent: 625
Descent: 225
InvalidEm: 0
LayerCount: 2
Layer: 0 1 "+gMyXYgAA" 1
Layer: 1 1 "+Uk2XYgAA" 0
XUID: [1021 352 -730677569 2550072]
OS2Version: 0
OS2_WeightWidthSlopeOnly: 0
OS2_UseTypoMetrics: 1
CreationTime: 1743105955
ModificationTime: 1767727115
OS2TypoAscent: 0
OS2TypoAOffset: 1
OS2TypoDescent: 0
OS2TypoDOffset: 1
OS2TypoLinegap: 0
OS2WinAscent: 0
OS2WinAOffset: 1
OS2WinDescent: 0
OS2WinDOffset: 1
HheadAscent: 0
HheadAOffset: 1
HheadDescent: 0
HheadDOffset: 1
OS2Vendor: 'PfEd'
Lookup: 260 0 0 "mark" { "mark-1"  } ['mark' ('latn' <'dflt' > ) ]
MarkAttachClasses: 1
DEI: 91125
Encoding: UnicodeBmp
UnicodeInterp: none
NameList: AGL For New Fonts
DisplaySize: -48
AntiAlias: 0
FitToEm: 0
WinInfo: 140 14 10
BeginPrivate: 0
EndPrivate
AnchorClass2: "vowel" "mark-1"
BeginChars: 65536 98

StartChar: nine
Encoding: 57 57 0
Width: 500
Flags: W
LayerCount: 2
Fore
SplineSet
250 425 m 128,-1,1
 343 425 343 425 409 359 c 128,-1,2
 475 293 475 293 475 200 c 0,3,4
 475 190 475 190 467.5 182.5 c 128,-1,5
 460 175 460 175 450 175 c 128,-1,6
 440 175 440 175 432.5 182.5 c 128,-1,7
 425 190 425 190 425 200 c 0,8,9
 425 272 425 272 373.5 323.5 c 128,-1,10
 322 375 322 375 250 375 c 128,-1,11
 178 375 178 375 126.5 323.5 c 128,-1,12
 75 272 75 272 75 200 c 128,-1,13
 75 128 75 128 126.5 76.5 c 128,-1,14
 178 25 178 25 250 25 c 0,15,16
 260 25 260 25 267.5 17.5 c 128,-1,17
 275 10 275 10 275 0 c 128,-1,18
 275 -10 275 -10 267.5 -17.5 c 128,-1,19
 260 -25 260 -25 250 -25 c 0,20,21
 157 -25 157 -25 91 41 c 128,-1,22
 25 107 25 107 25 200 c 128,-1,23
 25 293 25 293 91 359 c 128,-1,0
 157 425 157 425 250 425 c 128,-1,1
250 325 m 128,-1,25
 302 325 302 325 338.5 288.5 c 128,-1,26
 375 252 375 252 375 200 c 128,-1,27
 375 148 375 148 338.5 111.5 c 128,-1,28
 302 75 302 75 250 75 c 128,-1,29
 198 75 198 75 161.5 111.5 c 128,-1,30
 125 148 125 148 125 200 c 128,-1,31
 125 252 125 252 161.5 288.5 c 128,-1,24
 198 325 198 325 250 325 c 128,-1,25
250 275 m 128,-1,33
 219 275 219 275 197 253 c 128,-1,34
 175 231 175 231 175 200 c 128,-1,35
 175 169 175 169 197 147 c 128,-1,36
 219 125 219 125 250 125 c 128,-1,37
 281 125 281 125 303 147 c 128,-1,38
 325 169 325 169 325 200 c 128,-1,39
 325 231 325 231 303 253 c 128,-1,32
 281 275 281 275 250 275 c 128,-1,33
EndSplineSet
EndChar

StartChar: eight
Encoding: 56 56 1
Width: 500
Flags: W
LayerCount: 2
Fore
SplineSet
250 425 m 128,-1,1
 343 425 343 425 409 359 c 128,-1,2
 475 293 475 293 475 200 c 128,-1,3
 475 106.802361444 475 106.802361444 409.099609375 40.900390625 c 0,4,5
 401.77734375 33.578125 401.77734375 33.578125 391.421875 33.578125 c 128,-1,6
 381.073486328 33.578125 381.073486328 33.578125 373.747680664 40.9039306641 c 128,-1,7
 366.421875 48.2297363281 366.421875 48.2297363281 366.421875 58.578125 c 128,-1,8
 366.421875 68.93359375 366.421875 68.93359375 373.744140625 76.255859375 c 0,9,10
 425 127.51171875 425 127.51171875 425 200 c 0,11,12
 425 272 425 272 373.5 323.5 c 128,-1,13
 322 375 322 375 250 375 c 128,-1,14
 178 375 178 375 126.5 323.5 c 128,-1,15
 75 272 75 272 75 200 c 0,16,17
 75 127.51171875 75 127.51171875 126.255859375 76.255859375 c 0,18,19
 133.578125 68.93359375 133.578125 68.93359375 133.578125 58.578125 c 128,-1,20
 133.578125 48.2297363281 133.578125 48.2297363281 126.252319336 40.9039306641 c 128,-1,21
 118.926513672 33.578125 118.926513672 33.578125 108.578125 33.578125 c 128,-1,22
 98.22265625 33.578125 98.22265625 33.578125 90.900390625 40.900390625 c 0,23,24
 25 106.802361444 25 106.802361444 25 200 c 128,-1,25
 25 293 25 293 91 359 c 128,-1,0
 157 425 157 425 250 425 c 128,-1,1
250 325 m 128,-1,27
 302 325 302 325 338.5 288.5 c 128,-1,28
 375 252 375 252 375 200 c 128,-1,29
 375 148 375 148 338.5 111.5 c 128,-1,30
 302 75 302 75 250 75 c 128,-1,31
 198 75 198 75 161.5 111.5 c 128,-1,32
 125 148 125 148 125 200 c 128,-1,33
 125 252 125 252 161.5 288.5 c 128,-1,26
 198 325 198 325 250 325 c 128,-1,27
250 275 m 128,-1,35
 219 275 219 275 197 253 c 128,-1,36
 175 231 175 231 175 200 c 128,-1,37
 175 169 175 169 197 147 c 128,-1,38
 219 125 219 125 250 125 c 128,-1,39
 281 125 281 125 303 147 c 128,-1,40
 325 169 325 169 325 200 c 128,-1,41
 325 231 325 231 303 253 c 128,-1,34
 281 275 281 275 250 275 c 128,-1,35
EndSplineSet
EndChar

StartChar: parenleft
Encoding: 40 40 2
Width: 500
Flags: W
LayerCount: 2
Fore
SplineSet
350 525 m 0,0,1
 360 525 360 525 367.5 517.5 c 128,-1,2
 375 510 375 510 375 500 c 128,-1,3
 375 490 375 490 367.5 482.5 c 128,-1,4
 360 475 360 475 350 475 c 1,5,-1
 350 474.716796875 l 1,6,-1
 349.703125 474.725585938 l 0,7,8
 318.893008723 474.725585938 318.893008723 474.725585938 296.966796875 453.033203125 c 0,9,10
 275 431.067871094 275 431.067871094 275 400 c 2,11,-1
 275 0 l 2,12,13
 275 -31.06640625 275 -31.06640625 296.966796875 -53.033203125 c 0,14,15
 318.88511201 -74.7177734375 318.88511201 -74.7177734375 349.709960938 -74.7177734375 c 0,16,-1
 350 -74.716796875 l 1,17,-1
 350 -75 l 1,18,19
 360.354625616 -75 360.354625616 -75 367.677312808 -82.3236750888 c 128,-1,20
 375 -89.6473501777 375 -89.6473501777 375 -100.001953125 c 128,-1,21
 375 -110.356369808 375 -110.356369808 367.677405918 -117.679161467 c 128,-1,22
 360.354811837 -125.001953125 360.354811837 -125.001953125 350 -125.001953125 c 0,23,24
 298.08038125 -124.395152975 298.08038125 -124.395152975 261.611328125 -88.388671875 c 0,25,26
 225 -51.7758789453 225 -51.7758789453 225 0 c 2,27,-1
 225 400 l 2,28,29
 225 451.775878945 225 451.775878945 261.611328125 488.388671875 c 0,30,31
 298.078814947 524.394492054 298.078814947 524.394492054 350 525 c 0,0,1
253.400390625 424.748046875 m 1,32,33
 254.575518533 424.588334977 254.575518533 424.588334977 255.724609375 424.3203125 c 1,34,35
 254.575518533 424.588334977 254.575518533 424.588334977 253.400390625 424.748046875 c 1,32,33
256.048828125 424.251953125 m 1,36,37
 257.346177314 423.922444163 257.346177314 423.922444163 258.5859375 423.462890625 c 1,38,39
 257.346177314 423.922444163 257.346177314 423.922444163 256.048828125 424.251953125 c 1,36,37
273.4609375 408.587890625 m 1,40,41
 273.926695205 407.331393152 273.926695205 407.331393152 274.251953125 406.05078125 c 1,42,43
 273.922829192 407.3451386 273.922829192 407.3451386 273.462890625 408.5859375 c 2,44,-1
 273.4609375 408.587890625 l 1,40,41
EndSplineSet
EndChar

StartChar: parenright
Encoding: 41 41 3
Width: 500
Flags: W
LayerCount: 2
Fore
SplineSet
150 525.001953125 m 0,0,1
 201.91961875 524.395152975 201.91961875 524.395152975 238.388671875 488.388671875 c 0,2,3
 275 451.775878945 275 451.775878945 275 400 c 2,4,-1
 275 0 l 2,5,6
 275 -51.7758789453 275 -51.7758789453 238.388671875 -88.388671875 c 0,7,8
 201.921185053 -124.394492054 201.921185053 -124.394492054 150 -125 c 0,9,10
 140 -125 140 -125 132.5 -117.5 c 128,-1,11
 125 -110 125 -110 125 -100 c 128,-1,12
 125 -90 125 -90 132.5 -82.5 c 128,-1,13
 140 -75 140 -75 150 -75 c 1,14,-1
 150 -74.716796875 l 1,15,-1
 150.296875 -74.7255859375 l 0,16,17
 181.106991277 -74.7255859375 181.106991277 -74.7255859375 203.033203125 -53.033203125 c 0,18,19
 225 -31.0678710938 225 -31.0678710938 225 0 c 2,20,-1
 225 400 l 2,21,22
 225 431.06640625 225 431.06640625 203.033203125 453.033203125 c 0,23,24
 181.11488799 474.717773438 181.11488799 474.717773438 150.290039062 474.717773438 c 0,25,-1
 150 474.716796875 l 1,26,-1
 150 475 l 1,27,28
 139.645374384 475 139.645374384 475 132.322687192 482.323675089 c 128,-1,29
 125 489.647350178 125 489.647350178 125 500.001953125 c 128,-1,30
 125 510.356369808 125 510.356369808 132.322594082 517.679161467 c 128,-1,31
 139.645188163 525.001953125 139.645188163 525.001953125 150 525.001953125 c 0,0,1
253.400390625 424.748046875 m 1,32,33
 254.575518533 424.588334977 254.575518533 424.588334977 255.724609375 424.3203125 c 1,34,35
 254.575518533 424.588334977 254.575518533 424.588334977 253.400390625 424.748046875 c 1,32,33
256.048828125 424.251953125 m 1,36,37
 257.346177314 423.922444163 257.346177314 423.922444163 258.5859375 423.462890625 c 1,38,39
 257.346177314 423.922444163 257.346177314 423.922444163 256.048828125 424.251953125 c 1,36,37
273.4609375 408.587890625 m 1,40,41
 273.926695205 407.331393152 273.926695205 407.331393152 274.251953125 406.05078125 c 1,42,43
 273.922829192 407.3451386 273.922829192 407.3451386 273.462890625 408.5859375 c 2,44,-1
 273.4609375 408.587890625 l 1,40,41
EndSplineSet
EndChar

StartChar: l
Encoding: 108 108 4
Width: 500
Flags: W
AnchorPoint: "vowel" 250 200 basechar 0
LayerCount: 2
Fore
SplineSet
250 425 m 128,-1,1
 343 425 343 425 409 359 c 128,-1,2
 475 293 475 293 475 200 c 128,-1,3
 475 107 475 107 409 41 c 128,-1,4
 343 -25 343 -25 250 -25 c 128,-1,5
 157 -25 157 -25 91 41 c 128,-1,6
 25 107 25 107 25 200 c 128,-1,7
 25 293 25 293 91 359 c 128,-1,0
 157 425 157 425 250 425 c 128,-1,1
250 375 m 128,-1,9
 178 375 178 375 126.5 323.5 c 128,-1,10
 75 272 75 272 75 200 c 128,-1,11
 75 128 75 128 126.5 76.5 c 128,-1,12
 178 25 178 25 250 25 c 128,-1,13
 322 25 322 25 373.5 76.5 c 128,-1,14
 425 128 425 128 425 200 c 128,-1,15
 425 272 425 272 373.5 323.5 c 128,-1,8
 322 375 322 375 250 375 c 128,-1,9
126.255859375 359.098632812 m 2,16,-1
 409.098632812 76.255859375 l 1,17,18
 416.424804688 68.9312684607 416.424804688 68.9312684607 416.424804688 58.5751953125 c 128,-1,19
 416.424804688 48.2259581018 416.424804688 48.2259581018 409.098632812 40.9013671875 c 128,-1,20
 401.774041898 33.5751953125 401.774041898 33.5751953125 391.41796875 33.5751953125 c 128,-1,21
 381.068731539 33.5751953125 381.068731539 33.5751953125 373.744140625 40.9013671875 c 2,22,-1
 90.9013671875 323.744140625 l 1,23,24
 83.5751953125 331.068731539 83.5751953125 331.068731539 83.5751953125 341.424804688 c 128,-1,25
 83.5751953125 351.774041898 83.5751953125 351.774041898 90.9013671875 359.098632812 c 128,-1,26
 98.2259581018 366.424804688 98.2259581018 366.424804688 108.58203125 366.424804688 c 128,-1,27
 118.931268461 366.424804688 118.931268461 366.424804688 126.255859375 359.098632812 c 2,16,-1
EndSplineSet
EndChar

StartChar: Y
Encoding: 89 89 5
Width: 500
Flags: W
AnchorPoint: "vowel" 250 200 basechar 0
LayerCount: 2
Fore
SplineSet
250 425 m 128,-1,1
 343 425 343 425 409 359 c 128,-1,2
 475 293 475 293 475 200 c 128,-1,3
 475 107 475 107 409 41 c 128,-1,4
 343 -25 343 -25 250 -25 c 128,-1,5
 156.802361444 -25 156.802361444 -25 90.900390625 40.900390625 c 0,6,7
 83.578125 48.22265625 83.578125 48.22265625 83.578125 58.578125 c 128,-1,8
 83.578125 68.9265136719 83.578125 68.9265136719 90.9039306641 76.2523193359 c 128,-1,9
 98.2297363281 83.578125 98.2297363281 83.578125 108.578125 83.578125 c 128,-1,10
 118.93359375 83.578125 118.93359375 83.578125 126.255859375 76.255859375 c 0,11,12
 177.51171875 25 177.51171875 25 250 25 c 0,13,14
 322 25 322 25 373.5 76.5 c 128,-1,15
 425 128 425 128 425 200 c 128,-1,16
 425 272 425 272 373.5 323.5 c 128,-1,17
 322 375 322 375 250 375 c 0,18,19
 177.51171875 375 177.51171875 375 126.255859375 323.744140625 c 0,20,21
 118.93359375 316.421875 118.93359375 316.421875 108.578125 316.421875 c 128,-1,22
 98.2297363281 316.421875 98.2297363281 316.421875 90.9039306641 323.747680664 c 128,-1,23
 83.578125 331.073486328 83.578125 331.073486328 83.578125 341.421875 c 128,-1,24
 83.578125 351.77734375 83.578125 351.77734375 90.900390625 359.099609375 c 0,25,0
 156.802361444 425 156.802361444 425 250 425 c 128,-1,1
126.255859375 359.098632812 m 2,26,-1
 409.098632812 76.255859375 l 1,27,28
 416.424804688 68.9312684607 416.424804688 68.9312684607 416.424804688 58.5751953125 c 128,-1,29
 416.424804688 48.2259581018 416.424804688 48.2259581018 409.098632812 40.9013671875 c 128,-1,30
 401.774041898 33.5751953125 401.774041898 33.5751953125 391.41796875 33.5751953125 c 128,-1,31
 381.068731539 33.5751953125 381.068731539 33.5751953125 373.744140625 40.9013671875 c 2,32,-1
 90.9013671875 323.744140625 l 1,33,34
 83.5751953125 331.068731539 83.5751953125 331.068731539 83.5751953125 341.424804688 c 128,-1,35
 83.5751953125 351.774041898 83.5751953125 351.774041898 90.9013671875 359.098632812 c 128,-1,36
 98.2259581018 366.424804688 98.2259581018 366.424804688 108.58203125 366.424804688 c 128,-1,37
 118.931268461 366.424804688 118.931268461 366.424804688 126.255859375 359.098632812 c 2,26,-1
250 325 m 128,-1,39
 302 325 302 325 338.5 288.5 c 128,-1,40
 375 252 375 252 375 200 c 128,-1,41
 375 148 375 148 338.5 111.5 c 128,-1,42
 302 75 302 75 250 75 c 128,-1,43
 198 75 198 75 161.5 111.5 c 128,-1,44
 125 148 125 148 125 200 c 128,-1,45
 125 252 125 252 161.5 288.5 c 128,-1,38
 198 325 198 325 250 325 c 128,-1,39
250 275 m 128,-1,47
 219 275 219 275 197 253 c 128,-1,48
 175 231 175 231 175 200 c 128,-1,49
 175 169 175 169 197 147 c 128,-1,50
 219 125 219 125 250 125 c 128,-1,51
 281 125 281 125 303 147 c 128,-1,52
 325 169 325 169 325 200 c 128,-1,53
 325 231 325 231 303 253 c 128,-1,46
 281 275 281 275 250 275 c 128,-1,47
EndSplineSet
EndChar

StartChar: q
Encoding: 113 113 6
Width: 500
Flags: W
AnchorPoint: "vowel" 250 200 basechar 0
LayerCount: 2
Fore
SplineSet
250 425 m 128,-1,1
 343 425 343 425 409 359 c 128,-1,2
 475 293 475 293 475 200 c 128,-1,3
 475 107 475 107 409 41 c 128,-1,4
 343 -25 343 -25 250 -25 c 128,-1,5
 156.802361444 -25 156.802361444 -25 90.900390625 40.900390625 c 0,6,7
 83.578125 48.22265625 83.578125 48.22265625 83.578125 58.578125 c 128,-1,8
 83.578125 68.9265136719 83.578125 68.9265136719 90.9039306641 76.2523193359 c 128,-1,9
 98.2297363281 83.578125 98.2297363281 83.578125 108.578125 83.578125 c 128,-1,10
 118.93359375 83.578125 118.93359375 83.578125 126.255859375 76.255859375 c 0,11,12
 177.51171875 25 177.51171875 25 250 25 c 0,13,14
 322 25 322 25 373.5 76.5 c 128,-1,15
 425 128 425 128 425 200 c 128,-1,16
 425 272 425 272 373.5 323.5 c 128,-1,17
 322 375 322 375 250 375 c 0,18,19
 177.51171875 375 177.51171875 375 126.255859375 323.744140625 c 0,20,21
 118.93359375 316.421875 118.93359375 316.421875 108.578125 316.421875 c 128,-1,22
 98.2297363281 316.421875 98.2297363281 316.421875 90.9039306641 323.747680664 c 128,-1,23
 83.578125 331.073486328 83.578125 331.073486328 83.578125 341.421875 c 128,-1,24
 83.578125 351.77734375 83.578125 351.77734375 90.900390625 359.099609375 c 0,25,0
 156.802361444 425 156.802361444 425 250 425 c 128,-1,1
EndSplineSet
EndChar

StartChar: e
Encoding: 101 101 7
Width: 0
GlyphClass: 4
Flags: W
AnchorPoint: "vowel" -250 200 mark 0
LayerCount: 2
Fore
SplineSet
-393.205078125 566.357421875 m 0,0,1
 -392.269375888 566.424804688 -392.269375888 566.424804688 -391.41796875 566.424804688 c 0,2,3
 -381.070917029 566.424804688 -381.070917029 566.424804688 -373.744140625 559.099609375 c 2,4,-1
 -232.322265625 417.677734375 l 1,5,6
 -225 410.35546875 -225 410.35546875 -225 400 c 0,7,8
 -225 390 -225 390 -232.5 382.5 c 128,-1,9
 -240 375 -240 375 -250 375 c 0,10,11
 -260.3401955 375.03666216 -260.3401955 375.03666216 -267.6328125 382.3671875 c 1,12,-1
 -267.677734375 382.322265625 l 1,13,-1
 -409.099609375 523.744140625 l 1,14,15
 -416.42578125 531.0703125 -416.42578125 531.0703125 -416.42578125 541.42578125 c 128,-1,16
 -416.42578125 551.7734375 -416.42578125 551.7734375 -409.099609375 559.099609375 c 0,17,18
 -402.506159856 565.693058894 -402.506159856 565.693058894 -393.205078125 566.357421875 c 0,0,1
EndSplineSet
EndChar

StartChar: d
Encoding: 100 100 8
Width: 500
Flags: W
AnchorPoint: "vowel" 250 200 basechar 0
LayerCount: 2
Fore
SplineSet
108.578125 366.421875 m 128,-1,1
 118.926513672 366.421875 118.926513672 366.421875 126.252319336 359.096069336 c 128,-1,2
 133.578125 351.770263672 133.578125 351.770263672 133.578125 341.421875 c 128,-1,3
 133.578125 331.06640625 133.578125 331.06640625 126.255859375 323.744140625 c 0,4,5
 75 272.48828125 75 272.48828125 75 200 c 0,6,7
 75 128 75 128 126.5 76.5 c 128,-1,8
 178 25 178 25 250 25 c 128,-1,9
 322 25 322 25 373.5 76.5 c 128,-1,10
 425 128 425 128 425 200 c 0,11,12
 425 272.48828125 425 272.48828125 373.744140625 323.744140625 c 0,13,14
 366.421875 331.06640625 366.421875 331.06640625 366.421875 341.421875 c 128,-1,15
 366.421875 351.770263672 366.421875 351.770263672 373.747680664 359.096069336 c 128,-1,16
 381.073486328 366.421875 381.073486328 366.421875 391.421875 366.421875 c 128,-1,17
 401.77734375 366.421875 401.77734375 366.421875 409.099609375 359.099609375 c 0,18,19
 475 293.197638556 475 293.197638556 475 200 c 128,-1,20
 475 107 475 107 409 41 c 128,-1,21
 343 -25 343 -25 250 -25 c 128,-1,22
 157 -25 157 -25 91 41 c 128,-1,23
 25 107 25 107 25 200 c 128,-1,24
 25 293.197638556 25 293.197638556 90.900390625 359.099609375 c 0,25,0
 98.22265625 366.421875 98.22265625 366.421875 108.578125 366.421875 c 128,-1,1
126.255859375 359.098632812 m 2,26,-1
 409.098632812 76.255859375 l 1,27,28
 416.424804688 68.9312684607 416.424804688 68.9312684607 416.424804688 58.5751953125 c 128,-1,29
 416.424804688 48.2259581018 416.424804688 48.2259581018 409.098632812 40.9013671875 c 128,-1,30
 401.774041898 33.5751953125 401.774041898 33.5751953125 391.41796875 33.5751953125 c 128,-1,31
 381.068731539 33.5751953125 381.068731539 33.5751953125 373.744140625 40.9013671875 c 2,32,-1
 90.9013671875 323.744140625 l 1,33,34
 83.5751953125 331.068731539 83.5751953125 331.068731539 83.5751953125 341.424804688 c 128,-1,35
 83.5751953125 351.774041898 83.5751953125 351.774041898 90.9013671875 359.098632812 c 128,-1,36
 98.2259581018 366.424804688 98.2259581018 366.424804688 108.58203125 366.424804688 c 128,-1,37
 118.931268461 366.424804688 118.931268461 366.424804688 126.255859375 359.098632812 c 2,26,-1
EndSplineSet
EndChar

StartChar: p
Encoding: 112 112 9
Width: 500
Flags: W
AnchorPoint: "vowel" 250 200 basechar 0
LayerCount: 2
Fore
SplineSet
250 425 m 128,-1,1
 343.197638556 425 343.197638556 425 409.099609375 359.099609375 c 0,2,3
 416.421875 351.77734375 416.421875 351.77734375 416.421875 341.421875 c 128,-1,4
 416.421875 331.073486328 416.421875 331.073486328 409.096069336 323.747680664 c 128,-1,5
 401.770263672 316.421875 401.770263672 316.421875 391.421875 316.421875 c 128,-1,6
 381.06640625 316.421875 381.06640625 316.421875 373.744140625 323.744140625 c 0,7,8
 322.48828125 375 322.48828125 375 250 375 c 0,9,10
 178 375 178 375 126.5 323.5 c 128,-1,11
 75 272 75 272 75 200 c 128,-1,12
 75 128 75 128 126.5 76.5 c 128,-1,13
 178 25 178 25 250 25 c 0,14,15
 322.48828125 25 322.48828125 25 373.744140625 76.255859375 c 0,16,17
 381.06640625 83.578125 381.06640625 83.578125 391.421875 83.578125 c 128,-1,18
 401.770263672 83.578125 401.770263672 83.578125 409.096069336 76.2523193359 c 128,-1,19
 416.421875 68.9265136719 416.421875 68.9265136719 416.421875 58.578125 c 128,-1,20
 416.421875 48.22265625 416.421875 48.22265625 409.099609375 40.900390625 c 0,21,22
 343.197638556 -25 343.197638556 -25 250 -25 c 128,-1,23
 157 -25 157 -25 91 41 c 128,-1,24
 25 107 25 107 25 200 c 128,-1,25
 25 293 25 293 91 359 c 128,-1,0
 157 425 157 425 250 425 c 128,-1,1
EndSplineSet
EndChar

StartChar: X
Encoding: 88 88 10
Width: 500
Flags: W
AnchorPoint: "vowel" 250 200 basechar 0
LayerCount: 2
Fore
SplineSet
250 425 m 128,-1,1
 343 425 343 425 409 359 c 128,-1,2
 475 293 475 293 475 200 c 128,-1,3
 475 107 475 107 409 41 c 128,-1,4
 343 -25 343 -25 250 -25 c 0,5,6
 240 -25 240 -25 232.5 -17.5 c 128,-1,7
 225 -10 225 -10 225 0 c 128,-1,8
 225 10 225 10 232.5 17.5 c 128,-1,9
 240 25 240 25 250 25 c 0,10,11
 322 25 322 25 373.5 76.5 c 128,-1,12
 425 128 425 128 425 200 c 128,-1,13
 425 272 425 272 373.5 323.5 c 128,-1,14
 322 375 322 375 250 375 c 128,-1,15
 178 375 178 375 126.5 323.5 c 128,-1,16
 75 272 75 272 75 200 c 0,17,18
 75 190 75 190 67.5 182.5 c 128,-1,19
 60 175 60 175 50 175 c 128,-1,20
 40 175 40 175 32.5 182.5 c 128,-1,21
 25 190 25 190 25 200 c 0,22,23
 25 293 25 293 91 359 c 128,-1,0
 157 425 157 425 250 425 c 128,-1,1
126.255859375 359.098632812 m 2,24,-1
 409.098632812 76.255859375 l 1,25,26
 416.424804688 68.9312684607 416.424804688 68.9312684607 416.424804688 58.5751953125 c 128,-1,27
 416.424804688 48.2259581018 416.424804688 48.2259581018 409.098632812 40.9013671875 c 128,-1,28
 401.774041898 33.5751953125 401.774041898 33.5751953125 391.41796875 33.5751953125 c 128,-1,29
 381.068731539 33.5751953125 381.068731539 33.5751953125 373.744140625 40.9013671875 c 2,30,-1
 90.9013671875 323.744140625 l 1,31,32
 83.5751953125 331.068731539 83.5751953125 331.068731539 83.5751953125 341.424804688 c 128,-1,33
 83.5751953125 351.774041898 83.5751953125 351.774041898 90.9013671875 359.098632812 c 128,-1,34
 98.2259581018 366.424804688 98.2259581018 366.424804688 108.58203125 366.424804688 c 128,-1,35
 118.931268461 366.424804688 118.931268461 366.424804688 126.255859375 359.098632812 c 2,24,-1
EndSplineSet
EndChar

StartChar: k
Encoding: 107 107 11
Width: 500
Flags: W
AnchorPoint: "vowel" 250 200 basechar 0
LayerCount: 2
Fore
SplineSet
250 425 m 0,0,1
 343 425 343 425 409 359 c 128,-1,2
 475 293 475 293 475 200 c 128,-1,3
 475 107 475 107 409 41 c 128,-1,4
 343 -25 343 -25 250 -25 c 128,-1,5
 157 -25 157 -25 91 41 c 128,-1,6
 25 107 25 107 25 200 c 0,7,8
 25 210 25 210 32.5 217.5 c 128,-1,9
 40 225 40 225 50 225 c 128,-1,10
 60 225 60 225 67.5 217.5 c 128,-1,11
 75 210 75 210 75 200 c 0,12,13
 75 128 75 128 126.5 76.5 c 128,-1,14
 178 25 178 25 250 25 c 128,-1,15
 322 25 322 25 373.5 76.5 c 128,-1,16
 425 128 425 128 425 200 c 128,-1,17
 425 272 425 272 373.5 323.5 c 128,-1,18
 322 375 322 375 250 375 c 0,19,20
 240 375 240 375 232.5 382.5 c 128,-1,21
 225 390 225 390 225 400 c 128,-1,22
 225 410 225 410 232.5 417.5 c 128,-1,23
 240 425 240 425 250 425 c 0,0,1
EndSplineSet
EndChar

StartChar: braceright
Encoding: 125 125 12
Width: 500
Flags: W
LayerCount: 2
Fore
SplineSet
150 525.001953125 m 0,0,1
 201.91961875 524.395152975 201.91961875 524.395152975 238.388671875 488.388671875 c 0,2,3
 275 451.775878945 275 451.775878945 275 400 c 2,4,-1
 275 300 l 2,5,6
 275 268.93359375 275 268.93359375 296.966796875 246.966796875 c 0,7,8
 318.88511201 225.282226562 318.88511201 225.282226562 349.709960938 225.282226562 c 0,9,-1
 350 225.283203125 l 1,10,-1
 350 225 l 1,11,-1
 350.036132812 225.00390625 l 0,12,13
 360.371748725 225.00390625 360.371748725 225.00390625 367.677734375 217.67578125 c 0,14,15
 369.381606575 215.974831643 369.381606575 215.974831643 370.73046875 213.978515625 c 2,16,-1
 370.73046875 213.9765625 l 1,17,18
 372.090196623 211.962150836 372.090196623 211.962150836 373.03515625 209.73046875 c 2,19,-1
 373.03515625 209.728515625 l 1,20,21
 373.993927051 207.460022095 373.993927051 207.460022095 374.4921875 205.0390625 c 2,22,-1
 374.4921875 205.037109375 l 2,23,24
 375 202.556125137 375 202.556125137 375 200 c 2,25,-1
 375 199.998046875 l 0,26,-1
 375 199.993164062 l 0,27,28
 375 197.440432551 375 197.440432551 374.4921875 194.9609375 c 0,29,30
 372.983779795 187.616095688 372.983779795 187.616095688 367.677734375 182.322265625 c 0,31,32
 360.374062635 174.998046875 360.374062635 174.998046875 350.032226562 174.998046875 c 0,33,-1
 350 174.998046875 l 1,34,-1
 350 174.716796875 l 1,35,-1
 349.703125 174.725585938 l 0,36,37
 318.893008723 174.725585938 318.893008723 174.725585938 296.966796875 153.033203125 c 0,38,39
 275 131.067871094 275 131.067871094 275 100 c 2,40,-1
 275 0 l 2,41,42
 275 -51.7758789453 275 -51.7758789453 238.388671875 -88.388671875 c 0,43,44
 201.921185053 -124.394492054 201.921185053 -124.394492054 150 -125 c 0,45,46
 140 -125 140 -125 132.5 -117.5 c 128,-1,47
 125 -110 125 -110 125 -100 c 128,-1,48
 125 -90 125 -90 132.5 -82.5 c 128,-1,49
 140 -75 140 -75 150 -75 c 1,50,-1
 150 -74.716796875 l 1,51,-1
 150.296875 -74.7255859375 l 0,52,53
 181.106991277 -74.7255859375 181.106991277 -74.7255859375 203.033203125 -53.033203125 c 0,54,55
 225 -31.0678710938 225 -31.0678710938 225 0 c 2,56,-1
 225 100 l 2,57,58
 225 151.776367305 225 151.776367305 261.609375 188.388671875 c 0,59,60
 268.014042342 194.702844828 268.014042342 194.702844828 275.28125 200 c 1,61,62
 268.017406564 205.295764012 268.017406564 205.295764012 261.611328125 211.611328125 c 0,63,64
 225.01171875 248.2109375 225.01171875 248.2109375 225.01171875 300 c 1,65,-1
 225 300 l 1,66,-1
 225 400 l 2,67,68
 225 431.06640625 225 431.06640625 203.033203125 453.033203125 c 0,69,70
 181.11488799 474.717773438 181.11488799 474.717773438 150.290039062 474.717773438 c 0,71,-1
 150 474.716796875 l 1,72,-1
 150 475 l 1,73,74
 139.645374384 475 139.645374384 475 132.322687192 482.323675089 c 128,-1,75
 125 489.647350178 125 489.647350178 125 500.001953125 c 128,-1,76
 125 510.356369808 125 510.356369808 132.322594082 517.679161467 c 128,-1,77
 139.645188163 525.001953125 139.645188163 525.001953125 150 525.001953125 c 0,0,1
EndSplineSet
EndChar

StartChar: f
Encoding: 102 102 13
Width: 500
Flags: W
AnchorPoint: "vowel" 250 200 basechar 0
LayerCount: 2
Fore
SplineSet
250 425 m 128,-1,1
 343 425 343 425 409 359 c 128,-1,2
 475 293 475 293 475 200 c 128,-1,3
 475 106.802361444 475 106.802361444 409.099609375 40.900390625 c 0,4,5
 401.77734375 33.578125 401.77734375 33.578125 391.421875 33.578125 c 128,-1,6
 381.073486328 33.578125 381.073486328 33.578125 373.747680664 40.9039306641 c 128,-1,7
 366.421875 48.2297363281 366.421875 48.2297363281 366.421875 58.578125 c 128,-1,8
 366.421875 68.93359375 366.421875 68.93359375 373.744140625 76.255859375 c 0,9,10
 425 127.51171875 425 127.51171875 425 200 c 0,11,12
 425 272 425 272 373.5 323.5 c 128,-1,13
 322 375 322 375 250 375 c 128,-1,14
 178 375 178 375 126.5 323.5 c 128,-1,15
 75 272 75 272 75 200 c 0,16,17
 75 127.51171875 75 127.51171875 126.255859375 76.255859375 c 0,18,19
 133.578125 68.93359375 133.578125 68.93359375 133.578125 58.578125 c 128,-1,20
 133.578125 48.2297363281 133.578125 48.2297363281 126.252319336 40.9039306641 c 128,-1,21
 118.926513672 33.578125 118.926513672 33.578125 108.578125 33.578125 c 128,-1,22
 98.22265625 33.578125 98.22265625 33.578125 90.900390625 40.900390625 c 0,23,24
 25 106.802361444 25 106.802361444 25 200 c 128,-1,25
 25 293 25 293 91 359 c 128,-1,0
 157 425 157 425 250 425 c 128,-1,1
EndSplineSet
EndChar

StartChar: r
Encoding: 114 114 14
Width: 500
Flags: W
AnchorPoint: "vowel" 250 200 basechar 0
LayerCount: 2
Fore
SplineSet
250 425 m 128,-1,1
 343 425 343 425 409 359 c 128,-1,2
 475 293 475 293 475 200 c 128,-1,3
 475 107 475 107 409 41 c 128,-1,4
 343 -25 343 -25 250 -25 c 128,-1,5
 157 -25 157 -25 91 41 c 128,-1,6
 25 107 25 107 25 200 c 128,-1,7
 25 293 25 293 91 359 c 128,-1,0
 157 425 157 425 250 425 c 128,-1,1
250 375 m 128,-1,9
 178 375 178 375 126.5 323.5 c 128,-1,10
 75 272 75 272 75 200 c 128,-1,11
 75 128 75 128 126.5 76.5 c 128,-1,12
 178 25 178 25 250 25 c 128,-1,13
 322 25 322 25 373.5 76.5 c 128,-1,14
 425 128 425 128 425 200 c 128,-1,15
 425 272 425 272 373.5 323.5 c 128,-1,8
 322 375 322 375 250 375 c 128,-1,9
EndSplineSet
EndChar

StartChar: s
Encoding: 115 115 15
Width: 500
Flags: W
AnchorPoint: "vowel" 250 200 basechar 0
LayerCount: 2
Fore
SplineSet
250 425 m 0,0,1
 260 425 260 425 267.5 417.5 c 128,-1,2
 275 410 275 410 275 400 c 128,-1,3
 275 390 275 390 267.5 382.5 c 128,-1,4
 260 375 260 375 250 375 c 0,5,6
 178 375 178 375 126.5 323.5 c 128,-1,7
 75 272 75 272 75 200 c 128,-1,8
 75 128 75 128 126.5 76.5 c 128,-1,9
 178 25 178 25 250 25 c 128,-1,10
 322 25 322 25 373.5 76.5 c 128,-1,11
 425 128 425 128 425 200 c 0,12,13
 425 210 425 210 432.5 217.5 c 128,-1,14
 440 225 440 225 450 225 c 128,-1,15
 460 225 460 225 467.5 217.5 c 128,-1,16
 475 210 475 210 475 200 c 0,17,18
 475 107 475 107 409 41 c 128,-1,19
 343 -25 343 -25 250 -25 c 128,-1,20
 157 -25 157 -25 91 41 c 128,-1,21
 25 107 25 107 25 200 c 128,-1,22
 25 293 25 293 91 359 c 128,-1,23
 157 425 157 425 250 425 c 0,0,1
EndSplineSet
EndChar

StartChar: g
Encoding: 103 103 16
Width: 500
Flags: W
AnchorPoint: "vowel" 250 200 basechar 0
LayerCount: 2
Fore
SplineSet
250 425 m 0,0,1
 343 425 343 425 409 359 c 128,-1,2
 475 293 475 293 475 200 c 128,-1,3
 475 107 475 107 409 41 c 128,-1,4
 343 -25 343 -25 250 -25 c 128,-1,5
 157 -25 157 -25 91 41 c 128,-1,6
 25 107 25 107 25 200 c 0,7,8
 25 210 25 210 32.5 217.5 c 128,-1,9
 40 225 40 225 50 225 c 128,-1,10
 60 225 60 225 67.5 217.5 c 128,-1,11
 75 210 75 210 75 200 c 0,12,13
 75 128 75 128 126.5 76.5 c 128,-1,14
 178 25 178 25 250 25 c 128,-1,15
 322 25 322 25 373.5 76.5 c 128,-1,16
 425 128 425 128 425 200 c 128,-1,17
 425 272 425 272 373.5 323.5 c 128,-1,18
 322 375 322 375 250 375 c 0,19,20
 240 375 240 375 232.5 382.5 c 128,-1,21
 225 390 225 390 225 400 c 128,-1,22
 225 410 225 410 232.5 417.5 c 128,-1,23
 240 425 240 425 250 425 c 0,0,1
126.255859375 359.098632812 m 2,24,-1
 409.098632812 76.255859375 l 1,25,26
 416.424804688 68.9312684607 416.424804688 68.9312684607 416.424804688 58.5751953125 c 128,-1,27
 416.424804688 48.2259581018 416.424804688 48.2259581018 409.098632812 40.9013671875 c 128,-1,28
 401.774041898 33.5751953125 401.774041898 33.5751953125 391.41796875 33.5751953125 c 128,-1,29
 381.068731539 33.5751953125 381.068731539 33.5751953125 373.744140625 40.9013671875 c 2,30,-1
 90.9013671875 323.744140625 l 1,31,32
 83.5751953125 331.068731539 83.5751953125 331.068731539 83.5751953125 341.424804688 c 128,-1,33
 83.5751953125 351.774041898 83.5751953125 351.774041898 90.9013671875 359.098632812 c 128,-1,34
 98.2259581018 366.424804688 98.2259581018 366.424804688 108.58203125 366.424804688 c 128,-1,35
 118.931268461 366.424804688 118.931268461 366.424804688 126.255859375 359.098632812 c 2,24,-1
EndSplineSet
EndChar

StartChar: asciitilde
Encoding: 126 126 17
Width: 500
Flags: W
LayerCount: 2
Fore
SplineSet
108.578125 366.421875 m 0,0,1
 109.352926493 366.293952802 109.352926493 366.293952802 110.130859375 366.11328125 c 0,2,3
 113.244214086 365.889038694 113.244214086 365.889038694 116.21484375 364.90234375 c 0,4,5
 117.551377299 364.549931731 117.551377299 364.549931731 118.8515625 364.046875 c 0,6,7
 123.003937187 362.241749519 123.003937187 362.241749519 126.255859375 359.099609375 c 2,8,-1
 390.123046875 95.232421875 l 1,9,10
 424.995117188 141.869428636 424.995117188 141.869428636 424.995117188 200.053710938 c 0,11,12
 424.995117188 272.467869771 424.995117188 272.467869771 373.744140625 323.744140625 c 0,13,14
 366.41796875 331.0703125 366.41796875 331.0703125 366.41796875 341.42578125 c 128,-1,15
 366.41796875 351.7734375 366.41796875 351.7734375 373.744140625 359.099609375 c 128,-1,16
 381.06640625 366.421875 381.06640625 366.421875 391.421875 366.421875 c 128,-1,17
 401.77734375 366.421875 401.77734375 366.421875 409.099609375 359.099609375 c 1,18,-1
 409.09765625 359.09765625 l 0,19,20
 409.534295214 358.662477617 409.534295214 358.662477617 409.9453125 358.2109375 c 2,21,-1
 409.955078125 358.1953125 l 0,22,23
 413.623081314 354.485215092 413.623081314 354.485215092 417.12890625 350.591796875 c 0,24,25
 417.870942365 349.741285142 417.870942365 349.741285142 418.49609375 349.01171875 c 0,26,27
 421.262127285 345.901578343 421.262127285 345.901578343 423.880859375 342.73046875 c 0,28,29
 425.291161443 340.97490601 425.291161443 340.97490601 426.65625 339.205078125 c 0,30,31
 428.532617335 336.857031373 428.532617335 336.857031373 430.294921875 334.529296875 c 0,32,33
 432.260973094 331.855643019 432.260973094 331.855643019 434.134765625 329.14453125 c 0,34,35
 435.258263858 327.577665928 435.258263858 327.577665928 436.28515625 326.09375 c 0,36,37
 438.717213019 322.47360262 438.717213019 322.47360262 440.986328125 318.798828125 c 0,38,39
 441.493144272 318.006826042 441.493144272 318.006826042 441.890625 317.375 c 0,40,41
 444.601751989 312.937808432 444.601751989 312.937808432 447.095703125 308.3984375 c 0,42,43
 474.852539062 257.813117635 474.852539062 257.813117635 474.852539062 200.112304688 c 0,44,45
 474.852539062 109.056903282 474.852539062 109.056903282 411.4375 43.6015625 c 2,46,-1
 411.283203125 43.423828125 l 0,47,48
 410.299248842 42.1215356911 410.299248842 42.1215356911 409.140625 40.9453125 c 2,49,-1
 409.119140625 40.921875 l 1,50,-1
 409.115234375 40.91796875 l 1,51,-1
 409.09765625 40.900390625 l 1,52,-1
 409.091796875 40.89453125 l 1,53,-1
 409.087890625 40.892578125 l 0,54,55
 405.834578014 37.7520628487 405.834578014 37.7520628487 401.685546875 35.94921875 c 0,56,57
 400.399813257 35.4531013747 400.399813257 35.4531013747 399.07421875 35.1015625 c 0,58,59
 396.094999957 34.1094916607 396.094999957 34.1094916607 392.958984375 33.884765625 c 0,60,61
 392.191909328 33.8369140625 392.191909328 33.8369140625 391.438476562 33.8369140625 c 128,-1,62
 390.651855469 33.8364257812 390.651855469 33.8364257812 389.876953125 33.884765625 c 0,63,64
 386.743777869 34.1094959187 386.743777869 34.1094959187 383.767578125 35.1015625 c 0,65,66
 382.430067683 35.4569539183 382.430067683 35.4569539183 381.150390625 35.953125 c 0,67,68
 376.998360805 37.7574638847 376.998360805 37.7574638847 373.744140625 40.900390625 c 2,69,-1
 109.96875 304.67578125 l 1,70,71
 75.0966796875 258.038774489 75.0966796875 258.038774489 75.0966796875 199.853515625 c 0,72,73
 75.0966796875 127.514625897 75.0966796875 127.514625897 126.255859375 76.255859375 c 0,74,75
 133.58203125 68.9296875 133.58203125 68.9296875 133.58203125 58.57421875 c 128,-1,76
 133.58203125 48.2265625 133.58203125 48.2265625 126.255859375 40.900390625 c 128,-1,77
 118.9296875 33.57421875 118.9296875 33.57421875 108.57421875 33.57421875 c 128,-1,78
 98.2265625 33.57421875 98.2265625 33.57421875 90.900390625 40.900390625 c 1,79,-1
 90.90234375 40.90234375 l 1,80,-1
 90.86328125 40.943359375 l 0,81,82
 86.8084498417 45.3789670661 86.8084498417 45.3789670661 82.984375 50.041015625 c 0,83,84
 75.9905667207 57.4869783499 75.9905667207 57.4869783499 69.712890625 65.517578125 c 0,85,86
 64.6160637971 72.7805563548 64.6160637971 72.7805563548 60.10546875 80.42578125 c 0,87,88
 56.2017750541 86.1656459491 56.2017750541 86.1656459491 52.65625 92.138671875 c 0,89,90
 47.4730668889 102.073229404 47.4730668889 102.073229404 43.3046875 112.46484375 c 0,91,92
 41.3083623689 116.654169007 41.3083623689 116.654169007 39.49609375 120.900390625 c 0,93,94
 35.1504315946 132.927207764 35.1504315946 132.927207764 32.1953125 145.3671875 c 0,95,96
 31.3022585701 148.301932111 31.3022585701 148.301932111 30.49609375 151.234375 c 0,97,98
 27.5393633884 165.026014813 27.5393633884 165.026014813 26.328125 179.078125 c 0,99,100
 26.0738038237 180.786754052 26.0738038237 180.786754052 25.84375 182.51953125 c 0,101,102
 25.23046875 190.842213729 25.23046875 190.842213729 25.23046875 198.873046875 c 0,103,104
 25.23046875 205.564320959 25.23046875 205.564320959 25.623046875 212.255859375 c 0,105,-1
 25.623046875 212.512695312 l 0,106,107
 25.623046875 213.354003906 25.623046875 213.354003906 25.62890625 214.193359375 c 0,108,109
 26.6369975637 229.674450873 26.6369975637 229.674450873 29.7578125 244.861328125 c 2,110,-1
 29.7578125 244.861328125 l 0,111,-1
 29.86328125 245.583984375 l 1,112,113
 43.136095416 309.508091582 43.136095416 309.508091582 88.5625 356.3984375 c 0,114,115
 89.0459694492 356.991315938 89.0459694492 356.991315938 89.546875 357.53515625 c 128,-1,116
 90.1605623753 358.25045635 90.1605623753 358.25045635 90.890625 359.0859375 c 2,117,-1
 90.900390625 359.099609375 l 1,118,-1
 90.90234375 359.099609375 l 1,119,-1
 90.908203125 359.10546875 l 1,120,-1
 90.912109375 359.107421875 l 0,121,122
 94.1638384371 362.246357049 94.1638384371 362.246357049 98.310546875 364.048828125 c 0,123,124
 99.6012714283 364.548463436 99.6012714283 364.548463436 100.9375 364.90234375 c 0,125,126
 103.905369602 365.888626657 103.905369602 365.888626657 107.02734375 366.11328125 c 0,127,128
 107.801340365 366.293384309 107.801340365 366.293384309 108.578125 366.421875 c 0,0,1
EndSplineSet
EndChar

StartChar: j
Encoding: 106 106 18
Width: 500
Flags: W
AnchorPoint: "vowel" 250 200 basechar 0
LayerCount: 2
Fore
SplineSet
250 425 m 0,0,1
 260 425 260 425 267.5 417.5 c 128,-1,2
 275 410 275 410 275 400 c 128,-1,3
 275 390 275 390 267.5 382.5 c 128,-1,4
 260 375 260 375 250 375 c 0,5,6
 178 375 178 375 126.5 323.5 c 128,-1,7
 75 272 75 272 75 200 c 128,-1,8
 75 128 75 128 126.5 76.5 c 128,-1,9
 178 25 178 25 250 25 c 128,-1,10
 322 25 322 25 373.5 76.5 c 128,-1,11
 425 128 425 128 425 200 c 0,12,13
 425 210 425 210 432.5 217.5 c 128,-1,14
 440 225 440 225 450 225 c 128,-1,15
 460 225 460 225 467.5 217.5 c 128,-1,16
 475 210 475 210 475 200 c 0,17,18
 475 107 475 107 409 41 c 128,-1,19
 343 -25 343 -25 250 -25 c 128,-1,20
 157 -25 157 -25 91 41 c 128,-1,21
 25 107 25 107 25 200 c 128,-1,22
 25 293 25 293 91 359 c 128,-1,23
 157 425 157 425 250 425 c 0,0,1
126.255859375 359.098632812 m 2,24,-1
 409.098632812 76.255859375 l 1,25,26
 416.424804688 68.9312684607 416.424804688 68.9312684607 416.424804688 58.5751953125 c 128,-1,27
 416.424804688 48.2259581018 416.424804688 48.2259581018 409.098632812 40.9013671875 c 128,-1,28
 401.774041898 33.5751953125 401.774041898 33.5751953125 391.41796875 33.5751953125 c 128,-1,29
 381.068731539 33.5751953125 381.068731539 33.5751953125 373.744140625 40.9013671875 c 2,30,-1
 90.9013671875 323.744140625 l 1,31,32
 83.5751953125 331.068731539 83.5751953125 331.068731539 83.5751953125 341.424804688 c 128,-1,33
 83.5751953125 351.774041898 83.5751953125 351.774041898 90.9013671875 359.098632812 c 128,-1,34
 98.2259581018 366.424804688 98.2259581018 366.424804688 108.58203125 366.424804688 c 128,-1,35
 118.931268461 366.424804688 118.931268461 366.424804688 126.255859375 359.098632812 c 2,24,-1
250 325 m 128,-1,37
 302 325 302 325 338.5 288.5 c 128,-1,38
 375 252 375 252 375 200 c 128,-1,39
 375 148 375 148 338.5 111.5 c 128,-1,40
 302 75 302 75 250 75 c 128,-1,41
 198 75 198 75 161.5 111.5 c 128,-1,42
 125 148 125 148 125 200 c 128,-1,43
 125 252 125 252 161.5 288.5 c 128,-1,36
 198 325 198 325 250 325 c 128,-1,37
250 275 m 128,-1,45
 219 275 219 275 197 253 c 128,-1,46
 175 231 175 231 175 200 c 128,-1,47
 175 169 175 169 197 147 c 128,-1,48
 219 125 219 125 250 125 c 128,-1,49
 281 125 281 125 303 147 c 128,-1,50
 325 169 325 169 325 200 c 128,-1,51
 325 231 325 231 303 253 c 128,-1,44
 281 275 281 275 250 275 c 128,-1,45
EndSplineSet
EndChar

StartChar: c
Encoding: 99 99 19
Width: 500
Flags: W
AnchorPoint: "vowel" 250 200 basechar 0
LayerCount: 2
Fore
SplineSet
250 425 m 128,-1,1
 343 425 343 425 409 359 c 128,-1,2
 475 293 475 293 475 200 c 128,-1,3
 475 107 475 107 409 41 c 128,-1,4
 343 -25 343 -25 250 -25 c 128,-1,5
 156.802361444 -25 156.802361444 -25 90.900390625 40.900390625 c 0,6,7
 83.578125 48.22265625 83.578125 48.22265625 83.578125 58.578125 c 128,-1,8
 83.578125 68.9265136719 83.578125 68.9265136719 90.9039306641 76.2523193359 c 128,-1,9
 98.2297363281 83.578125 98.2297363281 83.578125 108.578125 83.578125 c 128,-1,10
 118.93359375 83.578125 118.93359375 83.578125 126.255859375 76.255859375 c 0,11,12
 177.51171875 25 177.51171875 25 250 25 c 0,13,14
 322 25 322 25 373.5 76.5 c 128,-1,15
 425 128 425 128 425 200 c 128,-1,16
 425 272 425 272 373.5 323.5 c 128,-1,17
 322 375 322 375 250 375 c 0,18,19
 177.51171875 375 177.51171875 375 126.255859375 323.744140625 c 0,20,21
 118.93359375 316.421875 118.93359375 316.421875 108.578125 316.421875 c 128,-1,22
 98.2297363281 316.421875 98.2297363281 316.421875 90.9039306641 323.747680664 c 128,-1,23
 83.578125 331.073486328 83.578125 331.073486328 83.578125 341.421875 c 128,-1,24
 83.578125 351.77734375 83.578125 351.77734375 90.900390625 359.099609375 c 0,25,0
 156.802361444 425 156.802361444 425 250 425 c 128,-1,1
126.255859375 359.098632812 m 2,26,-1
 409.098632812 76.255859375 l 1,27,28
 416.424804688 68.9312684607 416.424804688 68.9312684607 416.424804688 58.5751953125 c 128,-1,29
 416.424804688 48.2259581018 416.424804688 48.2259581018 409.098632812 40.9013671875 c 128,-1,30
 401.774041898 33.5751953125 401.774041898 33.5751953125 391.41796875 33.5751953125 c 128,-1,31
 381.068731539 33.5751953125 381.068731539 33.5751953125 373.744140625 40.9013671875 c 2,32,-1
 90.9013671875 323.744140625 l 1,33,34
 83.5751953125 331.068731539 83.5751953125 331.068731539 83.5751953125 341.424804688 c 128,-1,35
 83.5751953125 351.774041898 83.5751953125 351.774041898 90.9013671875 359.098632812 c 128,-1,36
 98.2259581018 366.424804688 98.2259581018 366.424804688 108.58203125 366.424804688 c 128,-1,37
 118.931268461 366.424804688 118.931268461 366.424804688 126.255859375 359.098632812 c 2,26,-1
EndSplineSet
EndChar

StartChar: w
Encoding: 119 119 20
Width: 0
GlyphClass: 4
Flags: W
AnchorPoint: "vowel" -250 200 mark 0
LayerCount: 2
Fore
SplineSet
-450 25 m 128,-1,1
 -440 25 -440 25 -432.5 17.5 c 128,-1,2
 -425 10 -425 10 -425 0 c 0,3,4
 -425 -72 -425 -72 -373.5 -123.5 c 128,-1,5
 -322 -175 -322 -175 -250 -175 c 128,-1,6
 -178 -175 -178 -175 -126.5 -123.5 c 128,-1,7
 -75 -72 -75 -72 -75 0 c 0,8,9
 -75 10 -75 10 -67.5 17.5 c 128,-1,10
 -60 25 -60 25 -50 25 c 128,-1,11
 -40 25 -40 25 -32.5 17.5 c 128,-1,12
 -25 10 -25 10 -25 0 c 0,13,14
 -25 -93 -25 -93 -91 -159 c 128,-1,15
 -157 -225 -157 -225 -250 -225 c 128,-1,16
 -343 -225 -343 -225 -409 -159 c 128,-1,17
 -475 -93 -475 -93 -475 0 c 0,18,19
 -475 10 -475 10 -467.5 17.5 c 128,-1,0
 -460 25 -460 25 -450 25 c 128,-1,1
EndSplineSet
EndChar

StartChar: n
Encoding: 110 110 21
Width: 500
Flags: W
AnchorPoint: "vowel" 250 200 basechar 0
LayerCount: 2
Fore
SplineSet
250 425 m 128,-1,1
 343 425 343 425 409 359 c 128,-1,2
 475 293 475 293 475 200 c 0,3,4
 475 190 475 190 467.5 182.5 c 128,-1,5
 460 175 460 175 450 175 c 128,-1,6
 440 175 440 175 432.5 182.5 c 128,-1,7
 425 190 425 190 425 200 c 0,8,9
 425 272 425 272 373.5 323.5 c 128,-1,10
 322 375 322 375 250 375 c 128,-1,11
 178 375 178 375 126.5 323.5 c 128,-1,12
 75 272 75 272 75 200 c 128,-1,13
 75 128 75 128 126.5 76.5 c 128,-1,14
 178 25 178 25 250 25 c 0,15,16
 260 25 260 25 267.5 17.5 c 128,-1,17
 275 10 275 10 275 0 c 128,-1,18
 275 -10 275 -10 267.5 -17.5 c 128,-1,19
 260 -25 260 -25 250 -25 c 0,20,21
 157 -25 157 -25 91 41 c 128,-1,22
 25 107 25 107 25 200 c 128,-1,23
 25 293 25 293 91 359 c 128,-1,0
 157 425 157 425 250 425 c 128,-1,1
126.255859375 359.098632812 m 2,24,-1
 409.098632812 76.255859375 l 1,25,26
 416.424804688 68.9312684607 416.424804688 68.9312684607 416.424804688 58.5751953125 c 128,-1,27
 416.424804688 48.2259581018 416.424804688 48.2259581018 409.098632812 40.9013671875 c 128,-1,28
 401.774041898 33.5751953125 401.774041898 33.5751953125 391.41796875 33.5751953125 c 128,-1,29
 381.068731539 33.5751953125 381.068731539 33.5751953125 373.744140625 40.9013671875 c 2,30,-1
 90.9013671875 323.744140625 l 1,31,32
 83.5751953125 331.068731539 83.5751953125 331.068731539 83.5751953125 341.424804688 c 128,-1,33
 83.5751953125 351.774041898 83.5751953125 351.774041898 90.9013671875 359.098632812 c 128,-1,34
 98.2259581018 366.424804688 98.2259581018 366.424804688 108.58203125 366.424804688 c 128,-1,35
 118.931268461 366.424804688 118.931268461 366.424804688 126.255859375 359.098632812 c 2,24,-1
EndSplineSet
EndChar

StartChar: z
Encoding: 122 122 22
Width: 500
Flags: W
AnchorPoint: "vowel" 250 200 basechar 0
LayerCount: 2
Fore
SplineSet
250 425 m 0,0,1
 260 425 260 425 267.5 417.5 c 128,-1,2
 275 410 275 410 275 400 c 128,-1,3
 275 390 275 390 267.5 382.5 c 128,-1,4
 260 375 260 375 250 375 c 0,5,6
 178 375 178 375 126.5 323.5 c 128,-1,7
 75 272 75 272 75 200 c 128,-1,8
 75 128 75 128 126.5 76.5 c 128,-1,9
 178 25 178 25 250 25 c 128,-1,10
 322 25 322 25 373.5 76.5 c 128,-1,11
 425 128 425 128 425 200 c 0,12,13
 425 210 425 210 432.5 217.5 c 128,-1,14
 440 225 440 225 450 225 c 128,-1,15
 460 225 460 225 467.5 217.5 c 128,-1,16
 475 210 475 210 475 200 c 0,17,18
 475 107 475 107 409 41 c 128,-1,19
 343 -25 343 -25 250 -25 c 128,-1,20
 157 -25 157 -25 91 41 c 128,-1,21
 25 107 25 107 25 200 c 128,-1,22
 25 293 25 293 91 359 c 128,-1,23
 157 425 157 425 250 425 c 0,0,1
126.255859375 359.098632812 m 2,24,-1
 409.098632812 76.255859375 l 1,25,26
 416.424804688 68.9312684607 416.424804688 68.9312684607 416.424804688 58.5751953125 c 128,-1,27
 416.424804688 48.2259581018 416.424804688 48.2259581018 409.098632812 40.9013671875 c 128,-1,28
 401.774041898 33.5751953125 401.774041898 33.5751953125 391.41796875 33.5751953125 c 128,-1,29
 381.068731539 33.5751953125 381.068731539 33.5751953125 373.744140625 40.9013671875 c 2,30,-1
 90.9013671875 323.744140625 l 1,31,32
 83.5751953125 331.068731539 83.5751953125 331.068731539 83.5751953125 341.424804688 c 128,-1,33
 83.5751953125 351.774041898 83.5751953125 351.774041898 90.9013671875 359.098632812 c 128,-1,34
 98.2259581018 366.424804688 98.2259581018 366.424804688 108.58203125 366.424804688 c 128,-1,35
 118.931268461 366.424804688 118.931268461 366.424804688 126.255859375 359.098632812 c 2,24,-1
EndSplineSet
EndChar

StartChar: m
Encoding: 109 109 23
Width: 500
Flags: W
AnchorPoint: "vowel" 250 200 basechar 0
LayerCount: 2
Fore
SplineSet
250 425 m 128,-1,1
 343 425 343 425 409 359 c 128,-1,2
 475 293 475 293 475 200 c 0,3,4
 475 190 475 190 467.5 182.5 c 128,-1,5
 460 175 460 175 450 175 c 128,-1,6
 440 175 440 175 432.5 182.5 c 128,-1,7
 425 190 425 190 425 200 c 0,8,9
 425 272 425 272 373.5 323.5 c 128,-1,10
 322 375 322 375 250 375 c 128,-1,11
 178 375 178 375 126.5 323.5 c 128,-1,12
 75 272 75 272 75 200 c 128,-1,13
 75 128 75 128 126.5 76.5 c 128,-1,14
 178 25 178 25 250 25 c 0,15,16
 260 25 260 25 267.5 17.5 c 128,-1,17
 275 10 275 10 275 0 c 128,-1,18
 275 -10 275 -10 267.5 -17.5 c 128,-1,19
 260 -25 260 -25 250 -25 c 0,20,21
 157 -25 157 -25 91 41 c 128,-1,22
 25 107 25 107 25 200 c 128,-1,23
 25 293 25 293 91 359 c 128,-1,0
 157 425 157 425 250 425 c 128,-1,1
EndSplineSet
EndChar

StartChar: v
Encoding: 118 118 24
Width: 500
Flags: W
AnchorPoint: "vowel" 250 200 basechar 0
LayerCount: 2
Fore
SplineSet
250 425 m 128,-1,1
 343 425 343 425 409 359 c 128,-1,2
 475 293 475 293 475 200 c 128,-1,3
 475 106.802361444 475 106.802361444 409.099609375 40.900390625 c 0,4,5
 401.77734375 33.578125 401.77734375 33.578125 391.421875 33.578125 c 128,-1,6
 381.073486328 33.578125 381.073486328 33.578125 373.747680664 40.9039306641 c 128,-1,7
 366.421875 48.2297363281 366.421875 48.2297363281 366.421875 58.578125 c 128,-1,8
 366.421875 68.93359375 366.421875 68.93359375 373.744140625 76.255859375 c 0,9,10
 425 127.51171875 425 127.51171875 425 200 c 0,11,12
 425 272 425 272 373.5 323.5 c 128,-1,13
 322 375 322 375 250 375 c 128,-1,14
 178 375 178 375 126.5 323.5 c 128,-1,15
 75 272 75 272 75 200 c 0,16,17
 75 127.51171875 75 127.51171875 126.255859375 76.255859375 c 0,18,19
 133.578125 68.93359375 133.578125 68.93359375 133.578125 58.578125 c 128,-1,20
 133.578125 48.2297363281 133.578125 48.2297363281 126.252319336 40.9039306641 c 128,-1,21
 118.926513672 33.578125 118.926513672 33.578125 108.578125 33.578125 c 128,-1,22
 98.22265625 33.578125 98.22265625 33.578125 90.900390625 40.900390625 c 0,23,24
 25 106.802361444 25 106.802361444 25 200 c 128,-1,25
 25 293 25 293 91 359 c 128,-1,0
 157 425 157 425 250 425 c 128,-1,1
126.255859375 359.098632812 m 2,26,-1
 409.098632812 76.255859375 l 1,27,28
 416.424804688 68.9312684607 416.424804688 68.9312684607 416.424804688 58.5751953125 c 128,-1,29
 416.424804688 48.2259581018 416.424804688 48.2259581018 409.098632812 40.9013671875 c 128,-1,30
 401.774041898 33.5751953125 401.774041898 33.5751953125 391.41796875 33.5751953125 c 128,-1,31
 381.068731539 33.5751953125 381.068731539 33.5751953125 373.744140625 40.9013671875 c 2,32,-1
 90.9013671875 323.744140625 l 1,33,34
 83.5751953125 331.068731539 83.5751953125 331.068731539 83.5751953125 341.424804688 c 128,-1,35
 83.5751953125 351.774041898 83.5751953125 351.774041898 90.9013671875 359.098632812 c 128,-1,36
 98.2259581018 366.424804688 98.2259581018 366.424804688 108.58203125 366.424804688 c 128,-1,37
 118.931268461 366.424804688 118.931268461 366.424804688 126.255859375 359.098632812 c 2,26,-1
EndSplineSet
EndChar

StartChar: b
Encoding: 98 98 25
Width: 500
Flags: W
AnchorPoint: "vowel" 250 200 basechar 0
LayerCount: 2
Fore
SplineSet
250 425 m 128,-1,1
 343.197638556 425 343.197638556 425 409.099609375 359.099609375 c 0,2,3
 416.421875 351.77734375 416.421875 351.77734375 416.421875 341.421875 c 128,-1,4
 416.421875 331.073486328 416.421875 331.073486328 409.096069336 323.747680664 c 128,-1,5
 401.770263672 316.421875 401.770263672 316.421875 391.421875 316.421875 c 128,-1,6
 381.06640625 316.421875 381.06640625 316.421875 373.744140625 323.744140625 c 0,7,8
 322.48828125 375 322.48828125 375 250 375 c 0,9,10
 178 375 178 375 126.5 323.5 c 128,-1,11
 75 272 75 272 75 200 c 128,-1,12
 75 128 75 128 126.5 76.5 c 128,-1,13
 178 25 178 25 250 25 c 0,14,15
 322.48828125 25 322.48828125 25 373.744140625 76.255859375 c 0,16,17
 381.06640625 83.578125 381.06640625 83.578125 391.421875 83.578125 c 128,-1,18
 401.770263672 83.578125 401.770263672 83.578125 409.096069336 76.2523193359 c 128,-1,19
 416.421875 68.9265136719 416.421875 68.9265136719 416.421875 58.578125 c 128,-1,20
 416.421875 48.22265625 416.421875 48.22265625 409.099609375 40.900390625 c 0,21,22
 343.197638556 -25 343.197638556 -25 250 -25 c 128,-1,23
 157 -25 157 -25 91 41 c 128,-1,24
 25 107 25 107 25 200 c 128,-1,25
 25 293 25 293 91 359 c 128,-1,0
 157 425 157 425 250 425 c 128,-1,1
126.255859375 359.098632812 m 2,26,-1
 409.098632812 76.255859375 l 1,27,28
 416.424804688 68.9312684607 416.424804688 68.9312684607 416.424804688 58.5751953125 c 128,-1,29
 416.424804688 48.2259581018 416.424804688 48.2259581018 409.098632812 40.9013671875 c 128,-1,30
 401.774041898 33.5751953125 401.774041898 33.5751953125 391.41796875 33.5751953125 c 128,-1,31
 381.068731539 33.5751953125 381.068731539 33.5751953125 373.744140625 40.9013671875 c 2,32,-1
 90.9013671875 323.744140625 l 1,33,34
 83.5751953125 331.068731539 83.5751953125 331.068731539 83.5751953125 341.424804688 c 128,-1,35
 83.5751953125 351.774041898 83.5751953125 351.774041898 90.9013671875 359.098632812 c 128,-1,36
 98.2259581018 366.424804688 98.2259581018 366.424804688 108.58203125 366.424804688 c 128,-1,37
 118.931268461 366.424804688 118.931268461 366.424804688 126.255859375 359.098632812 c 2,26,-1
EndSplineSet
EndChar

StartChar: t
Encoding: 116 116 26
Width: 500
Flags: W
AnchorPoint: "vowel" 250 200 basechar 0
LayerCount: 2
Fore
SplineSet
108.578125 366.421875 m 128,-1,1
 118.926513672 366.421875 118.926513672 366.421875 126.252319336 359.096069336 c 128,-1,2
 133.578125 351.770263672 133.578125 351.770263672 133.578125 341.421875 c 128,-1,3
 133.578125 331.06640625 133.578125 331.06640625 126.255859375 323.744140625 c 0,4,5
 75 272.48828125 75 272.48828125 75 200 c 0,6,7
 75 128 75 128 126.5 76.5 c 128,-1,8
 178 25 178 25 250 25 c 128,-1,9
 322 25 322 25 373.5 76.5 c 128,-1,10
 425 128 425 128 425 200 c 0,11,12
 425 272.48828125 425 272.48828125 373.744140625 323.744140625 c 0,13,14
 366.421875 331.06640625 366.421875 331.06640625 366.421875 341.421875 c 128,-1,15
 366.421875 351.770263672 366.421875 351.770263672 373.747680664 359.096069336 c 128,-1,16
 381.073486328 366.421875 381.073486328 366.421875 391.421875 366.421875 c 128,-1,17
 401.77734375 366.421875 401.77734375 366.421875 409.099609375 359.099609375 c 0,18,19
 475 293.197638556 475 293.197638556 475 200 c 128,-1,20
 475 107 475 107 409 41 c 128,-1,21
 343 -25 343 -25 250 -25 c 128,-1,22
 157 -25 157 -25 91 41 c 128,-1,23
 25 107 25 107 25 200 c 128,-1,24
 25 293.197638556 25 293.197638556 90.900390625 359.099609375 c 0,25,0
 98.22265625 366.421875 98.22265625 366.421875 108.578125 366.421875 c 128,-1,1
EndSplineSet
EndChar

StartChar: grave
Encoding: 96 96 27
Width: 500
Flags: W
LayerCount: 2
Fore
SplineSet
50 225 m 128,-1,1
 60 225 60 225 67.5 217.5 c 128,-1,2
 75 210 75 210 75 200 c 128,-1,3
 75 190 75 190 67.5 182.5 c 128,-1,4
 60 175 60 175 50 175 c 128,-1,5
 40 175 40 175 32.5 182.5 c 128,-1,6
 25 190 25 190 25 200 c 128,-1,7
 25 210 25 210 32.5 217.5 c 128,-1,0
 40 225 40 225 50 225 c 128,-1,1
EndSplineSet
EndChar

StartChar: H
Encoding: 72 72 28
Width: 500
Flags: W
AnchorPoint: "vowel" 250 200 basechar 0
LayerCount: 2
Fore
SplineSet
250 425 m 128,-1,1
 343 425 343 425 409 359 c 128,-1,2
 475 293 475 293 475 200 c 128,-1,3
 475 107 475 107 409 41 c 128,-1,4
 343 -25 343 -25 250 -25 c 0,5,6
 240 -25 240 -25 232.5 -17.5 c 128,-1,7
 225 -10 225 -10 225 0 c 128,-1,8
 225 10 225 10 232.5 17.5 c 128,-1,9
 240 25 240 25 250 25 c 0,10,11
 322 25 322 25 373.5 76.5 c 128,-1,12
 425 128 425 128 425 200 c 128,-1,13
 425 272 425 272 373.5 323.5 c 128,-1,14
 322 375 322 375 250 375 c 128,-1,15
 178 375 178 375 126.5 323.5 c 128,-1,16
 75 272 75 272 75 200 c 0,17,18
 75 190 75 190 67.5 182.5 c 128,-1,19
 60 175 60 175 50 175 c 128,-1,20
 40 175 40 175 32.5 182.5 c 128,-1,21
 25 190 25 190 25 200 c 0,22,23
 25 293 25 293 91 359 c 128,-1,0
 157 425 157 425 250 425 c 128,-1,1
EndSplineSet
EndChar

StartChar: braceleft
Encoding: 123 123 29
Width: 500
Flags: W
LayerCount: 2
Fore
SplineSet
350 525 m 0,0,1
 360 525 360 525 367.5 517.5 c 128,-1,2
 375 510 375 510 375 500 c 128,-1,3
 375 490 375 490 367.5 482.5 c 128,-1,4
 360 475 360 475 350 475 c 1,5,-1
 350 474.716796875 l 1,6,-1
 349.703125 474.725585938 l 0,7,8
 318.893008723 474.725585938 318.893008723 474.725585938 296.966796875 453.033203125 c 0,9,10
 275 431.067871094 275 431.067871094 275 400 c 2,11,-1
 275 300 l 2,12,13
 275 248.219726641 275 248.219726641 238.388671875 211.611328125 c 0,14,15
 231.9858793 205.300441663 231.9858793 205.300441663 224.71484375 200.001953125 c 1,16,17
 231.983560396 194.70330331 231.983560396 194.70330331 238.388671875 188.388671875 c 0,18,19
 275 151.775878945 275 151.775878945 275 100 c 2,20,-1
 275 0 l 2,21,22
 275 -31.06640625 275 -31.06640625 296.966796875 -53.033203125 c 0,23,24
 318.88511201 -74.7177734375 318.88511201 -74.7177734375 349.709960938 -74.7177734375 c 0,25,-1
 350 -74.716796875 l 1,26,-1
 350 -75 l 1,27,28
 360.354625616 -75 360.354625616 -75 367.677312808 -82.3236750888 c 128,-1,29
 375 -89.6473501777 375 -89.6473501777 375 -100.001953125 c 128,-1,30
 375 -110.356369808 375 -110.356369808 367.677405918 -117.679161467 c 128,-1,31
 360.354811837 -125.001953125 360.354811837 -125.001953125 350 -125.001953125 c 0,32,33
 298.08038125 -124.395152975 298.08038125 -124.395152975 261.611328125 -88.388671875 c 0,34,35
 225 -51.7758789453 225 -51.7758789453 225 0 c 2,36,-1
 225 100 l 2,37,38
 225 131.06640625 225 131.06640625 203.033203125 153.033203125 c 0,39,40
 181.11488799 174.717773438 181.11488799 174.717773438 150.290039062 174.717773438 c 0,41,-1
 150 174.716796875 l 1,42,-1
 150 175 l 0,43,-1
 149.993164062 175 l 0,44,45
 147.440432551 175 147.440432551 175 144.9609375 175.5078125 c 128,-1,46
 142.540472916 176.005669704 142.540472916 176.005669704 140.26953125 176.96484375 c 0,47,48
 135.772078934 178.868457487 135.772078934 178.868457487 132.322265625 182.32421875 c 0,49,50
 130.618393425 184.025168357 130.618393425 184.025168357 129.26953125 186.021484375 c 2,51,-1
 129.26953125 186.0234375 l 1,52,53
 127.909803377 188.037849164 127.909803377 188.037849164 126.96484375 190.26953125 c 2,54,-1
 126.96484375 190.271484375 l 1,55,56
 126.006072949 192.539977905 126.006072949 192.539977905 125.5078125 194.9609375 c 2,57,-1
 125.5078125 194.962890625 l 2,58,59
 125 197.443874863 125 197.443874863 125 200 c 2,60,-1
 125 200.00390625 l 0,61,-1
 125 200.006835938 l 0,62,63
 125 202.559567449 125 202.559567449 125.5078125 205.0390625 c 128,-1,64
 126.004319848 207.452761936 126.004319848 207.452761936 126.9609375 209.71875 c 2,65,-1
 126.96484375 209.73046875 l 1,66,-1
 126.96484375 209.732421875 l 1,67,-1
 126.97265625 209.748046875 l 0,68,69
 128.869241668 214.222757293 128.869241668 214.222757293 132.3046875 217.658203125 c 2,70,-1
 132.322265625 217.677734375 l 1,71,-1
 132.345703125 217.69921875 l 0,72,73
 134.030677857 219.381263091 134.030677857 219.381263091 135.99609375 220.7109375 c 2,74,-1
 136.052734375 220.748046875 l 1,75,76
 138.037912791 222.08382639 138.037912791 222.08382639 140.23828125 223.01953125 c 2,77,-1
 140.3046875 223.048828125 l 2,78,79
 142.547703971 223.992708482 142.547703971 223.992708482 144.923828125 224.482421875 c 2,80,-1
 144.998046875 224.498046875 l 2,81,82
 147.434705671 224.993688798 147.434705671 224.993688798 149.9609375 224.998046875 c 2,83,-1
 150 225.001953125 l 1,84,-1
 150 225.283203125 l 1,85,-1
 150.296875 225.274414062 l 0,86,87
 181.106991277 225.274414062 181.106991277 225.274414062 203.033203125 246.966796875 c 0,88,89
 225 268.932128906 225 268.932128906 225 300 c 2,90,-1
 225 400 l 2,91,92
 225 451.775878945 225 451.775878945 261.611328125 488.388671875 c 0,93,94
 298.078814947 524.394492054 298.078814947 524.394492054 350 525 c 0,0,1
EndSplineSet
EndChar

StartChar: o
Encoding: 111 111 30
Width: 0
GlyphClass: 4
Flags: W
AnchorPoint: "vowel" -250 200 mark 0
LayerCount: 2
Fore
SplineSet
-450 25 m 128,-1,1
 -440 25 -440 25 -432.5 17.5 c 128,-1,2
 -425 10 -425 10 -425 0 c 0,3,4
 -425 -72 -425 -72 -373.5 -123.5 c 128,-1,5
 -322 -175 -322 -175 -250 -175 c 128,-1,6
 -178 -175 -178 -175 -126.5 -123.5 c 128,-1,7
 -75 -72 -75 -72 -75 0 c 0,8,9
 -75 10 -75 10 -67.5 17.5 c 128,-1,10
 -60 25 -60 25 -50 25 c 128,-1,11
 -40 25 -40 25 -32.5 17.5 c 128,-1,12
 -25 10 -25 10 -25 0 c 0,13,14
 -25 -93 -25 -93 -91 -159 c 128,-1,15
 -157 -225 -157 -225 -250 -225 c 128,-1,16
 -343 -225 -343 -225 -409 -159 c 128,-1,17
 -475 -93 -475 -93 -475 0 c 0,18,19
 -475 10 -475 10 -467.5 17.5 c 128,-1,0
 -460 25 -460 25 -450 25 c 128,-1,1
-250 25 m 0,20,21
 -239.64453125 25 -239.64453125 25 -232.322265625 17.677734375 c 2,22,-1
 -90.900390625 -123.744140625 l 1,23,24
 -83.57421875 -131.0703125 -83.57421875 -131.0703125 -83.57421875 -141.42578125 c 128,-1,25
 -83.57421875 -151.7734375 -83.57421875 -151.7734375 -90.900390625 -159.099609375 c 128,-1,26
 -98.2265625 -166.42578125 -98.2265625 -166.42578125 -108.58203125 -166.42578125 c 128,-1,27
 -118.9296875 -166.42578125 -118.9296875 -166.42578125 -126.255859375 -159.099609375 c 2,28,-1
 -267.677734375 -17.677734375 l 1,29,-1
 -267.6328125 -17.6328125 l 1,30,31
 -274.96333784 -10.3401955001 -274.96333784 -10.3401955001 -275 0 c 0,32,33
 -275 10 -275 10 -267.5 17.5 c 128,-1,34
 -260 25 -260 25 -250 25 c 0,20,21
EndSplineSet
EndChar

StartChar: bar
Encoding: 124 124 31
Width: 500
Flags: W
LayerCount: 2
Fore
SplineSet
250 625 m 128,-1,1
 260 625 260 625 267.5 617.5 c 128,-1,2
 275 610 275 610 275 600 c 2,3,-1
 275 -200 l 2,4,5
 275 -210 275 -210 267.5 -217.5 c 128,-1,6
 260 -225 260 -225 250 -225 c 128,-1,7
 240 -225 240 -225 232.5 -217.5 c 128,-1,8
 225 -210 225 -210 225 -200 c 2,9,-1
 225 600 l 2,10,11
 225 610 225 610 232.5 617.5 c 128,-1,0
 240 625 240 625 250 625 c 128,-1,1
EndSplineSet
EndChar

StartChar: I
Encoding: 73 73 32
Width: 0
GlyphClass: 4
Flags: W
AnchorPoint: "vowel" -250 200 mark 0
LayerCount: 2
Fore
SplineSet
-250 625 m 128,-1,1
 -157 625 -157 625 -91 559 c 128,-1,2
 -25 493 -25 493 -25 400 c 0,3,4
 -25 390 -25 390 -32.5 382.5 c 128,-1,5
 -40 375 -40 375 -50 375 c 128,-1,6
 -60 375 -60 375 -67.5 382.5 c 128,-1,7
 -75 390 -75 390 -75 400 c 0,8,9
 -75 472 -75 472 -126.5 523.5 c 128,-1,10
 -178 575 -178 575 -250 575 c 128,-1,11
 -322 575 -322 575 -373.5 523.5 c 128,-1,12
 -425 472 -425 472 -425 400 c 0,13,14
 -425 390 -425 390 -432.5 382.5 c 128,-1,15
 -440 375 -440 375 -450 375 c 128,-1,16
 -460 375 -460 375 -467.5 382.5 c 128,-1,17
 -475 390 -475 390 -475 400 c 0,18,19
 -475 493 -475 493 -409 559 c 128,-1,0
 -343 625 -343 625 -250 625 c 128,-1,1
EndSplineSet
EndChar

StartChar: a
Encoding: 97 97 33
Width: 0
GlyphClass: 4
Flags: W
AnchorPoint: "vowel" -250 200 mark 0
LayerCount: 2
Fore
SplineSet
-250 625 m 128,-1,1
 -157 625 -157 625 -91 559 c 128,-1,2
 -25 493 -25 493 -25 400 c 0,3,4
 -25 390 -25 390 -32.5 382.5 c 128,-1,5
 -40 375 -40 375 -50 375 c 128,-1,6
 -60 375 -60 375 -67.5 382.5 c 128,-1,7
 -75 390 -75 390 -75 400 c 0,8,9
 -75 472 -75 472 -126.5 523.5 c 128,-1,10
 -178 575 -178 575 -250 575 c 128,-1,11
 -322 575 -322 575 -373.5 523.5 c 128,-1,12
 -425 472 -425 472 -425 400 c 0,13,14
 -425 390 -425 390 -432.5 382.5 c 128,-1,15
 -440 375 -440 375 -450 375 c 128,-1,16
 -460 375 -460 375 -467.5 382.5 c 128,-1,17
 -475 390 -475 390 -475 400 c 0,18,19
 -475 493 -475 493 -409 559 c 128,-1,0
 -343 625 -343 625 -250 625 c 128,-1,1
-393.205078125 566.357421875 m 0,20,21
 -392.269375888 566.424804688 -392.269375888 566.424804688 -391.41796875 566.424804688 c 0,22,23
 -381.070917029 566.424804688 -381.070917029 566.424804688 -373.744140625 559.099609375 c 2,24,-1
 -232.322265625 417.677734375 l 1,25,26
 -225 410.35546875 -225 410.35546875 -225 400 c 0,27,28
 -225 390 -225 390 -232.5 382.5 c 128,-1,29
 -240 375 -240 375 -250 375 c 0,30,31
 -260.3401955 375.03666216 -260.3401955 375.03666216 -267.6328125 382.3671875 c 1,32,-1
 -267.677734375 382.322265625 l 1,33,-1
 -409.099609375 523.744140625 l 1,34,35
 -416.42578125 531.0703125 -416.42578125 531.0703125 -416.42578125 541.42578125 c 128,-1,36
 -416.42578125 551.7734375 -416.42578125 551.7734375 -409.099609375 559.099609375 c 0,37,38
 -402.506159856 565.693058894 -402.506159856 565.693058894 -393.205078125 566.357421875 c 0,20,21
EndSplineSet
EndChar

StartChar: u
Encoding: 117 117 34
Width: 0
GlyphClass: 4
Flags: W
AnchorPoint: "vowel" -250 200 mark 0
LayerCount: 2
Fore
SplineSet
-250 25 m 0,0,1
 -239.64453125 25 -239.64453125 25 -232.322265625 17.677734375 c 2,2,-1
 -90.900390625 -123.744140625 l 1,3,4
 -83.57421875 -131.0703125 -83.57421875 -131.0703125 -83.57421875 -141.42578125 c 128,-1,5
 -83.57421875 -151.7734375 -83.57421875 -151.7734375 -90.900390625 -159.099609375 c 128,-1,6
 -98.2265625 -166.42578125 -98.2265625 -166.42578125 -108.58203125 -166.42578125 c 128,-1,7
 -118.9296875 -166.42578125 -118.9296875 -166.42578125 -126.255859375 -159.099609375 c 2,8,-1
 -267.677734375 -17.677734375 l 1,9,-1
 -267.6328125 -17.6328125 l 1,10,11
 -274.96333784 -10.3401955001 -274.96333784 -10.3401955001 -275 0 c 0,12,13
 -275 10 -275 10 -267.5 17.5 c 128,-1,14
 -260 25 -260 25 -250 25 c 0,0,1
EndSplineSet
EndChar

StartChar: underscore
Encoding: 95 95 35
Width: 500
Flags: W
LayerCount: 2
Fore
SplineSet
250 25 m 128,-1,1
 260 25 260 25 267.5 17.5 c 128,-1,2
 275 10 275 10 275 0 c 128,-1,3
 275 -10 275 -10 267.5 -17.5 c 128,-1,4
 260 -25 260 -25 250 -25 c 128,-1,5
 240 -25 240 -25 232.5 -17.5 c 128,-1,6
 225 -10 225 -10 225 0 c 128,-1,7
 225 10 225 10 232.5 17.5 c 128,-1,0
 240 25 240 25 250 25 c 128,-1,1
EndSplineSet
EndChar

StartChar: K
Encoding: 75 75 36
Width: 500
Flags: W
AnchorPoint: "vowel" 250 200 basechar 0
LayerCount: 2
Fore
SplineSet
250 425 m 0,0,1
 343 425 343 425 409 359 c 128,-1,2
 475 293 475 293 475 200 c 128,-1,3
 475 107 475 107 409 41 c 128,-1,4
 343 -25 343 -25 250 -25 c 128,-1,5
 157 -25 157 -25 91 41 c 128,-1,6
 25 107 25 107 25 200 c 0,7,8
 25 210 25 210 32.5 217.5 c 128,-1,9
 40 225 40 225 50 225 c 128,-1,10
 60 225 60 225 67.5 217.5 c 128,-1,11
 75 210 75 210 75 200 c 0,12,13
 75 128 75 128 126.5 76.5 c 128,-1,14
 178 25 178 25 250 25 c 128,-1,15
 322 25 322 25 373.5 76.5 c 128,-1,16
 425 128 425 128 425 200 c 128,-1,17
 425 272 425 272 373.5 323.5 c 128,-1,18
 322 375 322 375 250 375 c 0,19,20
 240 375 240 375 232.5 382.5 c 128,-1,21
 225 390 225 390 225 400 c 128,-1,22
 225 410 225 410 232.5 417.5 c 128,-1,23
 240 425 240 425 250 425 c 0,0,1
EndSplineSet
EndChar

StartChar: x
Encoding: 120 120 37
Width: 500
Flags: W
AnchorPoint: "vowel" 250 200 basechar 0
LayerCount: 2
Fore
SplineSet
250 425 m 128,-1,1
 343 425 343 425 409 359 c 128,-1,2
 475 293 475 293 475 200 c 128,-1,3
 475 107 475 107 409 41 c 128,-1,4
 343 -25 343 -25 250 -25 c 0,5,6
 240 -25 240 -25 232.5 -17.5 c 128,-1,7
 225 -10 225 -10 225 0 c 128,-1,8
 225 10 225 10 232.5 17.5 c 128,-1,9
 240 25 240 25 250 25 c 0,10,11
 322 25 322 25 373.5 76.5 c 128,-1,12
 425 128 425 128 425 200 c 128,-1,13
 425 272 425 272 373.5 323.5 c 128,-1,14
 322 375 322 375 250 375 c 128,-1,15
 178 375 178 375 126.5 323.5 c 128,-1,16
 75 272 75 272 75 200 c 0,17,18
 75 190 75 190 67.5 182.5 c 128,-1,19
 60 175 60 175 50 175 c 128,-1,20
 40 175 40 175 32.5 182.5 c 128,-1,21
 25 190 25 190 25 200 c 0,22,23
 25 293 25 293 91 359 c 128,-1,0
 157 425 157 425 250 425 c 128,-1,1
126.255859375 359.098632812 m 2,24,-1
 409.098632812 76.255859375 l 1,25,26
 416.424804688 68.9312684607 416.424804688 68.9312684607 416.424804688 58.5751953125 c 128,-1,27
 416.424804688 48.2259581018 416.424804688 48.2259581018 409.098632812 40.9013671875 c 128,-1,28
 401.774041898 33.5751953125 401.774041898 33.5751953125 391.41796875 33.5751953125 c 128,-1,29
 381.068731539 33.5751953125 381.068731539 33.5751953125 373.744140625 40.9013671875 c 2,30,-1
 90.9013671875 323.744140625 l 1,31,32
 83.5751953125 331.068731539 83.5751953125 331.068731539 83.5751953125 341.424804688 c 128,-1,33
 83.5751953125 351.774041898 83.5751953125 351.774041898 90.9013671875 359.098632812 c 128,-1,34
 98.2259581018 366.424804688 98.2259581018 366.424804688 108.58203125 366.424804688 c 128,-1,35
 118.931268461 366.424804688 118.931268461 366.424804688 126.255859375 359.098632812 c 2,24,-1
EndSplineSet
EndChar

StartChar: P
Encoding: 80 80 38
Width: 500
Flags: W
AnchorPoint: "vowel" 250 200 basechar 0
LayerCount: 2
Fore
SplineSet
250 425 m 128,-1,1
 343.197638556 425 343.197638556 425 409.099609375 359.099609375 c 0,2,3
 416.421875 351.77734375 416.421875 351.77734375 416.421875 341.421875 c 128,-1,4
 416.421875 331.073486328 416.421875 331.073486328 409.096069336 323.747680664 c 128,-1,5
 401.770263672 316.421875 401.770263672 316.421875 391.421875 316.421875 c 128,-1,6
 381.06640625 316.421875 381.06640625 316.421875 373.744140625 323.744140625 c 0,7,8
 322.48828125 375 322.48828125 375 250 375 c 0,9,10
 178 375 178 375 126.5 323.5 c 128,-1,11
 75 272 75 272 75 200 c 128,-1,12
 75 128 75 128 126.5 76.5 c 128,-1,13
 178 25 178 25 250 25 c 0,14,15
 322.48828125 25 322.48828125 25 373.744140625 76.255859375 c 0,16,17
 381.06640625 83.578125 381.06640625 83.578125 391.421875 83.578125 c 128,-1,18
 401.770263672 83.578125 401.770263672 83.578125 409.096069336 76.2523193359 c 128,-1,19
 416.421875 68.9265136719 416.421875 68.9265136719 416.421875 58.578125 c 128,-1,20
 416.421875 48.22265625 416.421875 48.22265625 409.099609375 40.900390625 c 0,21,22
 343.197638556 -25 343.197638556 -25 250 -25 c 128,-1,23
 157 -25 157 -25 91 41 c 128,-1,24
 25 107 25 107 25 200 c 128,-1,25
 25 293 25 293 91 359 c 128,-1,0
 157 425 157 425 250 425 c 128,-1,1
EndSplineSet
EndChar

StartChar: D
Encoding: 68 68 39
Width: 500
Flags: W
AnchorPoint: "vowel" 250 200 basechar 0
LayerCount: 2
Fore
SplineSet
108.578125 366.421875 m 128,-1,1
 118.926513672 366.421875 118.926513672 366.421875 126.252319336 359.096069336 c 128,-1,2
 133.578125 351.770263672 133.578125 351.770263672 133.578125 341.421875 c 128,-1,3
 133.578125 331.06640625 133.578125 331.06640625 126.255859375 323.744140625 c 0,4,5
 75 272.48828125 75 272.48828125 75 200 c 0,6,7
 75 128 75 128 126.5 76.5 c 128,-1,8
 178 25 178 25 250 25 c 128,-1,9
 322 25 322 25 373.5 76.5 c 128,-1,10
 425 128 425 128 425 200 c 0,11,12
 425 272.48828125 425 272.48828125 373.744140625 323.744140625 c 0,13,14
 366.421875 331.06640625 366.421875 331.06640625 366.421875 341.421875 c 128,-1,15
 366.421875 351.770263672 366.421875 351.770263672 373.747680664 359.096069336 c 128,-1,16
 381.073486328 366.421875 381.073486328 366.421875 391.421875 366.421875 c 128,-1,17
 401.77734375 366.421875 401.77734375 366.421875 409.099609375 359.099609375 c 0,18,19
 475 293.197638556 475 293.197638556 475 200 c 128,-1,20
 475 107 475 107 409 41 c 128,-1,21
 343 -25 343 -25 250 -25 c 128,-1,22
 157 -25 157 -25 91 41 c 128,-1,23
 25 107 25 107 25 200 c 128,-1,24
 25 293.197638556 25 293.197638556 90.900390625 359.099609375 c 0,25,0
 98.22265625 366.421875 98.22265625 366.421875 108.578125 366.421875 c 128,-1,1
126.255859375 359.098632812 m 2,26,-1
 409.098632812 76.255859375 l 1,27,28
 416.424804688 68.9312684607 416.424804688 68.9312684607 416.424804688 58.5751953125 c 128,-1,29
 416.424804688 48.2259581018 416.424804688 48.2259581018 409.098632812 40.9013671875 c 128,-1,30
 401.774041898 33.5751953125 401.774041898 33.5751953125 391.41796875 33.5751953125 c 128,-1,31
 381.068731539 33.5751953125 381.068731539 33.5751953125 373.744140625 40.9013671875 c 2,32,-1
 90.9013671875 323.744140625 l 1,33,34
 83.5751953125 331.068731539 83.5751953125 331.068731539 83.5751953125 341.424804688 c 128,-1,35
 83.5751953125 351.774041898 83.5751953125 351.774041898 90.9013671875 359.098632812 c 128,-1,36
 98.2259581018 366.424804688 98.2259581018 366.424804688 108.58203125 366.424804688 c 128,-1,37
 118.931268461 366.424804688 118.931268461 366.424804688 126.255859375 359.098632812 c 2,26,-1
EndSplineSet
EndChar

StartChar: E
Encoding: 69 69 40
Width: 0
GlyphClass: 4
Flags: W
AnchorPoint: "vowel" -250 200 mark 0
LayerCount: 2
Fore
SplineSet
-393.205078125 566.357421875 m 0,0,1
 -392.269375888 566.424804688 -392.269375888 566.424804688 -391.41796875 566.424804688 c 0,2,3
 -381.070917029 566.424804688 -381.070917029 566.424804688 -373.744140625 559.099609375 c 2,4,-1
 -232.322265625 417.677734375 l 1,5,6
 -225 410.35546875 -225 410.35546875 -225 400 c 0,7,8
 -225 390 -225 390 -232.5 382.5 c 128,-1,9
 -240 375 -240 375 -250 375 c 0,10,11
 -260.3401955 375.03666216 -260.3401955 375.03666216 -267.6328125 382.3671875 c 1,12,-1
 -267.677734375 382.322265625 l 1,13,-1
 -409.099609375 523.744140625 l 1,14,15
 -416.42578125 531.0703125 -416.42578125 531.0703125 -416.42578125 541.42578125 c 128,-1,16
 -416.42578125 551.7734375 -416.42578125 551.7734375 -409.099609375 559.099609375 c 0,17,18
 -402.506159856 565.693058894 -402.506159856 565.693058894 -393.205078125 566.357421875 c 0,0,1
EndSplineSet
EndChar

StartChar: Q
Encoding: 81 81 41
Width: 500
Flags: W
AnchorPoint: "vowel" 250 200 basechar 0
LayerCount: 2
Fore
SplineSet
250 425 m 128,-1,1
 343 425 343 425 409 359 c 128,-1,2
 475 293 475 293 475 200 c 128,-1,3
 475 107 475 107 409 41 c 128,-1,4
 343 -25 343 -25 250 -25 c 128,-1,5
 156.802361444 -25 156.802361444 -25 90.900390625 40.900390625 c 0,6,7
 83.578125 48.22265625 83.578125 48.22265625 83.578125 58.578125 c 128,-1,8
 83.578125 68.9265136719 83.578125 68.9265136719 90.9039306641 76.2523193359 c 128,-1,9
 98.2297363281 83.578125 98.2297363281 83.578125 108.578125 83.578125 c 128,-1,10
 118.93359375 83.578125 118.93359375 83.578125 126.255859375 76.255859375 c 0,11,12
 177.51171875 25 177.51171875 25 250 25 c 0,13,14
 322 25 322 25 373.5 76.5 c 128,-1,15
 425 128 425 128 425 200 c 128,-1,16
 425 272 425 272 373.5 323.5 c 128,-1,17
 322 375 322 375 250 375 c 0,18,19
 177.51171875 375 177.51171875 375 126.255859375 323.744140625 c 0,20,21
 118.93359375 316.421875 118.93359375 316.421875 108.578125 316.421875 c 128,-1,22
 98.2297363281 316.421875 98.2297363281 316.421875 90.9039306641 323.747680664 c 128,-1,23
 83.578125 331.073486328 83.578125 331.073486328 83.578125 341.421875 c 128,-1,24
 83.578125 351.77734375 83.578125 351.77734375 90.900390625 359.099609375 c 0,25,0
 156.802361444 425 156.802361444 425 250 425 c 128,-1,1
EndSplineSet
EndChar

StartChar: y
Encoding: 121 121 42
Width: 500
Flags: W
AnchorPoint: "vowel" 250 200 basechar 0
LayerCount: 2
Fore
SplineSet
250 425 m 128,-1,1
 343 425 343 425 409 359 c 128,-1,2
 475 293 475 293 475 200 c 128,-1,3
 475 107 475 107 409 41 c 128,-1,4
 343 -25 343 -25 250 -25 c 128,-1,5
 156.802361444 -25 156.802361444 -25 90.900390625 40.900390625 c 0,6,7
 83.578125 48.22265625 83.578125 48.22265625 83.578125 58.578125 c 128,-1,8
 83.578125 68.9265136719 83.578125 68.9265136719 90.9039306641 76.2523193359 c 128,-1,9
 98.2297363281 83.578125 98.2297363281 83.578125 108.578125 83.578125 c 128,-1,10
 118.93359375 83.578125 118.93359375 83.578125 126.255859375 76.255859375 c 0,11,12
 177.51171875 25 177.51171875 25 250 25 c 0,13,14
 322 25 322 25 373.5 76.5 c 128,-1,15
 425 128 425 128 425 200 c 128,-1,16
 425 272 425 272 373.5 323.5 c 128,-1,17
 322 375 322 375 250 375 c 0,18,19
 177.51171875 375 177.51171875 375 126.255859375 323.744140625 c 0,20,21
 118.93359375 316.421875 118.93359375 316.421875 108.578125 316.421875 c 128,-1,22
 98.2297363281 316.421875 98.2297363281 316.421875 90.9039306641 323.747680664 c 128,-1,23
 83.578125 331.073486328 83.578125 331.073486328 83.578125 341.421875 c 128,-1,24
 83.578125 351.77734375 83.578125 351.77734375 90.900390625 359.099609375 c 0,25,0
 156.802361444 425 156.802361444 425 250 425 c 128,-1,1
126.255859375 359.098632812 m 2,26,-1
 409.098632812 76.255859375 l 1,27,28
 416.424804688 68.9312684607 416.424804688 68.9312684607 416.424804688 58.5751953125 c 128,-1,29
 416.424804688 48.2259581018 416.424804688 48.2259581018 409.098632812 40.9013671875 c 128,-1,30
 401.774041898 33.5751953125 401.774041898 33.5751953125 391.41796875 33.5751953125 c 128,-1,31
 381.068731539 33.5751953125 381.068731539 33.5751953125 373.744140625 40.9013671875 c 2,32,-1
 90.9013671875 323.744140625 l 1,33,34
 83.5751953125 331.068731539 83.5751953125 331.068731539 83.5751953125 341.424804688 c 128,-1,35
 83.5751953125 351.774041898 83.5751953125 351.774041898 90.9013671875 359.098632812 c 128,-1,36
 98.2259581018 366.424804688 98.2259581018 366.424804688 108.58203125 366.424804688 c 128,-1,37
 118.931268461 366.424804688 118.931268461 366.424804688 126.255859375 359.098632812 c 2,26,-1
250 325 m 128,-1,39
 302 325 302 325 338.5 288.5 c 128,-1,40
 375 252 375 252 375 200 c 128,-1,41
 375 148 375 148 338.5 111.5 c 128,-1,42
 302 75 302 75 250 75 c 128,-1,43
 198 75 198 75 161.5 111.5 c 128,-1,44
 125 148 125 148 125 200 c 128,-1,45
 125 252 125 252 161.5 288.5 c 128,-1,38
 198 325 198 325 250 325 c 128,-1,39
250 275 m 128,-1,47
 219 275 219 275 197 253 c 128,-1,48
 175 231 175 231 175 200 c 128,-1,49
 175 169 175 169 197 147 c 128,-1,50
 219 125 219 125 250 125 c 128,-1,51
 281 125 281 125 303 147 c 128,-1,52
 325 169 325 169 325 200 c 128,-1,53
 325 231 325 231 303 253 c 128,-1,46
 281 275 281 275 250 275 c 128,-1,47
EndSplineSet
EndChar

StartChar: L
Encoding: 76 76 43
Width: 500
Flags: W
AnchorPoint: "vowel" 250 200 basechar 0
LayerCount: 2
Fore
SplineSet
250 425 m 128,-1,1
 343 425 343 425 409 359 c 128,-1,2
 475 293 475 293 475 200 c 128,-1,3
 475 107 475 107 409 41 c 128,-1,4
 343 -25 343 -25 250 -25 c 128,-1,5
 157 -25 157 -25 91 41 c 128,-1,6
 25 107 25 107 25 200 c 128,-1,7
 25 293 25 293 91 359 c 128,-1,0
 157 425 157 425 250 425 c 128,-1,1
250 375 m 128,-1,9
 178 375 178 375 126.5 323.5 c 128,-1,10
 75 272 75 272 75 200 c 128,-1,11
 75 128 75 128 126.5 76.5 c 128,-1,12
 178 25 178 25 250 25 c 128,-1,13
 322 25 322 25 373.5 76.5 c 128,-1,14
 425 128 425 128 425 200 c 128,-1,15
 425 272 425 272 373.5 323.5 c 128,-1,8
 322 375 322 375 250 375 c 128,-1,9
126.255859375 359.098632812 m 2,16,-1
 409.098632812 76.255859375 l 1,17,18
 416.424804688 68.9312684607 416.424804688 68.9312684607 416.424804688 58.5751953125 c 128,-1,19
 416.424804688 48.2259581018 416.424804688 48.2259581018 409.098632812 40.9013671875 c 128,-1,20
 401.774041898 33.5751953125 401.774041898 33.5751953125 391.41796875 33.5751953125 c 128,-1,21
 381.068731539 33.5751953125 381.068731539 33.5751953125 373.744140625 40.9013671875 c 2,22,-1
 90.9013671875 323.744140625 l 1,23,24
 83.5751953125 331.068731539 83.5751953125 331.068731539 83.5751953125 341.424804688 c 128,-1,25
 83.5751953125 351.774041898 83.5751953125 351.774041898 90.9013671875 359.098632812 c 128,-1,26
 98.2259581018 366.424804688 98.2259581018 366.424804688 108.58203125 366.424804688 c 128,-1,27
 118.931268461 366.424804688 118.931268461 366.424804688 126.255859375 359.098632812 c 2,16,-1
EndSplineSet
EndChar

StartChar: J
Encoding: 74 74 44
Width: 500
Flags: W
AnchorPoint: "vowel" 250 200 basechar 0
LayerCount: 2
Fore
SplineSet
250 425 m 0,0,1
 260 425 260 425 267.5 417.5 c 128,-1,2
 275 410 275 410 275 400 c 128,-1,3
 275 390 275 390 267.5 382.5 c 128,-1,4
 260 375 260 375 250 375 c 0,5,6
 178 375 178 375 126.5 323.5 c 128,-1,7
 75 272 75 272 75 200 c 128,-1,8
 75 128 75 128 126.5 76.5 c 128,-1,9
 178 25 178 25 250 25 c 128,-1,10
 322 25 322 25 373.5 76.5 c 128,-1,11
 425 128 425 128 425 200 c 0,12,13
 425 210 425 210 432.5 217.5 c 128,-1,14
 440 225 440 225 450 225 c 128,-1,15
 460 225 460 225 467.5 217.5 c 128,-1,16
 475 210 475 210 475 200 c 0,17,18
 475 107 475 107 409 41 c 128,-1,19
 343 -25 343 -25 250 -25 c 128,-1,20
 157 -25 157 -25 91 41 c 128,-1,21
 25 107 25 107 25 200 c 128,-1,22
 25 293 25 293 91 359 c 128,-1,23
 157 425 157 425 250 425 c 0,0,1
126.255859375 359.098632812 m 2,24,-1
 409.098632812 76.255859375 l 1,25,26
 416.424804688 68.9312684607 416.424804688 68.9312684607 416.424804688 58.5751953125 c 128,-1,27
 416.424804688 48.2259581018 416.424804688 48.2259581018 409.098632812 40.9013671875 c 128,-1,28
 401.774041898 33.5751953125 401.774041898 33.5751953125 391.41796875 33.5751953125 c 128,-1,29
 381.068731539 33.5751953125 381.068731539 33.5751953125 373.744140625 40.9013671875 c 2,30,-1
 90.9013671875 323.744140625 l 1,31,32
 83.5751953125 331.068731539 83.5751953125 331.068731539 83.5751953125 341.424804688 c 128,-1,33
 83.5751953125 351.774041898 83.5751953125 351.774041898 90.9013671875 359.098632812 c 128,-1,34
 98.2259581018 366.424804688 98.2259581018 366.424804688 108.58203125 366.424804688 c 128,-1,35
 118.931268461 366.424804688 118.931268461 366.424804688 126.255859375 359.098632812 c 2,24,-1
250 325 m 128,-1,37
 302 325 302 325 338.5 288.5 c 128,-1,38
 375 252 375 252 375 200 c 128,-1,39
 375 148 375 148 338.5 111.5 c 128,-1,40
 302 75 302 75 250 75 c 128,-1,41
 198 75 198 75 161.5 111.5 c 128,-1,42
 125 148 125 148 125 200 c 128,-1,43
 125 252 125 252 161.5 288.5 c 128,-1,36
 198 325 198 325 250 325 c 128,-1,37
250 275 m 128,-1,45
 219 275 219 275 197 253 c 128,-1,46
 175 231 175 231 175 200 c 128,-1,47
 175 169 175 169 197 147 c 128,-1,48
 219 125 219 125 250 125 c 128,-1,49
 281 125 281 125 303 147 c 128,-1,50
 325 169 325 169 325 200 c 128,-1,51
 325 231 325 231 303 253 c 128,-1,44
 281 275 281 275 250 275 c 128,-1,45
EndSplineSet
EndChar

StartChar: asciicircum
Encoding: 94 94 45
Width: 500
Flags: W
LayerCount: 2
Fore
SplineSet
250 425 m 128,-1,1
 260 425 260 425 267.5 417.5 c 128,-1,2
 275 410 275 410 275 400 c 128,-1,3
 275 390 275 390 267.5 382.5 c 128,-1,4
 260 375 260 375 250 375 c 128,-1,5
 240 375 240 375 232.5 382.5 c 128,-1,6
 225 390 225 390 225 400 c 128,-1,7
 225 410 225 410 232.5 417.5 c 128,-1,0
 240 425 240 425 250 425 c 128,-1,1
EndSplineSet
EndChar

StartChar: G
Encoding: 71 71 46
Width: 500
Flags: W
AnchorPoint: "vowel" 250 200 basechar 0
LayerCount: 2
Fore
SplineSet
250 425 m 0,0,1
 343 425 343 425 409 359 c 128,-1,2
 475 293 475 293 475 200 c 128,-1,3
 475 107 475 107 409 41 c 128,-1,4
 343 -25 343 -25 250 -25 c 128,-1,5
 157 -25 157 -25 91 41 c 128,-1,6
 25 107 25 107 25 200 c 0,7,8
 25 210 25 210 32.5 217.5 c 128,-1,9
 40 225 40 225 50 225 c 128,-1,10
 60 225 60 225 67.5 217.5 c 128,-1,11
 75 210 75 210 75 200 c 0,12,13
 75 128 75 128 126.5 76.5 c 128,-1,14
 178 25 178 25 250 25 c 128,-1,15
 322 25 322 25 373.5 76.5 c 128,-1,16
 425 128 425 128 425 200 c 128,-1,17
 425 272 425 272 373.5 323.5 c 128,-1,18
 322 375 322 375 250 375 c 0,19,20
 240 375 240 375 232.5 382.5 c 128,-1,21
 225 390 225 390 225 400 c 128,-1,22
 225 410 225 410 232.5 417.5 c 128,-1,23
 240 425 240 425 250 425 c 0,0,1
126.255859375 359.098632812 m 2,24,-1
 409.098632812 76.255859375 l 1,25,26
 416.424804688 68.9312684607 416.424804688 68.9312684607 416.424804688 58.5751953125 c 128,-1,27
 416.424804688 48.2259581018 416.424804688 48.2259581018 409.098632812 40.9013671875 c 128,-1,28
 401.774041898 33.5751953125 401.774041898 33.5751953125 391.41796875 33.5751953125 c 128,-1,29
 381.068731539 33.5751953125 381.068731539 33.5751953125 373.744140625 40.9013671875 c 2,30,-1
 90.9013671875 323.744140625 l 1,31,32
 83.5751953125 331.068731539 83.5751953125 331.068731539 83.5751953125 341.424804688 c 128,-1,33
 83.5751953125 351.774041898 83.5751953125 351.774041898 90.9013671875 359.098632812 c 128,-1,34
 98.2259581018 366.424804688 98.2259581018 366.424804688 108.58203125 366.424804688 c 128,-1,35
 118.931268461 366.424804688 118.931268461 366.424804688 126.255859375 359.098632812 c 2,24,-1
EndSplineSet
EndChar

StartChar: S
Encoding: 83 83 47
Width: 500
Flags: W
AnchorPoint: "vowel" 250 200 basechar 0
LayerCount: 2
Fore
SplineSet
250 425 m 0,0,1
 260 425 260 425 267.5 417.5 c 128,-1,2
 275 410 275 410 275 400 c 128,-1,3
 275 390 275 390 267.5 382.5 c 128,-1,4
 260 375 260 375 250 375 c 0,5,6
 178 375 178 375 126.5 323.5 c 128,-1,7
 75 272 75 272 75 200 c 128,-1,8
 75 128 75 128 126.5 76.5 c 128,-1,9
 178 25 178 25 250 25 c 128,-1,10
 322 25 322 25 373.5 76.5 c 128,-1,11
 425 128 425 128 425 200 c 0,12,13
 425 210 425 210 432.5 217.5 c 128,-1,14
 440 225 440 225 450 225 c 128,-1,15
 460 225 460 225 467.5 217.5 c 128,-1,16
 475 210 475 210 475 200 c 0,17,18
 475 107 475 107 409 41 c 128,-1,19
 343 -25 343 -25 250 -25 c 128,-1,20
 157 -25 157 -25 91 41 c 128,-1,21
 25 107 25 107 25 200 c 128,-1,22
 25 293 25 293 91 359 c 128,-1,23
 157 425 157 425 250 425 c 0,0,1
EndSplineSet
EndChar

StartChar: R
Encoding: 82 82 48
Width: 500
Flags: W
AnchorPoint: "vowel" 250 200 basechar 0
LayerCount: 2
Fore
SplineSet
250 425 m 128,-1,1
 343 425 343 425 409 359 c 128,-1,2
 475 293 475 293 475 200 c 128,-1,3
 475 107 475 107 409 41 c 128,-1,4
 343 -25 343 -25 250 -25 c 128,-1,5
 157 -25 157 -25 91 41 c 128,-1,6
 25 107 25 107 25 200 c 128,-1,7
 25 293 25 293 91 359 c 128,-1,0
 157 425 157 425 250 425 c 128,-1,1
250 375 m 128,-1,9
 178 375 178 375 126.5 323.5 c 128,-1,10
 75 272 75 272 75 200 c 128,-1,11
 75 128 75 128 126.5 76.5 c 128,-1,12
 178 25 178 25 250 25 c 128,-1,13
 322 25 322 25 373.5 76.5 c 128,-1,14
 425 128 425 128 425 200 c 128,-1,15
 425 272 425 272 373.5 323.5 c 128,-1,8
 322 375 322 375 250 375 c 128,-1,9
EndSplineSet
EndChar

StartChar: F
Encoding: 70 70 49
Width: 500
Flags: W
AnchorPoint: "vowel" 250 200 basechar 0
LayerCount: 2
Fore
SplineSet
250 425 m 128,-1,1
 343 425 343 425 409 359 c 128,-1,2
 475 293 475 293 475 200 c 128,-1,3
 475 106.802361444 475 106.802361444 409.099609375 40.900390625 c 0,4,5
 401.77734375 33.578125 401.77734375 33.578125 391.421875 33.578125 c 128,-1,6
 381.073486328 33.578125 381.073486328 33.578125 373.747680664 40.9039306641 c 128,-1,7
 366.421875 48.2297363281 366.421875 48.2297363281 366.421875 58.578125 c 128,-1,8
 366.421875 68.93359375 366.421875 68.93359375 373.744140625 76.255859375 c 0,9,10
 425 127.51171875 425 127.51171875 425 200 c 0,11,12
 425 272 425 272 373.5 323.5 c 128,-1,13
 322 375 322 375 250 375 c 128,-1,14
 178 375 178 375 126.5 323.5 c 128,-1,15
 75 272 75 272 75 200 c 0,16,17
 75 127.51171875 75 127.51171875 126.255859375 76.255859375 c 0,18,19
 133.578125 68.93359375 133.578125 68.93359375 133.578125 58.578125 c 128,-1,20
 133.578125 48.2297363281 133.578125 48.2297363281 126.252319336 40.9039306641 c 128,-1,21
 118.926513672 33.578125 118.926513672 33.578125 108.578125 33.578125 c 128,-1,22
 98.22265625 33.578125 98.22265625 33.578125 90.900390625 40.900390625 c 0,23,24
 25 106.802361444 25 106.802361444 25 200 c 128,-1,25
 25 293 25 293 91 359 c 128,-1,0
 157 425 157 425 250 425 c 128,-1,1
EndSplineSet
EndChar

StartChar: bracketright
Encoding: 93 93 50
Width: 500
Flags: W
LayerCount: 2
Fore
SplineSet
250 525 m 0,0,1
 301.06740658 525 301.06740658 525 337.452992959 489.25055354 c 128,-1,2
 373.838579337 453.50110708 373.838579337 453.50110708 374.87109375 402.556640625 c 0,3,4
 374.878976988 402.17123786 374.878976988 402.17123786 374.939488494 401.31718929 c 128,-1,5
 375 400.46314072 375 400.46314072 375 400 c 2,6,-1
 375 0 l 2,7,8
 375 -0.463009717988 375 -0.463009717988 374.93949115 -1.31677483742 c 128,-1,9
 374.878982299 -2.17053995686 374.878982299 -2.17053995686 374.87109375 -2.556640625 c 0,10,11
 373.838579337 -53.5011070799 373.838579337 -53.5011070799 337.452992959 -89.25055354 c 128,-1,12
 301.06740658 -125 301.06740658 -125 250 -125 c 0,13,14
 198.75689324 -124.673098557 198.75689324 -124.673098557 161.611328125 -88.388671875 c 0,15,16
 154.289306641 -81.0666503906 154.289306641 -81.0666503906 154.289306641 -70.7109375 c 128,-1,17
 154.289306641 -60.3552246094 154.289306641 -60.3552246094 161.611328125 -53.033203125 c 128,-1,18
 168.933349609 -45.7111816406 168.933349609 -45.7111816406 179.2890625 -45.7111816406 c 128,-1,19
 189.644775391 -45.7111816406 189.644775391 -45.7111816406 196.966796875 -53.033203125 c 1,20,-1
 197.16796875 -52.83203125 l 1,21,22
 219.002791354 -74.8342552133 219.002791354 -74.8342552133 250 -75 c 128,-1,23
 281 -75 281 -75 303 -53 c 128,-1,24
 325 -31 325 -31 325 0 c 2,25,-1
 325 400 l 2,26,27
 325 431 325 431 303 453 c 128,-1,28
 281 475 281 475 250 475 c 128,-1,29
 219.002791354 474.834255213 219.002791354 474.834255213 197.16796875 452.83203125 c 1,30,-1
 196.966796875 453.033203125 l 1,31,32
 189.644775391 445.711181641 189.644775391 445.711181641 179.2890625 445.711181641 c 128,-1,33
 168.933349609 445.711181641 168.933349609 445.711181641 161.611328125 453.033203125 c 128,-1,34
 154.289306641 460.355224609 154.289306641 460.355224609 154.289306641 470.7109375 c 128,-1,35
 154.289306641 481.066650391 154.289306641 481.066650391 161.611328125 488.388671875 c 0,36,37
 198.754404448 524.673182595 198.754404448 524.673182595 250 525 c 0,0,1
EndSplineSet
EndChar

StartChar: B
Encoding: 66 66 51
Width: 500
Flags: W
AnchorPoint: "vowel" 250 200 basechar 0
LayerCount: 2
Fore
SplineSet
250 425 m 128,-1,1
 343.197638556 425 343.197638556 425 409.099609375 359.099609375 c 0,2,3
 416.421875 351.77734375 416.421875 351.77734375 416.421875 341.421875 c 128,-1,4
 416.421875 331.073486328 416.421875 331.073486328 409.096069336 323.747680664 c 128,-1,5
 401.770263672 316.421875 401.770263672 316.421875 391.421875 316.421875 c 128,-1,6
 381.06640625 316.421875 381.06640625 316.421875 373.744140625 323.744140625 c 0,7,8
 322.48828125 375 322.48828125 375 250 375 c 0,9,10
 178 375 178 375 126.5 323.5 c 128,-1,11
 75 272 75 272 75 200 c 128,-1,12
 75 128 75 128 126.5 76.5 c 128,-1,13
 178 25 178 25 250 25 c 0,14,15
 322.48828125 25 322.48828125 25 373.744140625 76.255859375 c 0,16,17
 381.06640625 83.578125 381.06640625 83.578125 391.421875 83.578125 c 128,-1,18
 401.770263672 83.578125 401.770263672 83.578125 409.096069336 76.2523193359 c 128,-1,19
 416.421875 68.9265136719 416.421875 68.9265136719 416.421875 58.578125 c 128,-1,20
 416.421875 48.22265625 416.421875 48.22265625 409.099609375 40.900390625 c 0,21,22
 343.197638556 -25 343.197638556 -25 250 -25 c 128,-1,23
 157 -25 157 -25 91 41 c 128,-1,24
 25 107 25 107 25 200 c 128,-1,25
 25 293 25 293 91 359 c 128,-1,0
 157 425 157 425 250 425 c 128,-1,1
126.255859375 359.098632812 m 2,26,-1
 409.098632812 76.255859375 l 1,27,28
 416.424804688 68.9312684607 416.424804688 68.9312684607 416.424804688 58.5751953125 c 128,-1,29
 416.424804688 48.2259581018 416.424804688 48.2259581018 409.098632812 40.9013671875 c 128,-1,30
 401.774041898 33.5751953125 401.774041898 33.5751953125 391.41796875 33.5751953125 c 128,-1,31
 381.068731539 33.5751953125 381.068731539 33.5751953125 373.744140625 40.9013671875 c 2,32,-1
 90.9013671875 323.744140625 l 1,33,34
 83.5751953125 331.068731539 83.5751953125 331.068731539 83.5751953125 341.424804688 c 128,-1,35
 83.5751953125 351.774041898 83.5751953125 351.774041898 90.9013671875 359.098632812 c 128,-1,36
 98.2259581018 366.424804688 98.2259581018 366.424804688 108.58203125 366.424804688 c 128,-1,37
 118.931268461 366.424804688 118.931268461 366.424804688 126.255859375 359.098632812 c 2,26,-1
EndSplineSet
EndChar

StartChar: V
Encoding: 86 86 52
Width: 500
Flags: W
AnchorPoint: "vowel" 250 200 basechar 0
LayerCount: 2
Fore
SplineSet
250 425 m 128,-1,1
 343 425 343 425 409 359 c 128,-1,2
 475 293 475 293 475 200 c 128,-1,3
 475 106.802361444 475 106.802361444 409.099609375 40.900390625 c 0,4,5
 401.77734375 33.578125 401.77734375 33.578125 391.421875 33.578125 c 128,-1,6
 381.073486328 33.578125 381.073486328 33.578125 373.747680664 40.9039306641 c 128,-1,7
 366.421875 48.2297363281 366.421875 48.2297363281 366.421875 58.578125 c 128,-1,8
 366.421875 68.93359375 366.421875 68.93359375 373.744140625 76.255859375 c 0,9,10
 425 127.51171875 425 127.51171875 425 200 c 0,11,12
 425 272 425 272 373.5 323.5 c 128,-1,13
 322 375 322 375 250 375 c 128,-1,14
 178 375 178 375 126.5 323.5 c 128,-1,15
 75 272 75 272 75 200 c 0,16,17
 75 127.51171875 75 127.51171875 126.255859375 76.255859375 c 0,18,19
 133.578125 68.93359375 133.578125 68.93359375 133.578125 58.578125 c 128,-1,20
 133.578125 48.2297363281 133.578125 48.2297363281 126.252319336 40.9039306641 c 128,-1,21
 118.926513672 33.578125 118.926513672 33.578125 108.578125 33.578125 c 128,-1,22
 98.22265625 33.578125 98.22265625 33.578125 90.900390625 40.900390625 c 0,23,24
 25 106.802361444 25 106.802361444 25 200 c 128,-1,25
 25 293 25 293 91 359 c 128,-1,0
 157 425 157 425 250 425 c 128,-1,1
126.255859375 359.098632812 m 2,26,-1
 409.098632812 76.255859375 l 1,27,28
 416.424804688 68.9312684607 416.424804688 68.9312684607 416.424804688 58.5751953125 c 128,-1,29
 416.424804688 48.2259581018 416.424804688 48.2259581018 409.098632812 40.9013671875 c 128,-1,30
 401.774041898 33.5751953125 401.774041898 33.5751953125 391.41796875 33.5751953125 c 128,-1,31
 381.068731539 33.5751953125 381.068731539 33.5751953125 373.744140625 40.9013671875 c 2,32,-1
 90.9013671875 323.744140625 l 1,33,34
 83.5751953125 331.068731539 83.5751953125 331.068731539 83.5751953125 341.424804688 c 128,-1,35
 83.5751953125 351.774041898 83.5751953125 351.774041898 90.9013671875 359.098632812 c 128,-1,36
 98.2259581018 366.424804688 98.2259581018 366.424804688 108.58203125 366.424804688 c 128,-1,37
 118.931268461 366.424804688 118.931268461 366.424804688 126.255859375 359.098632812 c 2,26,-1
EndSplineSet
EndChar

StartChar: M
Encoding: 77 77 53
Width: 500
Flags: W
AnchorPoint: "vowel" 250 200 basechar 0
LayerCount: 2
Fore
SplineSet
250 425 m 128,-1,1
 343 425 343 425 409 359 c 128,-1,2
 475 293 475 293 475 200 c 0,3,4
 475 190 475 190 467.5 182.5 c 128,-1,5
 460 175 460 175 450 175 c 128,-1,6
 440 175 440 175 432.5 182.5 c 128,-1,7
 425 190 425 190 425 200 c 0,8,9
 425 272 425 272 373.5 323.5 c 128,-1,10
 322 375 322 375 250 375 c 128,-1,11
 178 375 178 375 126.5 323.5 c 128,-1,12
 75 272 75 272 75 200 c 128,-1,13
 75 128 75 128 126.5 76.5 c 128,-1,14
 178 25 178 25 250 25 c 0,15,16
 260 25 260 25 267.5 17.5 c 128,-1,17
 275 10 275 10 275 0 c 128,-1,18
 275 -10 275 -10 267.5 -17.5 c 128,-1,19
 260 -25 260 -25 250 -25 c 0,20,21
 157 -25 157 -25 91 41 c 128,-1,22
 25 107 25 107 25 200 c 128,-1,23
 25 293 25 293 91 359 c 128,-1,0
 157 425 157 425 250 425 c 128,-1,1
EndSplineSet
EndChar

StartChar: Z
Encoding: 90 90 54
Width: 500
Flags: W
AnchorPoint: "vowel" 250 200 basechar 0
LayerCount: 2
Fore
SplineSet
250 425 m 0,0,1
 260 425 260 425 267.5 417.5 c 128,-1,2
 275 410 275 410 275 400 c 128,-1,3
 275 390 275 390 267.5 382.5 c 128,-1,4
 260 375 260 375 250 375 c 0,5,6
 178 375 178 375 126.5 323.5 c 128,-1,7
 75 272 75 272 75 200 c 128,-1,8
 75 128 75 128 126.5 76.5 c 128,-1,9
 178 25 178 25 250 25 c 128,-1,10
 322 25 322 25 373.5 76.5 c 128,-1,11
 425 128 425 128 425 200 c 0,12,13
 425 210 425 210 432.5 217.5 c 128,-1,14
 440 225 440 225 450 225 c 128,-1,15
 460 225 460 225 467.5 217.5 c 128,-1,16
 475 210 475 210 475 200 c 0,17,18
 475 107 475 107 409 41 c 128,-1,19
 343 -25 343 -25 250 -25 c 128,-1,20
 157 -25 157 -25 91 41 c 128,-1,21
 25 107 25 107 25 200 c 128,-1,22
 25 293 25 293 91 359 c 128,-1,23
 157 425 157 425 250 425 c 0,0,1
126.255859375 359.098632812 m 2,24,-1
 409.098632812 76.255859375 l 1,25,26
 416.424804688 68.9312684607 416.424804688 68.9312684607 416.424804688 58.5751953125 c 128,-1,27
 416.424804688 48.2259581018 416.424804688 48.2259581018 409.098632812 40.9013671875 c 128,-1,28
 401.774041898 33.5751953125 401.774041898 33.5751953125 391.41796875 33.5751953125 c 128,-1,29
 381.068731539 33.5751953125 381.068731539 33.5751953125 373.744140625 40.9013671875 c 2,30,-1
 90.9013671875 323.744140625 l 1,31,32
 83.5751953125 331.068731539 83.5751953125 331.068731539 83.5751953125 341.424804688 c 128,-1,33
 83.5751953125 351.774041898 83.5751953125 351.774041898 90.9013671875 359.098632812 c 128,-1,34
 98.2259581018 366.424804688 98.2259581018 366.424804688 108.58203125 366.424804688 c 128,-1,35
 118.931268461 366.424804688 118.931268461 366.424804688 126.255859375 359.098632812 c 2,24,-1
EndSplineSet
EndChar

StartChar: N
Encoding: 78 78 55
Width: 500
Flags: W
AnchorPoint: "vowel" 250 200 basechar 0
LayerCount: 2
Fore
SplineSet
250 425 m 128,-1,1
 343 425 343 425 409 359 c 128,-1,2
 475 293 475 293 475 200 c 0,3,4
 475 190 475 190 467.5 182.5 c 128,-1,5
 460 175 460 175 450 175 c 128,-1,6
 440 175 440 175 432.5 182.5 c 128,-1,7
 425 190 425 190 425 200 c 0,8,9
 425 272 425 272 373.5 323.5 c 128,-1,10
 322 375 322 375 250 375 c 128,-1,11
 178 375 178 375 126.5 323.5 c 128,-1,12
 75 272 75 272 75 200 c 128,-1,13
 75 128 75 128 126.5 76.5 c 128,-1,14
 178 25 178 25 250 25 c 0,15,16
 260 25 260 25 267.5 17.5 c 128,-1,17
 275 10 275 10 275 0 c 128,-1,18
 275 -10 275 -10 267.5 -17.5 c 128,-1,19
 260 -25 260 -25 250 -25 c 0,20,21
 157 -25 157 -25 91 41 c 128,-1,22
 25 107 25 107 25 200 c 128,-1,23
 25 293 25 293 91 359 c 128,-1,0
 157 425 157 425 250 425 c 128,-1,1
126.255859375 359.098632812 m 2,24,-1
 409.098632812 76.255859375 l 1,25,26
 416.424804688 68.9312684607 416.424804688 68.9312684607 416.424804688 58.5751953125 c 128,-1,27
 416.424804688 48.2259581018 416.424804688 48.2259581018 409.098632812 40.9013671875 c 128,-1,28
 401.774041898 33.5751953125 401.774041898 33.5751953125 391.41796875 33.5751953125 c 128,-1,29
 381.068731539 33.5751953125 381.068731539 33.5751953125 373.744140625 40.9013671875 c 2,30,-1
 90.9013671875 323.744140625 l 1,31,32
 83.5751953125 331.068731539 83.5751953125 331.068731539 83.5751953125 341.424804688 c 128,-1,33
 83.5751953125 351.774041898 83.5751953125 351.774041898 90.9013671875 359.098632812 c 128,-1,34
 98.2259581018 366.424804688 98.2259581018 366.424804688 108.58203125 366.424804688 c 128,-1,35
 118.931268461 366.424804688 118.931268461 366.424804688 126.255859375 359.098632812 c 2,24,-1
EndSplineSet
EndChar

StartChar: W
Encoding: 87 87 56
Width: 0
GlyphClass: 4
Flags: W
AnchorPoint: "vowel" -250 200 mark 0
LayerCount: 2
Fore
SplineSet
-450 25 m 128,-1,1
 -440 25 -440 25 -432.5 17.5 c 128,-1,2
 -425 10 -425 10 -425 0 c 0,3,4
 -425 -72 -425 -72 -373.5 -123.5 c 128,-1,5
 -322 -175 -322 -175 -250 -175 c 128,-1,6
 -178 -175 -178 -175 -126.5 -123.5 c 128,-1,7
 -75 -72 -75 -72 -75 0 c 0,8,9
 -75 10 -75 10 -67.5 17.5 c 128,-1,10
 -60 25 -60 25 -50 25 c 128,-1,11
 -40 25 -40 25 -32.5 17.5 c 128,-1,12
 -25 10 -25 10 -25 0 c 0,13,14
 -25 -93 -25 -93 -91 -159 c 128,-1,15
 -157 -225 -157 -225 -250 -225 c 128,-1,16
 -343 -225 -343 -225 -409 -159 c 128,-1,17
 -475 -93 -475 -93 -475 0 c 0,18,19
 -475 10 -475 10 -467.5 17.5 c 128,-1,0
 -460 25 -460 25 -450 25 c 128,-1,1
EndSplineSet
EndChar

StartChar: C
Encoding: 67 67 57
Width: 500
Flags: W
AnchorPoint: "vowel" 250 200 basechar 0
LayerCount: 2
Fore
SplineSet
250 425 m 128,-1,1
 343 425 343 425 409 359 c 128,-1,2
 475 293 475 293 475 200 c 128,-1,3
 475 107 475 107 409 41 c 128,-1,4
 343 -25 343 -25 250 -25 c 128,-1,5
 156.802361444 -25 156.802361444 -25 90.900390625 40.900390625 c 0,6,7
 83.578125 48.22265625 83.578125 48.22265625 83.578125 58.578125 c 128,-1,8
 83.578125 68.9265136719 83.578125 68.9265136719 90.9039306641 76.2523193359 c 128,-1,9
 98.2297363281 83.578125 98.2297363281 83.578125 108.578125 83.578125 c 128,-1,10
 118.93359375 83.578125 118.93359375 83.578125 126.255859375 76.255859375 c 0,11,12
 177.51171875 25 177.51171875 25 250 25 c 0,13,14
 322 25 322 25 373.5 76.5 c 128,-1,15
 425 128 425 128 425 200 c 128,-1,16
 425 272 425 272 373.5 323.5 c 128,-1,17
 322 375 322 375 250 375 c 0,18,19
 177.51171875 375 177.51171875 375 126.255859375 323.744140625 c 0,20,21
 118.93359375 316.421875 118.93359375 316.421875 108.578125 316.421875 c 128,-1,22
 98.2297363281 316.421875 98.2297363281 316.421875 90.9039306641 323.747680664 c 128,-1,23
 83.578125 331.073486328 83.578125 331.073486328 83.578125 341.421875 c 128,-1,24
 83.578125 351.77734375 83.578125 351.77734375 90.900390625 359.099609375 c 0,25,0
 156.802361444 425 156.802361444 425 250 425 c 128,-1,1
126.255859375 359.098632812 m 2,26,-1
 409.098632812 76.255859375 l 1,27,28
 416.424804688 68.9312684607 416.424804688 68.9312684607 416.424804688 58.5751953125 c 128,-1,29
 416.424804688 48.2259581018 416.424804688 48.2259581018 409.098632812 40.9013671875 c 128,-1,30
 401.774041898 33.5751953125 401.774041898 33.5751953125 391.41796875 33.5751953125 c 128,-1,31
 381.068731539 33.5751953125 381.068731539 33.5751953125 373.744140625 40.9013671875 c 2,32,-1
 90.9013671875 323.744140625 l 1,33,34
 83.5751953125 331.068731539 83.5751953125 331.068731539 83.5751953125 341.424804688 c 128,-1,35
 83.5751953125 351.774041898 83.5751953125 351.774041898 90.9013671875 359.098632812 c 128,-1,36
 98.2259581018 366.424804688 98.2259581018 366.424804688 108.58203125 366.424804688 c 128,-1,37
 118.931268461 366.424804688 118.931268461 366.424804688 126.255859375 359.098632812 c 2,26,-1
EndSplineSet
EndChar

StartChar: U
Encoding: 85 85 58
Width: 0
GlyphClass: 4
Flags: W
AnchorPoint: "vowel" -250 200 mark 0
LayerCount: 2
Fore
SplineSet
-250 25 m 0,0,1
 -239.64453125 25 -239.64453125 25 -232.322265625 17.677734375 c 2,2,-1
 -90.900390625 -123.744140625 l 1,3,4
 -83.57421875 -131.0703125 -83.57421875 -131.0703125 -83.57421875 -141.42578125 c 128,-1,5
 -83.57421875 -151.7734375 -83.57421875 -151.7734375 -90.900390625 -159.099609375 c 128,-1,6
 -98.2265625 -166.42578125 -98.2265625 -166.42578125 -108.58203125 -166.42578125 c 128,-1,7
 -118.9296875 -166.42578125 -118.9296875 -166.42578125 -126.255859375 -159.099609375 c 2,8,-1
 -267.677734375 -17.677734375 l 1,9,-1
 -267.6328125 -17.6328125 l 1,10,11
 -274.96333784 -10.3401955001 -274.96333784 -10.3401955001 -275 0 c 0,12,13
 -275 10 -275 10 -267.5 17.5 c 128,-1,14
 -260 25 -260 25 -250 25 c 0,0,1
EndSplineSet
EndChar

StartChar: A
Encoding: 65 65 59
Width: 0
GlyphClass: 4
Flags: W
AnchorPoint: "vowel" -250 200 mark 0
LayerCount: 2
Fore
SplineSet
-250 625 m 128,-1,1
 -157 625 -157 625 -91 559 c 128,-1,2
 -25 493 -25 493 -25 400 c 0,3,4
 -25 390 -25 390 -32.5 382.5 c 128,-1,5
 -40 375 -40 375 -50 375 c 128,-1,6
 -60 375 -60 375 -67.5 382.5 c 128,-1,7
 -75 390 -75 390 -75 400 c 0,8,9
 -75 472 -75 472 -126.5 523.5 c 128,-1,10
 -178 575 -178 575 -250 575 c 128,-1,11
 -322 575 -322 575 -373.5 523.5 c 128,-1,12
 -425 472 -425 472 -425 400 c 0,13,14
 -425 390 -425 390 -432.5 382.5 c 128,-1,15
 -440 375 -440 375 -450 375 c 128,-1,16
 -460 375 -460 375 -467.5 382.5 c 128,-1,17
 -475 390 -475 390 -475 400 c 0,18,19
 -475 493 -475 493 -409 559 c 128,-1,0
 -343 625 -343 625 -250 625 c 128,-1,1
-393.205078125 566.357421875 m 0,20,21
 -392.269375888 566.424804688 -392.269375888 566.424804688 -391.41796875 566.424804688 c 0,22,23
 -381.070917029 566.424804688 -381.070917029 566.424804688 -373.744140625 559.099609375 c 2,24,-1
 -232.322265625 417.677734375 l 1,25,26
 -225 410.35546875 -225 410.35546875 -225 400 c 0,27,28
 -225 390 -225 390 -232.5 382.5 c 128,-1,29
 -240 375 -240 375 -250 375 c 0,30,31
 -260.3401955 375.03666216 -260.3401955 375.03666216 -267.6328125 382.3671875 c 1,32,-1
 -267.677734375 382.322265625 l 1,33,-1
 -409.099609375 523.744140625 l 1,34,35
 -416.42578125 531.0703125 -416.42578125 531.0703125 -416.42578125 541.42578125 c 128,-1,36
 -416.42578125 551.7734375 -416.42578125 551.7734375 -409.099609375 559.099609375 c 0,37,38
 -402.506159856 565.693058894 -402.506159856 565.693058894 -393.205078125 566.357421875 c 0,20,21
EndSplineSet
EndChar

StartChar: i
Encoding: 105 105 60
Width: 0
GlyphClass: 4
Flags: W
AnchorPoint: "vowel" -250 200 mark 0
LayerCount: 2
Fore
SplineSet
-250 625 m 128,-1,1
 -157 625 -157 625 -91 559 c 128,-1,2
 -25 493 -25 493 -25 400 c 0,3,4
 -25 390 -25 390 -32.5 382.5 c 128,-1,5
 -40 375 -40 375 -50 375 c 128,-1,6
 -60 375 -60 375 -67.5 382.5 c 128,-1,7
 -75 390 -75 390 -75 400 c 0,8,9
 -75 472 -75 472 -126.5 523.5 c 128,-1,10
 -178 575 -178 575 -250 575 c 128,-1,11
 -322 575 -322 575 -373.5 523.5 c 128,-1,12
 -425 472 -425 472 -425 400 c 0,13,14
 -425 390 -425 390 -432.5 382.5 c 128,-1,15
 -440 375 -440 375 -450 375 c 128,-1,16
 -460 375 -460 375 -467.5 382.5 c 128,-1,17
 -475 390 -475 390 -475 400 c 0,18,19
 -475 493 -475 493 -409 559 c 128,-1,0
 -343 625 -343 625 -250 625 c 128,-1,1
EndSplineSet
EndChar

StartChar: backslash
Encoding: 92 92 61
Width: 500
Flags: W
LayerCount: 2
Fore
SplineSet
126.255859375 359.098632812 m 2,0,-1
 409.098632812 76.255859375 l 1,1,2
 416.424804688 68.9312684607 416.424804688 68.9312684607 416.424804688 58.5751953125 c 128,-1,3
 416.424804688 48.2259581018 416.424804688 48.2259581018 409.098632812 40.9013671875 c 128,-1,4
 401.774041898 33.5751953125 401.774041898 33.5751953125 391.41796875 33.5751953125 c 128,-1,5
 381.068731539 33.5751953125 381.068731539 33.5751953125 373.744140625 40.9013671875 c 2,6,-1
 90.9013671875 323.744140625 l 1,7,8
 83.5751953125 331.068731539 83.5751953125 331.068731539 83.5751953125 341.424804688 c 128,-1,9
 83.5751953125 351.774041898 83.5751953125 351.774041898 90.9013671875 359.098632812 c 128,-1,10
 98.2259581018 366.424804688 98.2259581018 366.424804688 108.58203125 366.424804688 c 128,-1,11
 118.931268461 366.424804688 118.931268461 366.424804688 126.255859375 359.098632812 c 2,0,-1
EndSplineSet
EndChar

StartChar: O
Encoding: 79 79 62
Width: 0
GlyphClass: 4
Flags: W
AnchorPoint: "vowel" -250 200 mark 0
LayerCount: 2
Fore
SplineSet
-450 25 m 128,-1,1
 -440 25 -440 25 -432.5 17.5 c 128,-1,2
 -425 10 -425 10 -425 0 c 0,3,4
 -425 -72 -425 -72 -373.5 -123.5 c 128,-1,5
 -322 -175 -322 -175 -250 -175 c 128,-1,6
 -178 -175 -178 -175 -126.5 -123.5 c 128,-1,7
 -75 -72 -75 -72 -75 0 c 0,8,9
 -75 10 -75 10 -67.5 17.5 c 128,-1,10
 -60 25 -60 25 -50 25 c 128,-1,11
 -40 25 -40 25 -32.5 17.5 c 128,-1,12
 -25 10 -25 10 -25 0 c 0,13,14
 -25 -93 -25 -93 -91 -159 c 128,-1,15
 -157 -225 -157 -225 -250 -225 c 128,-1,16
 -343 -225 -343 -225 -409 -159 c 128,-1,17
 -475 -93 -475 -93 -475 0 c 0,18,19
 -475 10 -475 10 -467.5 17.5 c 128,-1,0
 -460 25 -460 25 -450 25 c 128,-1,1
-250 25 m 0,20,21
 -239.64453125 25 -239.64453125 25 -232.322265625 17.677734375 c 2,22,-1
 -90.900390625 -123.744140625 l 1,23,24
 -83.57421875 -131.0703125 -83.57421875 -131.0703125 -83.57421875 -141.42578125 c 128,-1,25
 -83.57421875 -151.7734375 -83.57421875 -151.7734375 -90.900390625 -159.099609375 c 128,-1,26
 -98.2265625 -166.42578125 -98.2265625 -166.42578125 -108.58203125 -166.42578125 c 128,-1,27
 -118.9296875 -166.42578125 -118.9296875 -166.42578125 -126.255859375 -159.099609375 c 2,28,-1
 -267.677734375 -17.677734375 l 1,29,-1
 -267.6328125 -17.6328125 l 1,30,31
 -274.96333784 -10.3401955001 -274.96333784 -10.3401955001 -275 0 c 0,32,33
 -275 10 -275 10 -267.5 17.5 c 128,-1,34
 -260 25 -260 25 -250 25 c 0,20,21
EndSplineSet
EndChar

StartChar: bracketleft
Encoding: 91 91 63
Width: 500
Flags: W
LayerCount: 2
Fore
SplineSet
250 525 m 0,0,1
 301.238592177 524.673127357 301.238592177 524.673127357 338.388671875 488.388671875 c 0,2,3
 345.710693359 481.066650391 345.710693359 481.066650391 345.710693359 470.7109375 c 128,-1,4
 345.710693359 460.355224609 345.710693359 460.355224609 338.388671875 453.033203125 c 128,-1,5
 331.066650391 445.711181641 331.066650391 445.711181641 320.7109375 445.711181641 c 128,-1,6
 310.355224609 445.711181641 310.355224609 445.711181641 303.033203125 453.033203125 c 1,7,-1
 302.83203125 452.83203125 l 1,8,9
 280.997208646 474.834255213 280.997208646 474.834255213 250 475 c 128,-1,10
 219 475 219 475 197 453 c 128,-1,11
 175 431 175 431 175 400 c 2,12,-1
 175 0 l 2,13,14
 175 -31 175 -31 197 -53 c 128,-1,15
 219 -75 219 -75 250 -75 c 128,-1,16
 280.997208646 -74.8342552133 280.997208646 -74.8342552133 302.83203125 -52.83203125 c 1,17,-1
 303.033203125 -53.033203125 l 1,18,19
 310.355224609 -45.7111816406 310.355224609 -45.7111816406 320.7109375 -45.7111816406 c 128,-1,20
 331.066650391 -45.7111816406 331.066650391 -45.7111816406 338.388671875 -53.033203125 c 128,-1,21
 345.710693359 -60.3552246094 345.710693359 -60.3552246094 345.710693359 -70.7109375 c 128,-1,22
 345.710693359 -81.0666503906 345.710693359 -81.0666503906 338.388671875 -88.388671875 c 0,23,24
 301.245595552 -124.673182595 301.245595552 -124.673182595 250 -125 c 0,25,26
 198.93259342 -125 198.93259342 -125 162.547007041 -89.25055354 c 128,-1,27
 126.161420663 -53.5011070799 126.161420663 -53.5011070799 125.12890625 -2.556640625 c 0,28,29
 125 -1.2939453125 125 -1.2939453125 125 0 c 2,30,-1
 125 400 l 2,31,32
 125 401.295410156 125 401.295410156 125.12890625 402.556640625 c 0,33,34
 126.161420663 453.50110708 126.161420663 453.50110708 162.547007041 489.25055354 c 128,-1,35
 198.93259342 525 198.93259342 525 250 525 c 0,0,1
EndSplineSet
EndChar

StartChar: h
Encoding: 104 104 64
Width: 500
Flags: W
AnchorPoint: "vowel" 250 200 basechar 0
LayerCount: 2
Fore
SplineSet
250 425 m 128,-1,1
 343 425 343 425 409 359 c 128,-1,2
 475 293 475 293 475 200 c 128,-1,3
 475 107 475 107 409 41 c 128,-1,4
 343 -25 343 -25 250 -25 c 0,5,6
 240 -25 240 -25 232.5 -17.5 c 128,-1,7
 225 -10 225 -10 225 0 c 128,-1,8
 225 10 225 10 232.5 17.5 c 128,-1,9
 240 25 240 25 250 25 c 0,10,11
 322 25 322 25 373.5 76.5 c 128,-1,12
 425 128 425 128 425 200 c 128,-1,13
 425 272 425 272 373.5 323.5 c 128,-1,14
 322 375 322 375 250 375 c 128,-1,15
 178 375 178 375 126.5 323.5 c 128,-1,16
 75 272 75 272 75 200 c 0,17,18
 75 190 75 190 67.5 182.5 c 128,-1,19
 60 175 60 175 50 175 c 128,-1,20
 40 175 40 175 32.5 182.5 c 128,-1,21
 25 190 25 190 25 200 c 0,22,23
 25 293 25 293 91 359 c 128,-1,0
 157 425 157 425 250 425 c 128,-1,1
EndSplineSet
EndChar

StartChar: at
Encoding: 64 64 65
Width: 500
Flags: W
LayerCount: 2
Fore
SplineSet
250 425 m 128,-1,1
 343 425 343 425 409 359 c 128,-1,2
 475 293 475 293 475 200 c 128,-1,3
 475 107 475 107 409 41 c 128,-1,4
 343 -25 343 -25 250 -25 c 128,-1,5
 157 -25 157 -25 91 41 c 128,-1,6
 25 107 25 107 25 200 c 128,-1,7
 25 293 25 293 91 359 c 128,-1,0
 157 425 157 425 250 425 c 128,-1,1
250 375 m 128,-1,9
 178 375 178 375 126.5 323.5 c 128,-1,10
 75 272 75 272 75 200 c 128,-1,11
 75 128 75 128 126.5 76.5 c 128,-1,12
 178 25 178 25 250 25 c 128,-1,13
 322 25 322 25 373.5 76.5 c 128,-1,14
 425 128 425 128 425 200 c 128,-1,15
 425 272 425 272 373.5 323.5 c 128,-1,8
 322 375 322 375 250 375 c 128,-1,9
250 325 m 128,-1,17
 302 325 302 325 338.5 288.5 c 128,-1,18
 375 252 375 252 375 200 c 128,-1,19
 375 148 375 148 338.5 111.5 c 128,-1,20
 302 75 302 75 250 75 c 128,-1,21
 198 75 198 75 161.5 111.5 c 128,-1,22
 125 148 125 148 125 200 c 128,-1,23
 125 252 125 252 161.5 288.5 c 128,-1,16
 198 325 198 325 250 325 c 128,-1,17
250 275 m 128,-1,25
 219 275 219 275 197 253 c 128,-1,26
 175 231 175 231 175 200 c 128,-1,27
 175 169 175 169 197 147 c 128,-1,28
 219 125 219 125 250 125 c 128,-1,29
 281 125 281 125 303 147 c 128,-1,30
 325 169 325 169 325 200 c 128,-1,31
 325 231 325 231 303 253 c 128,-1,24
 281 275 281 275 250 275 c 128,-1,25
126.255859375 359.098632812 m 2,32,-1
 409.098632812 76.255859375 l 1,33,34
 416.424804688 68.9312684607 416.424804688 68.9312684607 416.424804688 58.5751953125 c 128,-1,35
 416.424804688 48.2259581018 416.424804688 48.2259581018 409.098632812 40.9013671875 c 128,-1,36
 401.774041898 33.5751953125 401.774041898 33.5751953125 391.41796875 33.5751953125 c 128,-1,37
 381.068731539 33.5751953125 381.068731539 33.5751953125 373.744140625 40.9013671875 c 2,38,-1
 90.9013671875 323.744140625 l 1,39,40
 83.5751953125 331.068731539 83.5751953125 331.068731539 83.5751953125 341.424804688 c 128,-1,41
 83.5751953125 351.774041898 83.5751953125 351.774041898 90.9013671875 359.098632812 c 128,-1,42
 98.2259581018 366.424804688 98.2259581018 366.424804688 108.58203125 366.424804688 c 128,-1,43
 118.931268461 366.424804688 118.931268461 366.424804688 126.255859375 359.098632812 c 2,32,-1
EndSplineSet
EndChar

StartChar: T
Encoding: 84 84 66
Width: 500
Flags: W
AnchorPoint: "vowel" 250 200 basechar 0
LayerCount: 2
Fore
SplineSet
108.578125 366.421875 m 128,-1,1
 118.926513672 366.421875 118.926513672 366.421875 126.252319336 359.096069336 c 128,-1,2
 133.578125 351.770263672 133.578125 351.770263672 133.578125 341.421875 c 128,-1,3
 133.578125 331.06640625 133.578125 331.06640625 126.255859375 323.744140625 c 0,4,5
 75 272.48828125 75 272.48828125 75 200 c 0,6,7
 75 128 75 128 126.5 76.5 c 128,-1,8
 178 25 178 25 250 25 c 128,-1,9
 322 25 322 25 373.5 76.5 c 128,-1,10
 425 128 425 128 425 200 c 0,11,12
 425 272.48828125 425 272.48828125 373.744140625 323.744140625 c 0,13,14
 366.421875 331.06640625 366.421875 331.06640625 366.421875 341.421875 c 128,-1,15
 366.421875 351.770263672 366.421875 351.770263672 373.747680664 359.096069336 c 128,-1,16
 381.073486328 366.421875 381.073486328 366.421875 391.421875 366.421875 c 128,-1,17
 401.77734375 366.421875 401.77734375 366.421875 409.099609375 359.099609375 c 0,18,19
 475 293.197638556 475 293.197638556 475 200 c 128,-1,20
 475 107 475 107 409 41 c 128,-1,21
 343 -25 343 -25 250 -25 c 128,-1,22
 157 -25 157 -25 91 41 c 128,-1,23
 25 107 25 107 25 200 c 128,-1,24
 25 293.197638556 25 293.197638556 90.900390625 359.099609375 c 0,25,0
 98.22265625 366.421875 98.22265625 366.421875 108.578125 366.421875 c 128,-1,1
EndSplineSet
EndChar

StartChar: greater
Encoding: 62 62 67
Width: 500
Flags: W
LayerCount: 2
Fore
SplineSet
250 325 m 0,0,1
 302 325 302 325 338.5 288.5 c 128,-1,2
 375 252 375 252 375 200 c 128,-1,3
 375 148 375 148 338.5 111.5 c 128,-1,4
 302 75 302 75 250 75 c 0,5,6
 198.22265625 75 198.22265625 75 161.611328125 111.611328125 c 0,7,8
 154.2890625 118.93359375 154.2890625 118.93359375 154.2890625 129.2890625 c 128,-1,9
 154.2890625 139.637451172 154.2890625 139.637451172 161.614868164 146.963256836 c 128,-1,10
 168.940673828 154.2890625 168.940673828 154.2890625 179.2890625 154.2890625 c 128,-1,11
 189.64453125 154.2890625 189.64453125 154.2890625 196.966796875 146.966796875 c 0,12,13
 218.935173981 125 218.935173981 125 250 125 c 128,-1,14
 281 125 281 125 303 147 c 128,-1,15
 325 169 325 169 325 200 c 128,-1,16
 325 231 325 231 303 253 c 128,-1,17
 281 275 281 275 250 275 c 128,-1,18
 218.935173981 275 218.935173981 275 196.966796875 253.033203125 c 0,19,20
 189.64453125 245.7109375 189.64453125 245.7109375 179.2890625 245.7109375 c 128,-1,21
 168.940673828 245.7109375 168.940673828 245.7109375 161.614868164 253.036743164 c 128,-1,22
 154.2890625 260.362548828 154.2890625 260.362548828 154.2890625 270.7109375 c 128,-1,23
 154.2890625 281.06640625 154.2890625 281.06640625 161.611328125 288.388671875 c 0,24,25
 198.22265625 325 198.22265625 325 250 325 c 0,0,1
EndSplineSet
EndChar

StartChar: asterisk
Encoding: 42 42 68
Width: 500
Flags: W
LayerCount: 2
Fore
SplineSet
250 425 m 128,-1,1
 260 425 260 425 267.5 417.5 c 128,-1,2
 275 410 275 410 275 400 c 2,3,-1
 275 260.35546875 l 1,4,-1
 299.687554253 285.041503906 l 0,5,6
 324.375108507 309.727539062 324.375108507 309.727539062 349.061143663 334.413574219 c 128,-1,7
 373.747178819 359.099609375 373.747178819 359.099609375 373.744140625 359.099609375 c 1,8,9
 381.0703125 366.42578125 381.0703125 366.42578125 391.42578125 366.42578125 c 128,-1,10
 401.7734375 366.42578125 401.7734375 366.42578125 409.099609375 359.099609375 c 128,-1,11
 416.42578125 351.7734375 416.42578125 351.7734375 416.42578125 341.41796875 c 128,-1,12
 416.42578125 331.0703125 416.42578125 331.0703125 409.099609375 323.744140625 c 2,13,-1
 285.35546875 200 l 1,14,-1
 409.099609375 76.255859375 l 1,15,16
 416.42578125 68.9296875 416.42578125 68.9296875 416.42578125 58.57421875 c 128,-1,17
 416.42578125 48.2265625 416.42578125 48.2265625 409.099609375 40.900390625 c 128,-1,18
 401.7734375 33.57421875 401.7734375 33.57421875 391.41796875 33.57421875 c 128,-1,19
 381.0703125 33.57421875 381.0703125 33.57421875 373.744140625 40.900390625 c 2,20,-1
 275 139.64453125 l 1,21,-1
 275 0 l 2,22,23
 275 -10 275 -10 267.5 -17.5 c 128,-1,24
 260 -25 260 -25 250 -25 c 128,-1,25
 240 -25 240 -25 232.5 -17.5 c 128,-1,26
 225 -10 225 -10 225 0 c 2,27,-1
 225 139.64453125 l 1,28,-1
 200.312445747 114.958496094 l 0,29,30
 175.624891493 90.2724609375 175.624891493 90.2724609375 150.938856337 65.5864257812 c 128,-1,31
 126.252821181 40.900390625 126.252821181 40.900390625 126.255859375 40.900390625 c 1,32,33
 118.9296875 33.57421875 118.9296875 33.57421875 108.57421875 33.57421875 c 128,-1,34
 98.2265625 33.57421875 98.2265625 33.57421875 90.900390625 40.900390625 c 128,-1,35
 83.57421875 48.2265625 83.57421875 48.2265625 83.57421875 58.58203125 c 128,-1,36
 83.57421875 68.9296875 83.57421875 68.9296875 90.900390625 76.255859375 c 2,37,-1
 214.64453125 200 l 1,38,-1
 90.900390625 323.744140625 l 1,39,40
 83.57421875 331.0703125 83.57421875 331.0703125 83.57421875 341.42578125 c 128,-1,41
 83.57421875 351.7734375 83.57421875 351.7734375 90.900390625 359.099609375 c 128,-1,42
 98.2265625 366.42578125 98.2265625 366.42578125 108.58203125 366.42578125 c 128,-1,43
 118.9296875 366.42578125 118.9296875 366.42578125 126.255859375 359.099609375 c 2,44,-1
 225 260.35546875 l 1,45,-1
 225 400 l 2,46,47
 225 410 225 410 232.5 417.5 c 128,-1,0
 240 425 240 425 250 425 c 128,-1,1
EndSplineSet
EndChar

StartChar: three
Encoding: 51 51 69
Width: 500
Flags: W
LayerCount: 2
Fore
SplineSet
250 425 m 0,0,1
 260 425 260 425 267.5 417.5 c 128,-1,2
 275 410 275 410 275 400 c 128,-1,3
 275 390 275 390 267.5 382.5 c 128,-1,4
 260 375 260 375 250 375 c 0,5,6
 178 375 178 375 126.5 323.5 c 128,-1,7
 75 272 75 272 75 200 c 128,-1,8
 75 128 75 128 126.5 76.5 c 128,-1,9
 178 25 178 25 250 25 c 128,-1,10
 322 25 322 25 373.5 76.5 c 128,-1,11
 425 128 425 128 425 200 c 0,12,13
 425 210 425 210 432.5 217.5 c 128,-1,14
 440 225 440 225 450 225 c 128,-1,15
 460 225 460 225 467.5 217.5 c 128,-1,16
 475 210 475 210 475 200 c 0,17,18
 475 107 475 107 409 41 c 128,-1,19
 343 -25 343 -25 250 -25 c 128,-1,20
 157 -25 157 -25 91 41 c 128,-1,21
 25 107 25 107 25 200 c 128,-1,22
 25 293 25 293 91 359 c 128,-1,23
 157 425 157 425 250 425 c 0,0,1
250 325 m 128,-1,25
 302 325 302 325 338.5 288.5 c 128,-1,26
 375 252 375 252 375 200 c 128,-1,27
 375 148 375 148 338.5 111.5 c 128,-1,28
 302 75 302 75 250 75 c 128,-1,29
 198 75 198 75 161.5 111.5 c 128,-1,30
 125 148 125 148 125 200 c 128,-1,31
 125 252 125 252 161.5 288.5 c 128,-1,24
 198 325 198 325 250 325 c 128,-1,25
250 275 m 128,-1,33
 219 275 219 275 197 253 c 128,-1,34
 175 231 175 231 175 200 c 128,-1,35
 175 169 175 169 197 147 c 128,-1,36
 219 125 219 125 250 125 c 128,-1,37
 281 125 281 125 303 147 c 128,-1,38
 325 169 325 169 325 200 c 128,-1,39
 325 231 325 231 303 253 c 128,-1,32
 281 275 281 275 250 275 c 128,-1,33
EndSplineSet
EndChar

StartChar: quotesingle
Encoding: 39 39 70
Width: 500
Flags: W
LayerCount: 2
Fore
SplineSet
250 225 m 128,-1,1
 260 225 260 225 267.5 217.5 c 128,-1,2
 275 210 275 210 275 200 c 128,-1,3
 275 190 275 190 267.5 182.5 c 128,-1,4
 260 175 260 175 250 175 c 128,-1,5
 240 175 240 175 232.5 182.5 c 128,-1,6
 225 190 225 190 225 200 c 128,-1,7
 225 210 225 210 232.5 217.5 c 128,-1,0
 240 225 240 225 250 225 c 128,-1,1
EndSplineSet
EndChar

StartChar: ampersand
Encoding: 38 38 71
Width: 500
Flags: W
LayerCount: 2
Fore
SplineSet
250 425 m 128,-1,1
 343 425 343 425 409 359 c 128,-1,2
 475 293 475 293 475 200 c 128,-1,3
 475 107 475 107 409 41 c 128,-1,4
 343 -25 343 -25 250 -25 c 128,-1,5
 156.802361444 -25 156.802361444 -25 90.900390625 40.900390625 c 0,6,7
 83.578125 48.22265625 83.578125 48.22265625 83.578125 58.578125 c 128,-1,8
 83.578125 68.9265136719 83.578125 68.9265136719 90.9039306641 76.2523193359 c 128,-1,9
 98.2297363281 83.578125 98.2297363281 83.578125 108.578125 83.578125 c 128,-1,10
 118.93359375 83.578125 118.93359375 83.578125 126.255859375 76.255859375 c 0,11,12
 177.51171875 25 177.51171875 25 250 25 c 0,13,14
 322 25 322 25 373.5 76.5 c 128,-1,15
 425 128 425 128 425 200 c 128,-1,16
 425 272 425 272 373.5 323.5 c 128,-1,17
 322 375 322 375 250 375 c 0,18,19
 177.51171875 375 177.51171875 375 126.255859375 323.744140625 c 0,20,21
 118.93359375 316.421875 118.93359375 316.421875 108.578125 316.421875 c 128,-1,22
 98.2297363281 316.421875 98.2297363281 316.421875 90.9039306641 323.747680664 c 128,-1,23
 83.578125 331.073486328 83.578125 331.073486328 83.578125 341.421875 c 128,-1,24
 83.578125 351.77734375 83.578125 351.77734375 90.900390625 359.099609375 c 0,25,0
 156.802361444 425 156.802361444 425 250 425 c 128,-1,1
250 325 m 0,26,27
 302 325 302 325 338.5 288.5 c 128,-1,28
 375 252 375 252 375 200 c 128,-1,29
 375 148 375 148 338.5 111.5 c 128,-1,30
 302 75 302 75 250 75 c 0,31,32
 198.22265625 75 198.22265625 75 161.611328125 111.611328125 c 0,33,34
 154.2890625 118.93359375 154.2890625 118.93359375 154.2890625 129.2890625 c 128,-1,35
 154.2890625 139.637451172 154.2890625 139.637451172 161.614868164 146.963256836 c 128,-1,36
 168.940673828 154.2890625 168.940673828 154.2890625 179.2890625 154.2890625 c 128,-1,37
 189.64453125 154.2890625 189.64453125 154.2890625 196.966796875 146.966796875 c 0,38,39
 218.935173981 125 218.935173981 125 250 125 c 128,-1,40
 281 125 281 125 303 147 c 128,-1,41
 325 169 325 169 325 200 c 128,-1,42
 325 231 325 231 303 253 c 128,-1,43
 281 275 281 275 250 275 c 128,-1,44
 218.935173981 275 218.935173981 275 196.966796875 253.033203125 c 0,45,46
 189.64453125 245.7109375 189.64453125 245.7109375 179.2890625 245.7109375 c 128,-1,47
 168.940673828 245.7109375 168.940673828 245.7109375 161.614868164 253.036743164 c 128,-1,48
 154.2890625 260.362548828 154.2890625 260.362548828 154.2890625 270.7109375 c 128,-1,49
 154.2890625 281.06640625 154.2890625 281.06640625 161.611328125 288.388671875 c 0,50,51
 198.22265625 325 198.22265625 325 250 325 c 0,26,27
250 225 m 128,-1,53
 260 225 260 225 267.5 217.5 c 128,-1,54
 275 210 275 210 275 200 c 128,-1,55
 275 190 275 190 267.5 182.5 c 128,-1,56
 260 175 260 175 250 175 c 128,-1,57
 240 175 240 175 232.5 182.5 c 128,-1,58
 225 190 225 190 225 200 c 128,-1,59
 225 210 225 210 232.5 217.5 c 128,-1,52
 240 225 240 225 250 225 c 128,-1,53
EndSplineSet
EndChar

StartChar: two
Encoding: 50 50 72
Width: 500
Flags: W
LayerCount: 2
Fore
SplineSet
108.578125 366.421875 m 128,-1,1
 118.926513672 366.421875 118.926513672 366.421875 126.252319336 359.096069336 c 128,-1,2
 133.578125 351.770263672 133.578125 351.770263672 133.578125 341.421875 c 128,-1,3
 133.578125 331.06640625 133.578125 331.06640625 126.255859375 323.744140625 c 0,4,5
 75 272.48828125 75 272.48828125 75 200 c 0,6,7
 75 128 75 128 126.5 76.5 c 128,-1,8
 178 25 178 25 250 25 c 128,-1,9
 322 25 322 25 373.5 76.5 c 128,-1,10
 425 128 425 128 425 200 c 0,11,12
 425 272.48828125 425 272.48828125 373.744140625 323.744140625 c 0,13,14
 366.421875 331.06640625 366.421875 331.06640625 366.421875 341.421875 c 128,-1,15
 366.421875 351.770263672 366.421875 351.770263672 373.747680664 359.096069336 c 128,-1,16
 381.073486328 366.421875 381.073486328 366.421875 391.421875 366.421875 c 128,-1,17
 401.77734375 366.421875 401.77734375 366.421875 409.099609375 359.099609375 c 0,18,19
 475 293.197638556 475 293.197638556 475 200 c 128,-1,20
 475 107 475 107 409 41 c 128,-1,21
 343 -25 343 -25 250 -25 c 128,-1,22
 157 -25 157 -25 91 41 c 128,-1,23
 25 107 25 107 25 200 c 128,-1,24
 25 293.197638556 25 293.197638556 90.900390625 359.099609375 c 0,25,0
 98.22265625 366.421875 98.22265625 366.421875 108.578125 366.421875 c 128,-1,1
250 325 m 128,-1,27
 302 325 302 325 338.5 288.5 c 128,-1,28
 375 252 375 252 375 200 c 128,-1,29
 375 148 375 148 338.5 111.5 c 128,-1,30
 302 75 302 75 250 75 c 128,-1,31
 198 75 198 75 161.5 111.5 c 128,-1,32
 125 148 125 148 125 200 c 128,-1,33
 125 252 125 252 161.5 288.5 c 128,-1,26
 198 325 198 325 250 325 c 128,-1,27
250 275 m 128,-1,35
 219 275 219 275 197 253 c 128,-1,36
 175 231 175 231 175 200 c 128,-1,37
 175 169 175 169 197 147 c 128,-1,38
 219 125 219 125 250 125 c 128,-1,39
 281 125 281 125 303 147 c 128,-1,40
 325 169 325 169 325 200 c 128,-1,41
 325 231 325 231 303 253 c 128,-1,34
 281 275 281 275 250 275 c 128,-1,35
EndSplineSet
EndChar

StartChar: equal
Encoding: 61 61 73
Width: 500
Flags: W
LayerCount: 2
Fore
SplineSet
250 325 m 128,-1,1
 301.77734375 325 301.77734375 325 338.388671875 288.388671875 c 0,2,3
 345.7109375 281.06640625 345.7109375 281.06640625 345.7109375 270.7109375 c 128,-1,4
 345.7109375 260.362548828 345.7109375 260.362548828 338.385131836 253.036743164 c 128,-1,5
 331.059326172 245.7109375 331.059326172 245.7109375 320.7109375 245.7109375 c 128,-1,6
 310.35546875 245.7109375 310.35546875 245.7109375 303.033203125 253.033203125 c 0,7,8
 281.064826019 275 281.064826019 275 250 275 c 128,-1,9
 218.935173981 275 218.935173981 275 196.966796875 253.033203125 c 0,10,11
 189.64453125 245.7109375 189.64453125 245.7109375 179.2890625 245.7109375 c 128,-1,12
 168.940673828 245.7109375 168.940673828 245.7109375 161.614868164 253.036743164 c 128,-1,13
 154.2890625 260.362548828 154.2890625 260.362548828 154.2890625 270.7109375 c 128,-1,14
 154.2890625 281.06640625 154.2890625 281.06640625 161.611328125 288.388671875 c 0,15,0
 198.22265625 325 198.22265625 325 250 325 c 128,-1,1
179.2890625 154.2890625 m 128,-1,17
 189.64453125 154.2890625 189.64453125 154.2890625 196.966796875 146.966796875 c 0,18,19
 218.935173981 125 218.935173981 125 250 125 c 128,-1,20
 281.064826019 125 281.064826019 125 303.033203125 146.966796875 c 0,21,22
 310.35546875 154.2890625 310.35546875 154.2890625 320.7109375 154.2890625 c 128,-1,23
 331.059326172 154.2890625 331.059326172 154.2890625 338.385131836 146.963256836 c 128,-1,24
 345.7109375 139.637451172 345.7109375 139.637451172 345.7109375 129.2890625 c 128,-1,25
 345.7109375 118.93359375 345.7109375 118.93359375 338.388671875 111.611328125 c 0,26,27
 301.77734375 75 301.77734375 75 250 75 c 128,-1,28
 198.22265625 75 198.22265625 75 161.611328125 111.611328125 c 0,29,30
 154.2890625 118.93359375 154.2890625 118.93359375 154.2890625 129.2890625 c 128,-1,31
 154.2890625 139.637451172 154.2890625 139.637451172 161.614868164 146.963256836 c 128,-1,16
 168.940673828 154.2890625 168.940673828 154.2890625 179.2890625 154.2890625 c 128,-1,17
EndSplineSet
EndChar

StartChar: plus
Encoding: 43 43 74
Width: 500
Flags: W
LayerCount: 2
Fore
SplineSet
250 425 m 128,-1,1
 260 425 260 425 267.5 417.5 c 128,-1,2
 275 410 275 410 275 400 c 2,3,-1
 275 225 l 1,4,-1
 450 225 l 2,5,6
 460 225 460 225 467.5 217.5 c 128,-1,7
 475 210 475 210 475 200 c 128,-1,8
 475 190 475 190 467.5 182.5 c 128,-1,9
 460 175 460 175 450 175 c 2,10,-1
 275 175 l 1,11,-1
 275 0 l 2,12,13
 275 -10 275 -10 267.5 -17.5 c 128,-1,14
 260 -25 260 -25 250 -25 c 128,-1,15
 240 -25 240 -25 232.5 -17.5 c 128,-1,16
 225 -10 225 -10 225 0 c 2,17,-1
 225 175 l 1,18,-1
 50 175 l 2,19,20
 40 175 40 175 32.5 182.5 c 128,-1,21
 25 190 25 190 25 200 c 128,-1,22
 25 210 25 210 32.5 217.5 c 128,-1,23
 40 225 40 225 50 225 c 2,24,-1
 225 225 l 1,25,-1
 225 400 l 2,26,27
 225 410 225 410 232.5 417.5 c 128,-1,0
 240 425 240 425 250 425 c 128,-1,1
EndSplineSet
EndChar

StartChar: question
Encoding: 63 63 75
Width: 500
Flags: W
LayerCount: 2
Fore
SplineSet
250 425 m 128,-1,1
 260 425 260 425 267.5 417.5 c 128,-1,2
 275 410 275 410 275 400 c 128,-1,3
 275 390 275 390 267.5 382.5 c 128,-1,4
 260 375 260 375 250 375 c 128,-1,5
 240 375 240 375 232.5 382.5 c 128,-1,6
 225 390 225 390 225 400 c 128,-1,7
 225 410 225 410 232.5 417.5 c 128,-1,0
 240 425 240 425 250 425 c 128,-1,1
250 225 m 128,-1,9
 260 225 260 225 267.5 217.5 c 128,-1,10
 275 210 275 210 275 200 c 128,-1,11
 275 190 275 190 267.5 182.5 c 128,-1,12
 260 175 260 175 250 175 c 128,-1,13
 240 175 240 175 232.5 182.5 c 128,-1,14
 225 190 225 190 225 200 c 128,-1,15
 225 210 225 210 232.5 217.5 c 128,-1,8
 240 225 240 225 250 225 c 128,-1,9
250 25 m 128,-1,17
 260 25 260 25 267.5 17.5 c 128,-1,18
 275 10 275 10 275 0 c 128,-1,19
 275 -10 275 -10 267.5 -17.5 c 128,-1,20
 260 -25 260 -25 250 -25 c 128,-1,21
 240 -25 240 -25 232.5 -17.5 c 128,-1,22
 225 -10 225 -10 225 0 c 128,-1,23
 225 10 225 10 232.5 17.5 c 128,-1,16
 240 25 240 25 250 25 c 128,-1,17
EndSplineSet
EndChar

StartChar: dollar
Encoding: 36 36 76
Width: 500
Flags: W
LayerCount: 2
Fore
SplineSet
108.578125 366.421875 m 128,-1,1
 118.926513672 366.421875 118.926513672 366.421875 126.252319336 359.096069336 c 128,-1,2
 133.578125 351.770263672 133.578125 351.770263672 133.578125 341.421875 c 128,-1,3
 133.578125 331.06640625 133.578125 331.06640625 126.255859375 323.744140625 c 0,4,5
 75 272.48828125 75 272.48828125 75 200 c 0,6,7
 75 128 75 128 126.5 76.5 c 128,-1,8
 178 25 178 25 250 25 c 128,-1,9
 322 25 322 25 373.5 76.5 c 128,-1,10
 425 128 425 128 425 200 c 0,11,12
 425 272.48828125 425 272.48828125 373.744140625 323.744140625 c 0,13,14
 366.421875 331.06640625 366.421875 331.06640625 366.421875 341.421875 c 128,-1,15
 366.421875 351.770263672 366.421875 351.770263672 373.747680664 359.096069336 c 128,-1,16
 381.073486328 366.421875 381.073486328 366.421875 391.421875 366.421875 c 128,-1,17
 401.77734375 366.421875 401.77734375 366.421875 409.099609375 359.099609375 c 0,18,19
 475 293.197638556 475 293.197638556 475 200 c 128,-1,20
 475 107 475 107 409 41 c 128,-1,21
 343 -25 343 -25 250 -25 c 128,-1,22
 157 -25 157 -25 91 41 c 128,-1,23
 25 107 25 107 25 200 c 128,-1,24
 25 293.197638556 25 293.197638556 90.900390625 359.099609375 c 0,25,0
 98.22265625 366.421875 98.22265625 366.421875 108.578125 366.421875 c 128,-1,1
126.255859375 359.098632812 m 2,26,-1
 409.098632812 76.255859375 l 1,27,28
 416.424804688 68.9312684607 416.424804688 68.9312684607 416.424804688 58.5751953125 c 128,-1,29
 416.424804688 48.2259581018 416.424804688 48.2259581018 409.098632812 40.9013671875 c 128,-1,30
 401.774041898 33.5751953125 401.774041898 33.5751953125 391.41796875 33.5751953125 c 128,-1,31
 381.068731539 33.5751953125 381.068731539 33.5751953125 373.744140625 40.9013671875 c 2,32,-1
 90.9013671875 323.744140625 l 1,33,34
 83.5751953125 331.068731539 83.5751953125 331.068731539 83.5751953125 341.424804688 c 128,-1,35
 83.5751953125 351.774041898 83.5751953125 351.774041898 90.9013671875 359.098632812 c 128,-1,36
 98.2259581018 366.424804688 98.2259581018 366.424804688 108.58203125 366.424804688 c 128,-1,37
 118.931268461 366.424804688 118.931268461 366.424804688 126.255859375 359.098632812 c 2,26,-1
250 625 m 128,-1,39
 260 625 260 625 267.5 617.5 c 128,-1,40
 275 610 275 610 275 600 c 2,41,-1
 275 -200 l 2,42,43
 275 -210 275 -210 267.5 -217.5 c 128,-1,44
 260 -225 260 -225 250 -225 c 128,-1,45
 240 -225 240 -225 232.5 -217.5 c 128,-1,46
 225 -210 225 -210 225 -200 c 2,47,-1
 225 600 l 2,48,49
 225 610 225 610 232.5 617.5 c 128,-1,38
 240 625 240 625 250 625 c 128,-1,39
EndSplineSet
EndChar

StartChar: zero
Encoding: 48 48 77
Width: 500
Flags: W
LayerCount: 2
Fore
SplineSet
250 325 m 128,-1,1
 302 325 302 325 338.5 288.5 c 128,-1,2
 375 252 375 252 375 200 c 128,-1,3
 375 148 375 148 338.5 111.5 c 128,-1,4
 302 75 302 75 250 75 c 128,-1,5
 198 75 198 75 161.5 111.5 c 128,-1,6
 125 148 125 148 125 200 c 128,-1,7
 125 252 125 252 161.5 288.5 c 128,-1,0
 198 325 198 325 250 325 c 128,-1,1
250 275 m 128,-1,9
 219 275 219 275 197 253 c 128,-1,10
 175 231 175 231 175 200 c 128,-1,11
 175 169 175 169 197 147 c 128,-1,12
 219 125 219 125 250 125 c 128,-1,13
 281 125 281 125 303 147 c 128,-1,14
 325 169 325 169 325 200 c 128,-1,15
 325 231 325 231 303 253 c 128,-1,8
 281 275 281 275 250 275 c 128,-1,9
EndSplineSet
EndChar

StartChar: one
Encoding: 49 49 78
Width: 500
Flags: W
LayerCount: 2
Fore
SplineSet
250 425 m 0,0,1
 343 425 343 425 409 359 c 128,-1,2
 475 293 475 293 475 200 c 128,-1,3
 475 107 475 107 409 41 c 128,-1,4
 343 -25 343 -25 250 -25 c 128,-1,5
 157 -25 157 -25 91 41 c 128,-1,6
 25 107 25 107 25 200 c 0,7,8
 25 210 25 210 32.5 217.5 c 128,-1,9
 40 225 40 225 50 225 c 128,-1,10
 60 225 60 225 67.5 217.5 c 128,-1,11
 75 210 75 210 75 200 c 0,12,13
 75 128 75 128 126.5 76.5 c 128,-1,14
 178 25 178 25 250 25 c 128,-1,15
 322 25 322 25 373.5 76.5 c 128,-1,16
 425 128 425 128 425 200 c 128,-1,17
 425 272 425 272 373.5 323.5 c 128,-1,18
 322 375 322 375 250 375 c 0,19,20
 240 375 240 375 232.5 382.5 c 128,-1,21
 225 390 225 390 225 400 c 128,-1,22
 225 410 225 410 232.5 417.5 c 128,-1,23
 240 425 240 425 250 425 c 0,0,1
250 325 m 128,-1,25
 302 325 302 325 338.5 288.5 c 128,-1,26
 375 252 375 252 375 200 c 128,-1,27
 375 148 375 148 338.5 111.5 c 128,-1,28
 302 75 302 75 250 75 c 128,-1,29
 198 75 198 75 161.5 111.5 c 128,-1,30
 125 148 125 148 125 200 c 128,-1,31
 125 252 125 252 161.5 288.5 c 128,-1,24
 198 325 198 325 250 325 c 128,-1,25
250 275 m 128,-1,33
 219 275 219 275 197 253 c 128,-1,34
 175 231 175 231 175 200 c 128,-1,35
 175 169 175 169 197 147 c 128,-1,36
 219 125 219 125 250 125 c 128,-1,37
 281 125 281 125 303 147 c 128,-1,38
 325 169 325 169 325 200 c 128,-1,39
 325 231 325 231 303 253 c 128,-1,32
 281 275 281 275 250 275 c 128,-1,33
EndSplineSet
EndChar

StartChar: percent
Encoding: 37 37 79
Width: 500
Flags: W
LayerCount: 2
Fore
SplineSet
250 325 m 128,-1,1
 302 325 302 325 338.5 288.5 c 128,-1,2
 375 252 375 252 375 200 c 128,-1,3
 375 148 375 148 338.5 111.5 c 128,-1,4
 302 75 302 75 250 75 c 128,-1,5
 198 75 198 75 161.5 111.5 c 128,-1,6
 125 148 125 148 125 200 c 128,-1,7
 125 252 125 252 161.5 288.5 c 128,-1,0
 198 325 198 325 250 325 c 128,-1,1
250 275 m 128,-1,9
 219 275 219 275 197 253 c 128,-1,10
 175 231 175 231 175 200 c 128,-1,11
 175 169 175 169 197 147 c 128,-1,12
 219 125 219 125 250 125 c 128,-1,13
 281 125 281 125 303 147 c 128,-1,14
 325 169 325 169 325 200 c 128,-1,15
 325 231 325 231 303 253 c 128,-1,8
 281 275 281 275 250 275 c 128,-1,9
90.9013671875 76.255859375 m 2,16,-1
 161.613579644 146.966552734 l 0,17,18
 232.325792101 217.677246094 232.325792101 217.677246094 303.03648546 288.387939453 c 128,-1,19
 373.747178819 359.098632812 373.747178819 359.098632812 373.744140625 359.098632812 c 1,20,21
 381.068731539 366.424804688 381.068731539 366.424804688 391.424804688 366.424804688 c 128,-1,22
 401.774041898 366.424804688 401.774041898 366.424804688 409.098632812 359.098632812 c 128,-1,23
 416.424804688 351.774041898 416.424804688 351.774041898 416.424804688 341.41796875 c 128,-1,24
 416.424804688 331.068731539 416.424804688 331.068731539 409.098632812 323.744140625 c 2,25,-1
 338.386420356 253.033447266 l 0,26,27
 267.674207899 182.322753906 267.674207899 182.322753906 196.96351454 111.612060547 c 128,-1,28
 126.252821181 40.9013671875 126.252821181 40.9013671875 126.255859375 40.9013671875 c 1,29,30
 118.931268461 33.5751953125 118.931268461 33.5751953125 108.575195312 33.5751953125 c 128,-1,31
 98.2259581018 33.5751953125 98.2259581018 33.5751953125 90.9013671875 40.9013671875 c 128,-1,32
 83.5751953125 48.2259581018 83.5751953125 48.2259581018 83.5751953125 58.58203125 c 128,-1,33
 83.5751953125 68.9312684607 83.5751953125 68.9312684607 90.9013671875 76.255859375 c 2,16,-1
EndSplineSet
EndChar

StartChar: comma
Encoding: 44 44 80
Width: 500
Flags: W
LayerCount: 2
Fore
SplineSet
50 225 m 128,-1,1
 60 225 60 225 67.5 217.5 c 128,-1,2
 75 210 75 210 75 200 c 128,-1,3
 75 190 75 190 67.5 182.5 c 128,-1,4
 60 175 60 175 50 175 c 128,-1,5
 40 175 40 175 32.5 182.5 c 128,-1,6
 25 190 25 190 25 200 c 128,-1,7
 25 210 25 210 32.5 217.5 c 128,-1,0
 40 225 40 225 50 225 c 128,-1,1
250 225 m 128,-1,9
 260 225 260 225 267.5 217.5 c 128,-1,10
 275 210 275 210 275 200 c 128,-1,11
 275 190 275 190 267.5 182.5 c 128,-1,12
 260 175 260 175 250 175 c 128,-1,13
 240 175 240 175 232.5 182.5 c 128,-1,14
 225 190 225 190 225 200 c 128,-1,15
 225 210 225 210 232.5 217.5 c 128,-1,8
 240 225 240 225 250 225 c 128,-1,9
450 225 m 128,-1,17
 460 225 460 225 467.5 217.5 c 128,-1,18
 475 210 475 210 475 200 c 128,-1,19
 475 190 475 190 467.5 182.5 c 128,-1,20
 460 175 460 175 450 175 c 128,-1,21
 440 175 440 175 432.5 182.5 c 128,-1,22
 425 190 425 190 425 200 c 128,-1,23
 425 210 425 210 432.5 217.5 c 128,-1,16
 440 225 440 225 450 225 c 128,-1,17
EndSplineSet
EndChar

StartChar: exclam
Encoding: 33 33 81
Width: 500
Flags: W
LayerCount: 2
Fore
SplineSet
250 425 m 128,-1,1
 260 425 260 425 267.5 417.5 c 128,-1,2
 275 410 275 410 275 400 c 128,-1,3
 275 390 275 390 267.5 382.5 c 128,-1,4
 260 375 260 375 250 375 c 128,-1,5
 240 375 240 375 232.5 382.5 c 128,-1,6
 225 390 225 390 225 400 c 128,-1,7
 225 410 225 410 232.5 417.5 c 128,-1,0
 240 425 240 425 250 425 c 128,-1,1
250 25 m 128,-1,9
 260 25 260 25 267.5 17.5 c 128,-1,10
 275 10 275 10 275 0 c 128,-1,11
 275 -10 275 -10 267.5 -17.5 c 128,-1,12
 260 -25 260 -25 250 -25 c 128,-1,13
 240 -25 240 -25 232.5 -17.5 c 128,-1,14
 225 -10 225 -10 225 0 c 128,-1,15
 225 10 225 10 232.5 17.5 c 128,-1,8
 240 25 240 25 250 25 c 128,-1,9
EndSplineSet
EndChar

StartChar: five
Encoding: 53 53 82
Width: 500
Flags: W
LayerCount: 2
Fore
SplineSet
250 425 m 128,-1,1
 343 425 343 425 409 359 c 128,-1,2
 475 293 475 293 475 200 c 128,-1,3
 475 107 475 107 409 41 c 128,-1,4
 343 -25 343 -25 250 -25 c 128,-1,5
 157 -25 157 -25 91 41 c 128,-1,6
 25 107 25 107 25 200 c 128,-1,7
 25 293 25 293 91 359 c 128,-1,0
 157 425 157 425 250 425 c 128,-1,1
250 375 m 128,-1,9
 178 375 178 375 126.5 323.5 c 128,-1,10
 75 272 75 272 75 200 c 128,-1,11
 75 128 75 128 126.5 76.5 c 128,-1,12
 178 25 178 25 250 25 c 128,-1,13
 322 25 322 25 373.5 76.5 c 128,-1,14
 425 128 425 128 425 200 c 128,-1,15
 425 272 425 272 373.5 323.5 c 128,-1,8
 322 375 322 375 250 375 c 128,-1,9
250 325 m 128,-1,17
 302 325 302 325 338.5 288.5 c 128,-1,18
 375 252 375 252 375 200 c 128,-1,19
 375 148 375 148 338.5 111.5 c 128,-1,20
 302 75 302 75 250 75 c 128,-1,21
 198 75 198 75 161.5 111.5 c 128,-1,22
 125 148 125 148 125 200 c 128,-1,23
 125 252 125 252 161.5 288.5 c 128,-1,16
 198 325 198 325 250 325 c 128,-1,17
250 275 m 128,-1,25
 219 275 219 275 197 253 c 128,-1,26
 175 231 175 231 175 200 c 128,-1,27
 175 169 175 169 197 147 c 128,-1,28
 219 125 219 125 250 125 c 128,-1,29
 281 125 281 125 303 147 c 128,-1,30
 325 169 325 169 325 200 c 128,-1,31
 325 231 325 231 303 253 c 128,-1,24
 281 275 281 275 250 275 c 128,-1,25
EndSplineSet
EndChar

StartChar: less
Encoding: 60 60 83
Width: 500
Flags: W
LayerCount: 2
Fore
SplineSet
250 325 m 0,0,1
 301.77734375 325 301.77734375 325 338.388671875 288.388671875 c 0,2,3
 345.7109375 281.06640625 345.7109375 281.06640625 345.7109375 270.7109375 c 128,-1,4
 345.7109375 260.362548828 345.7109375 260.362548828 338.385131836 253.036743164 c 128,-1,5
 331.059326172 245.7109375 331.059326172 245.7109375 320.7109375 245.7109375 c 128,-1,6
 310.35546875 245.7109375 310.35546875 245.7109375 303.033203125 253.033203125 c 0,7,8
 281.064826019 275 281.064826019 275 250 275 c 128,-1,9
 219 275 219 275 197 253 c 128,-1,10
 175 231 175 231 175 200 c 128,-1,11
 175 169 175 169 197 147 c 128,-1,12
 219 125 219 125 250 125 c 128,-1,13
 281.064826019 125 281.064826019 125 303.033203125 146.966796875 c 0,14,15
 310.35546875 154.2890625 310.35546875 154.2890625 320.7109375 154.2890625 c 128,-1,16
 331.059326172 154.2890625 331.059326172 154.2890625 338.385131836 146.963256836 c 128,-1,17
 345.7109375 139.637451172 345.7109375 139.637451172 345.7109375 129.2890625 c 128,-1,18
 345.7109375 118.93359375 345.7109375 118.93359375 338.388671875 111.611328125 c 0,19,20
 301.77734375 75 301.77734375 75 250 75 c 0,21,22
 198 75 198 75 161.5 111.5 c 128,-1,23
 125 148 125 148 125 200 c 128,-1,24
 125 252 125 252 161.5 288.5 c 128,-1,25
 198 325 198 325 250 325 c 0,0,1
EndSplineSet
EndChar

StartChar: semicolon
Encoding: 59 59 84
Width: 500
Flags: W
LayerCount: 2
Fore
SplineSet
50 225 m 128,-1,1
 60 225 60 225 67.5 217.5 c 128,-1,2
 75 210 75 210 75 200 c 128,-1,3
 75 190 75 190 67.5 182.5 c 128,-1,4
 60 175 60 175 50 175 c 128,-1,5
 40 175 40 175 32.5 182.5 c 128,-1,6
 25 190 25 190 25 200 c 128,-1,7
 25 210 25 210 32.5 217.5 c 128,-1,0
 40 225 40 225 50 225 c 128,-1,1
250 225 m 128,-1,9
 260 225 260 225 267.5 217.5 c 128,-1,10
 275 210 275 210 275 200 c 128,-1,11
 275 190 275 190 267.5 182.5 c 128,-1,12
 260 175 260 175 250 175 c 128,-1,13
 240 175 240 175 232.5 182.5 c 128,-1,14
 225 190 225 190 225 200 c 128,-1,15
 225 210 225 210 232.5 217.5 c 128,-1,8
 240 225 240 225 250 225 c 128,-1,9
450 225 m 128,-1,17
 460 225 460 225 467.5 217.5 c 128,-1,18
 475 210 475 210 475 200 c 128,-1,19
 475 190 475 190 467.5 182.5 c 128,-1,20
 460 175 460 175 450 175 c 128,-1,21
 440 175 440 175 432.5 182.5 c 128,-1,22
 425 190 425 190 425 200 c 128,-1,23
 425 210 425 210 432.5 217.5 c 128,-1,16
 440 225 440 225 450 225 c 128,-1,17
250 325 m 128,-1,25
 302 325 302 325 338.5 288.5 c 128,-1,26
 375 252 375 252 375 200 c 128,-1,27
 375 148 375 148 338.5 111.5 c 128,-1,28
 302 75 302 75 250 75 c 128,-1,29
 198 75 198 75 161.5 111.5 c 128,-1,30
 125 148 125 148 125 200 c 128,-1,31
 125 252 125 252 161.5 288.5 c 128,-1,24
 198 325 198 325 250 325 c 128,-1,25
250 275 m 128,-1,33
 219 275 219 275 197 253 c 128,-1,34
 175 231 175 231 175 200 c 128,-1,35
 175 169 175 169 197 147 c 128,-1,36
 219 125 219 125 250 125 c 128,-1,37
 281 125 281 125 303 147 c 128,-1,38
 325 169 325 169 325 200 c 128,-1,39
 325 231 325 231 303 253 c 128,-1,32
 281 275 281 275 250 275 c 128,-1,33
EndSplineSet
EndChar

StartChar: slash
Encoding: 47 47 85
Width: 500
Flags: W
LayerCount: 2
Fore
SplineSet
90.9013671875 76.255859375 m 2,0,-1
 161.613579644 146.966552734 l 0,1,2
 232.325792101 217.677246094 232.325792101 217.677246094 303.03648546 288.387939453 c 128,-1,3
 373.747178819 359.098632812 373.747178819 359.098632812 373.744140625 359.098632812 c 1,4,5
 381.068731539 366.424804688 381.068731539 366.424804688 391.424804688 366.424804688 c 128,-1,6
 401.774041898 366.424804688 401.774041898 366.424804688 409.098632812 359.098632812 c 128,-1,7
 416.424804688 351.774041898 416.424804688 351.774041898 416.424804688 341.41796875 c 128,-1,8
 416.424804688 331.068731539 416.424804688 331.068731539 409.098632812 323.744140625 c 2,9,-1
 338.386420356 253.033447266 l 0,10,11
 267.674207899 182.322753906 267.674207899 182.322753906 196.96351454 111.612060547 c 128,-1,12
 126.252821181 40.9013671875 126.252821181 40.9013671875 126.255859375 40.9013671875 c 1,13,14
 118.931268461 33.5751953125 118.931268461 33.5751953125 108.575195312 33.5751953125 c 128,-1,15
 98.2259581018 33.5751953125 98.2259581018 33.5751953125 90.9013671875 40.9013671875 c 128,-1,16
 83.5751953125 48.2259581018 83.5751953125 48.2259581018 83.5751953125 58.58203125 c 128,-1,17
 83.5751953125 68.9312684607 83.5751953125 68.9312684607 90.9013671875 76.255859375 c 2,0,-1
EndSplineSet
EndChar

StartChar: four
Encoding: 52 52 86
Width: 500
Flags: W
LayerCount: 2
Fore
SplineSet
250 425 m 128,-1,1
 343 425 343 425 409 359 c 128,-1,2
 475 293 475 293 475 200 c 128,-1,3
 475 107 475 107 409 41 c 128,-1,4
 343 -25 343 -25 250 -25 c 128,-1,5
 156.802361444 -25 156.802361444 -25 90.900390625 40.900390625 c 0,6,7
 83.578125 48.22265625 83.578125 48.22265625 83.578125 58.578125 c 128,-1,8
 83.578125 68.9265136719 83.578125 68.9265136719 90.9039306641 76.2523193359 c 128,-1,9
 98.2297363281 83.578125 98.2297363281 83.578125 108.578125 83.578125 c 128,-1,10
 118.93359375 83.578125 118.93359375 83.578125 126.255859375 76.255859375 c 0,11,12
 177.51171875 25 177.51171875 25 250 25 c 0,13,14
 322 25 322 25 373.5 76.5 c 128,-1,15
 425 128 425 128 425 200 c 128,-1,16
 425 272 425 272 373.5 323.5 c 128,-1,17
 322 375 322 375 250 375 c 0,18,19
 177.51171875 375 177.51171875 375 126.255859375 323.744140625 c 0,20,21
 118.93359375 316.421875 118.93359375 316.421875 108.578125 316.421875 c 128,-1,22
 98.2297363281 316.421875 98.2297363281 316.421875 90.9039306641 323.747680664 c 128,-1,23
 83.578125 331.073486328 83.578125 331.073486328 83.578125 341.421875 c 128,-1,24
 83.578125 351.77734375 83.578125 351.77734375 90.900390625 359.099609375 c 0,25,0
 156.802361444 425 156.802361444 425 250 425 c 128,-1,1
250 325 m 128,-1,27
 302 325 302 325 338.5 288.5 c 128,-1,28
 375 252 375 252 375 200 c 128,-1,29
 375 148 375 148 338.5 111.5 c 128,-1,30
 302 75 302 75 250 75 c 128,-1,31
 198 75 198 75 161.5 111.5 c 128,-1,32
 125 148 125 148 125 200 c 128,-1,33
 125 252 125 252 161.5 288.5 c 128,-1,26
 198 325 198 325 250 325 c 128,-1,27
250 275 m 128,-1,35
 219 275 219 275 197 253 c 128,-1,36
 175 231 175 231 175 200 c 128,-1,37
 175 169 175 169 197 147 c 128,-1,38
 219 125 219 125 250 125 c 128,-1,39
 281 125 281 125 303 147 c 128,-1,40
 325 169 325 169 325 200 c 128,-1,41
 325 231 325 231 303 253 c 128,-1,34
 281 275 281 275 250 275 c 128,-1,35
EndSplineSet
EndChar

StartChar: six
Encoding: 54 54 87
Width: 500
Flags: W
LayerCount: 2
Fore
SplineSet
250 425 m 128,-1,1
 343.197638556 425 343.197638556 425 409.099609375 359.099609375 c 0,2,3
 416.421875 351.77734375 416.421875 351.77734375 416.421875 341.421875 c 128,-1,4
 416.421875 331.073486328 416.421875 331.073486328 409.096069336 323.747680664 c 128,-1,5
 401.770263672 316.421875 401.770263672 316.421875 391.421875 316.421875 c 128,-1,6
 381.06640625 316.421875 381.06640625 316.421875 373.744140625 323.744140625 c 0,7,8
 322.48828125 375 322.48828125 375 250 375 c 0,9,10
 178 375 178 375 126.5 323.5 c 128,-1,11
 75 272 75 272 75 200 c 128,-1,12
 75 128 75 128 126.5 76.5 c 128,-1,13
 178 25 178 25 250 25 c 0,14,15
 322.48828125 25 322.48828125 25 373.744140625 76.255859375 c 0,16,17
 381.06640625 83.578125 381.06640625 83.578125 391.421875 83.578125 c 128,-1,18
 401.770263672 83.578125 401.770263672 83.578125 409.096069336 76.2523193359 c 128,-1,19
 416.421875 68.9265136719 416.421875 68.9265136719 416.421875 58.578125 c 128,-1,20
 416.421875 48.22265625 416.421875 48.22265625 409.099609375 40.900390625 c 0,21,22
 343.197638556 -25 343.197638556 -25 250 -25 c 128,-1,23
 157 -25 157 -25 91 41 c 128,-1,24
 25 107 25 107 25 200 c 128,-1,25
 25 293 25 293 91 359 c 128,-1,0
 157 425 157 425 250 425 c 128,-1,1
250 325 m 128,-1,27
 302 325 302 325 338.5 288.5 c 128,-1,28
 375 252 375 252 375 200 c 128,-1,29
 375 148 375 148 338.5 111.5 c 128,-1,30
 302 75 302 75 250 75 c 128,-1,31
 198 75 198 75 161.5 111.5 c 128,-1,32
 125 148 125 148 125 200 c 128,-1,33
 125 252 125 252 161.5 288.5 c 128,-1,26
 198 325 198 325 250 325 c 128,-1,27
250 275 m 128,-1,35
 219 275 219 275 197 253 c 128,-1,36
 175 231 175 231 175 200 c 128,-1,37
 175 169 175 169 197 147 c 128,-1,38
 219 125 219 125 250 125 c 128,-1,39
 281 125 281 125 303 147 c 128,-1,40
 325 169 325 169 325 200 c 128,-1,41
 325 231 325 231 303 253 c 128,-1,34
 281 275 281 275 250 275 c 128,-1,35
EndSplineSet
EndChar

StartChar: quotedbl
Encoding: 34 34 88
Width: 500
Flags: W
LayerCount: 2
Fore
SplineSet
50 225 m 128,-1,1
 60 225 60 225 67.5 217.5 c 128,-1,2
 75 210 75 210 75 200 c 128,-1,3
 75 190 75 190 67.5 182.5 c 128,-1,4
 60 175 60 175 50 175 c 128,-1,5
 40 175 40 175 32.5 182.5 c 128,-1,6
 25 190 25 190 25 200 c 128,-1,7
 25 210 25 210 32.5 217.5 c 128,-1,0
 40 225 40 225 50 225 c 128,-1,1
450 225 m 128,-1,9
 460 225 460 225 467.5 217.5 c 128,-1,10
 475 210 475 210 475 200 c 128,-1,11
 475 190 475 190 467.5 182.5 c 128,-1,12
 460 175 460 175 450 175 c 128,-1,13
 440 175 440 175 432.5 182.5 c 128,-1,14
 425 190 425 190 425 200 c 128,-1,15
 425 210 425 210 432.5 217.5 c 128,-1,8
 440 225 440 225 450 225 c 128,-1,9
EndSplineSet
EndChar

StartChar: hyphen
Encoding: 45 45 89
Width: 500
Flags: W
LayerCount: 2
Fore
SplineSet
50 225 m 2,0,-1
 450 225 l 2,1,2
 460 225 460 225 467.5 217.5 c 128,-1,3
 475 210 475 210 475 200 c 128,-1,4
 475 190 475 190 467.5 182.5 c 128,-1,5
 460 175 460 175 450 175 c 2,6,-1
 50 175 l 2,7,8
 40 175 40 175 32.5 182.5 c 128,-1,9
 25 190 25 190 25 200 c 128,-1,10
 25 210 25 210 32.5 217.5 c 128,-1,11
 40 225 40 225 50 225 c 2,0,-1
EndSplineSet
EndChar

StartChar: period
Encoding: 46 46 90
Width: 500
Flags: W
LayerCount: 2
Fore
SplineSet
250 425 m 128,-1,1
 260 425 260 425 267.5 417.5 c 128,-1,2
 275 410 275 410 275 400 c 128,-1,3
 275 390 275 390 267.5 382.5 c 128,-1,4
 260 375 260 375 250 375 c 128,-1,5
 240 375 240 375 232.5 382.5 c 128,-1,6
 225 390 225 390 225 400 c 128,-1,7
 225 410 225 410 232.5 417.5 c 128,-1,0
 240 425 240 425 250 425 c 128,-1,1
50 225 m 128,-1,9
 60 225 60 225 67.5 217.5 c 128,-1,10
 75 210 75 210 75 200 c 128,-1,11
 75 190 75 190 67.5 182.5 c 128,-1,12
 60 175 60 175 50 175 c 128,-1,13
 40 175 40 175 32.5 182.5 c 128,-1,14
 25 190 25 190 25 200 c 128,-1,15
 25 210 25 210 32.5 217.5 c 128,-1,8
 40 225 40 225 50 225 c 128,-1,9
250 225 m 128,-1,17
 260 225 260 225 267.5 217.5 c 128,-1,18
 275 210 275 210 275 200 c 128,-1,19
 275 190 275 190 267.5 182.5 c 128,-1,20
 260 175 260 175 250 175 c 128,-1,21
 240 175 240 175 232.5 182.5 c 128,-1,22
 225 190 225 190 225 200 c 128,-1,23
 225 210 225 210 232.5 217.5 c 128,-1,16
 240 225 240 225 250 225 c 128,-1,17
450 225 m 128,-1,25
 460 225 460 225 467.5 217.5 c 128,-1,26
 475 210 475 210 475 200 c 128,-1,27
 475 190 475 190 467.5 182.5 c 128,-1,28
 460 175 460 175 450 175 c 128,-1,29
 440 175 440 175 432.5 182.5 c 128,-1,30
 425 190 425 190 425 200 c 128,-1,31
 425 210 425 210 432.5 217.5 c 128,-1,24
 440 225 440 225 450 225 c 128,-1,25
250 25 m 128,-1,33
 260 25 260 25 267.5 17.5 c 128,-1,34
 275 10 275 10 275 0 c 128,-1,35
 275 -10 275 -10 267.5 -17.5 c 128,-1,36
 260 -25 260 -25 250 -25 c 128,-1,37
 240 -25 240 -25 232.5 -17.5 c 128,-1,38
 225 -10 225 -10 225 0 c 128,-1,39
 225 10 225 10 232.5 17.5 c 128,-1,32
 240 25 240 25 250 25 c 128,-1,33
EndSplineSet
EndChar

StartChar: colon
Encoding: 58 58 91
Width: 500
Flags: W
LayerCount: 2
Fore
SplineSet
250 425 m 128,-1,1
 260 425 260 425 267.5 417.5 c 128,-1,2
 275 410 275 410 275 400 c 128,-1,3
 275 390 275 390 267.5 382.5 c 128,-1,4
 260 375 260 375 250 375 c 128,-1,5
 240 375 240 375 232.5 382.5 c 128,-1,6
 225 390 225 390 225 400 c 128,-1,7
 225 410 225 410 232.5 417.5 c 128,-1,0
 240 425 240 425 250 425 c 128,-1,1
50 225 m 128,-1,9
 60 225 60 225 67.5 217.5 c 128,-1,10
 75 210 75 210 75 200 c 128,-1,11
 75 190 75 190 67.5 182.5 c 128,-1,12
 60 175 60 175 50 175 c 128,-1,13
 40 175 40 175 32.5 182.5 c 128,-1,14
 25 190 25 190 25 200 c 128,-1,15
 25 210 25 210 32.5 217.5 c 128,-1,8
 40 225 40 225 50 225 c 128,-1,9
250 225 m 128,-1,17
 260 225 260 225 267.5 217.5 c 128,-1,18
 275 210 275 210 275 200 c 128,-1,19
 275 190 275 190 267.5 182.5 c 128,-1,20
 260 175 260 175 250 175 c 128,-1,21
 240 175 240 175 232.5 182.5 c 128,-1,22
 225 190 225 190 225 200 c 128,-1,23
 225 210 225 210 232.5 217.5 c 128,-1,16
 240 225 240 225 250 225 c 128,-1,17
450 225 m 128,-1,25
 460 225 460 225 467.5 217.5 c 128,-1,26
 475 210 475 210 475 200 c 128,-1,27
 475 190 475 190 467.5 182.5 c 128,-1,28
 460 175 460 175 450 175 c 128,-1,29
 440 175 440 175 432.5 182.5 c 128,-1,30
 425 190 425 190 425 200 c 128,-1,31
 425 210 425 210 432.5 217.5 c 128,-1,24
 440 225 440 225 450 225 c 128,-1,25
250 25 m 128,-1,33
 260 25 260 25 267.5 17.5 c 128,-1,34
 275 10 275 10 275 0 c 128,-1,35
 275 -10 275 -10 267.5 -17.5 c 128,-1,36
 260 -25 260 -25 250 -25 c 128,-1,37
 240 -25 240 -25 232.5 -17.5 c 128,-1,38
 225 -10 225 -10 225 0 c 128,-1,39
 225 10 225 10 232.5 17.5 c 128,-1,32
 240 25 240 25 250 25 c 128,-1,33
250 325 m 128,-1,41
 302 325 302 325 338.5 288.5 c 128,-1,42
 375 252 375 252 375 200 c 128,-1,43
 375 148 375 148 338.5 111.5 c 128,-1,44
 302 75 302 75 250 75 c 128,-1,45
 198 75 198 75 161.5 111.5 c 128,-1,46
 125 148 125 148 125 200 c 128,-1,47
 125 252 125 252 161.5 288.5 c 128,-1,40
 198 325 198 325 250 325 c 128,-1,41
250 275 m 128,-1,49
 219 275 219 275 197 253 c 128,-1,50
 175 231 175 231 175 200 c 128,-1,51
 175 169 175 169 197 147 c 128,-1,52
 219 125 219 125 250 125 c 128,-1,53
 281 125 281 125 303 147 c 128,-1,54
 325 169 325 169 325 200 c 128,-1,55
 325 231 325 231 303 253 c 128,-1,48
 281 275 281 275 250 275 c 128,-1,49
EndSplineSet
EndChar

StartChar: numbersign
Encoding: 35 35 92
Width: 500
Flags: W
LayerCount: 2
Fore
SplineSet
387.51171875 366.11328125 m 0,0,1
 389.478210449 366.424804688 389.478210449 366.424804688 391.42578125 366.424804688 c 0,2,3
 401.772832971 366.424804688 401.772832971 366.424804688 409.099609375 359.099609375 c 128,-1,4
 416.42578125 351.7734375 416.42578125 351.7734375 416.42578125 341.41796875 c 128,-1,5
 416.42578125 331.0703125 416.42578125 331.0703125 409.099609375 323.744140625 c 2,6,-1
 338.387152778 253.033203125 l 0,7,8
 267.674696181 182.322265625 267.674696181 182.322265625 196.963758681 111.611328125 c 128,-1,9
 126.252821181 40.900390625 126.252821181 40.900390625 126.255859375 40.900390625 c 1,10,11
 118.9296875 33.57421875 118.9296875 33.57421875 108.57421875 33.57421875 c 128,-1,12
 98.2265625 33.57421875 98.2265625 33.57421875 90.900390625 40.900390625 c 128,-1,13
 83.57421875 48.2265625 83.57421875 48.2265625 83.57421875 58.58203125 c 128,-1,14
 83.57421875 68.9296875 83.57421875 68.9296875 90.900390625 76.255859375 c 2,15,-1
 161.617404514 146.966145833 l 0,16,17
 232.334418403 217.676432292 232.334418403 217.676432292 303.045355903 288.387369792 c 128,-1,18
 373.756293403 359.098307292 373.756293403 359.098307292 373.744140625 359.099609375 c 1,19,20
 379.489787968 364.843718392 379.489787968 364.843718392 387.51171875 366.11328125 c 0,0,1
104.66796875 366.11328125 m 0,21,22
 106.634460449 366.424804688 106.634460449 366.424804688 108.58203125 366.424804688 c 0,23,24
 118.929082971 366.424804688 118.929082971 366.424804688 126.255859375 359.099609375 c 2,25,-1
 409.099609375 76.255859375 l 1,26,27
 416.42578125 68.9296875 416.42578125 68.9296875 416.42578125 58.57421875 c 128,-1,28
 416.42578125 48.2265625 416.42578125 48.2265625 409.099609375 40.900390625 c 128,-1,29
 401.7734375 33.57421875 401.7734375 33.57421875 391.41796875 33.57421875 c 128,-1,30
 381.0703125 33.57421875 381.0703125 33.57421875 373.744140625 40.900390625 c 2,31,-1
 90.900390625 323.744140625 l 1,32,33
 83.57421875 331.0703125 83.57421875 331.0703125 83.57421875 341.42578125 c 128,-1,34
 83.57421875 351.7734375 83.57421875 351.7734375 90.900390625 359.099609375 c 0,35,36
 96.6460379679 364.843718392 96.6460379679 364.843718392 104.66796875 366.11328125 c 0,21,22
250 325 m 0,37,38
 301.238592177 324.673127357 301.238592177 324.673127357 338.388671875 288.388671875 c 0,39,40
 345.710693359 281.066650391 345.710693359 281.066650391 345.710693359 270.7109375 c 128,-1,41
 345.710693359 260.355224609 345.710693359 260.355224609 338.388671875 253.033203125 c 128,-1,42
 331.066650391 245.711181641 331.066650391 245.711181641 320.7109375 245.711181641 c 128,-1,43
 310.355224609 245.711181641 310.355224609 245.711181641 303.033203125 253.033203125 c 0,44,45
 281.06640625 275 281.06640625 275 250 275 c 128,-1,46
 218.932013291 275 218.932013291 275 196.966796875 253.033203125 c 0,47,48
 189.644775391 245.711181641 189.644775391 245.711181641 179.2890625 245.711181641 c 128,-1,49
 168.933349609 245.711181641 168.933349609 245.711181641 161.611328125 253.033203125 c 128,-1,50
 154.289306641 260.355224609 154.289306641 260.355224609 154.289306641 270.7109375 c 128,-1,51
 154.289306641 281.066650391 154.289306641 281.066650391 161.611328125 288.388671875 c 0,52,53
 198.754404448 324.673182595 198.754404448 324.673182595 250 325 c 0,37,38
179.2890625 154.2890625 m 0,54,-1
 179.325195312 154.29296875 l 0,55,56
 189.659600623 154.29296875 189.659600623 154.29296875 196.966796875 146.966796875 c 0,57,58
 218.93359375 125 218.93359375 125 250 125 c 128,-1,59
 281.067986709 125 281.067986709 125 303.033203125 146.966796875 c 0,60,61
 310.355224609 154.288818359 310.355224609 154.288818359 320.7109375 154.288818359 c 128,-1,62
 331.066650391 154.288818359 331.066650391 154.288818359 338.388671875 146.966796875 c 128,-1,63
 345.710693359 139.644775391 345.710693359 139.644775391 345.710693359 129.2890625 c 128,-1,64
 345.710693359 118.933349609 345.710693359 118.933349609 338.388671875 111.611328125 c 0,65,66
 301.245595552 75.3268174047 301.245595552 75.3268174047 250 75 c 0,67,68
 198.75689324 75.3269014433 198.75689324 75.3269014433 161.611328125 111.611328125 c 0,69,70
 154.289306641 118.933349609 154.289306641 118.933349609 154.289306641 129.2890625 c 128,-1,71
 154.289306641 139.644775391 154.289306641 139.644775391 161.611328125 146.966796875 c 128,-1,72
 168.914628244 154.2890625 168.914628244 154.2890625 179.254882812 154.2890625 c 0,73,-1
 179.2890625 154.2890625 l 0,54,-1
EndSplineSet
EndChar

StartChar: seven
Encoding: 55 55 93
Width: 500
Flags: W
LayerCount: 2
Fore
SplineSet
250 425 m 128,-1,1
 343 425 343 425 409 359 c 128,-1,2
 475 293 475 293 475 200 c 128,-1,3
 475 107 475 107 409 41 c 128,-1,4
 343 -25 343 -25 250 -25 c 0,5,6
 240 -25 240 -25 232.5 -17.5 c 128,-1,7
 225 -10 225 -10 225 0 c 128,-1,8
 225 10 225 10 232.5 17.5 c 128,-1,9
 240 25 240 25 250 25 c 0,10,11
 322 25 322 25 373.5 76.5 c 128,-1,12
 425 128 425 128 425 200 c 128,-1,13
 425 272 425 272 373.5 323.5 c 128,-1,14
 322 375 322 375 250 375 c 128,-1,15
 178 375 178 375 126.5 323.5 c 128,-1,16
 75 272 75 272 75 200 c 0,17,18
 75 190 75 190 67.5 182.5 c 128,-1,19
 60 175 60 175 50 175 c 128,-1,20
 40 175 40 175 32.5 182.5 c 128,-1,21
 25 190 25 190 25 200 c 0,22,23
 25 293 25 293 91 359 c 128,-1,0
 157 425 157 425 250 425 c 128,-1,1
250 325 m 128,-1,25
 302 325 302 325 338.5 288.5 c 128,-1,26
 375 252 375 252 375 200 c 128,-1,27
 375 148 375 148 338.5 111.5 c 128,-1,28
 302 75 302 75 250 75 c 128,-1,29
 198 75 198 75 161.5 111.5 c 128,-1,30
 125 148 125 148 125 200 c 128,-1,31
 125 252 125 252 161.5 288.5 c 128,-1,24
 198 325 198 325 250 325 c 128,-1,25
250 275 m 128,-1,33
 219 275 219 275 197 253 c 128,-1,34
 175 231 175 231 175 200 c 128,-1,35
 175 169 175 169 197 147 c 128,-1,36
 219 125 219 125 250 125 c 128,-1,37
 281 125 281 125 303 147 c 128,-1,38
 325 169 325 169 325 200 c 128,-1,39
 325 231 325 231 303 253 c 128,-1,32
 281 275 281 275 250 275 c 128,-1,33
EndSplineSet
EndChar

StartChar: uni25CC
Encoding: 9676 9676 95
Width: 500
Flags: W
AnchorPoint: "vowel" 250 200 basechar 0
LayerCount: 2
Fore
SplineSet
250 425 m 128,-1,1
 260 425 260 425 267.5 417.5 c 128,-1,2
 275 410 275 410 275 400 c 128,-1,3
 275 390 275 390 267.5 382.5 c 128,-1,4
 260 375 260 375 250 375 c 128,-1,5
 240 375 240 375 232.5 382.5 c 128,-1,6
 225 390 225 390 225 400 c 128,-1,7
 225 410 225 410 232.5 417.5 c 128,-1,0
 240 425 240 425 250 425 c 128,-1,1
108.578125 366.421875 m 128,-1,9
 118.926513672 366.421875 118.926513672 366.421875 126.252319336 359.096069336 c 128,-1,10
 133.578125 351.770263672 133.578125 351.770263672 133.578125 341.421875 c 128,-1,11
 133.578125 331.073486328 133.578125 331.073486328 126.252319336 323.747680664 c 128,-1,12
 118.926513672 316.421875 118.926513672 316.421875 108.578125 316.421875 c 128,-1,13
 98.2297363281 316.421875 98.2297363281 316.421875 90.9039306641 323.747680664 c 128,-1,14
 83.578125 331.073486328 83.578125 331.073486328 83.578125 341.421875 c 128,-1,15
 83.578125 351.770263672 83.578125 351.770263672 90.9039306641 359.096069336 c 128,-1,8
 98.2297363281 366.421875 98.2297363281 366.421875 108.578125 366.421875 c 128,-1,9
391.421875 366.421875 m 128,-1,17
 401.770263672 366.421875 401.770263672 366.421875 409.096069336 359.096069336 c 128,-1,18
 416.421875 351.770263672 416.421875 351.770263672 416.421875 341.421875 c 128,-1,19
 416.421875 331.073486328 416.421875 331.073486328 409.096069336 323.747680664 c 128,-1,20
 401.770263672 316.421875 401.770263672 316.421875 391.421875 316.421875 c 128,-1,21
 381.073486328 316.421875 381.073486328 316.421875 373.747680664 323.747680664 c 128,-1,22
 366.421875 331.073486328 366.421875 331.073486328 366.421875 341.421875 c 128,-1,23
 366.421875 351.770263672 366.421875 351.770263672 373.747680664 359.096069336 c 128,-1,16
 381.073486328 366.421875 381.073486328 366.421875 391.421875 366.421875 c 128,-1,17
50 225 m 128,-1,25
 60 225 60 225 67.5 217.5 c 128,-1,26
 75 210 75 210 75 200 c 128,-1,27
 75 190 75 190 67.5 182.5 c 128,-1,28
 60 175 60 175 50 175 c 128,-1,29
 40 175 40 175 32.5 182.5 c 128,-1,30
 25 190 25 190 25 200 c 128,-1,31
 25 210 25 210 32.5 217.5 c 128,-1,24
 40 225 40 225 50 225 c 128,-1,25
450 225 m 128,-1,33
 460 225 460 225 467.5 217.5 c 128,-1,34
 475 210 475 210 475 200 c 128,-1,35
 475 190 475 190 467.5 182.5 c 128,-1,36
 460 175 460 175 450 175 c 128,-1,37
 440 175 440 175 432.5 182.5 c 128,-1,38
 425 190 425 190 425 200 c 128,-1,39
 425 210 425 210 432.5 217.5 c 128,-1,32
 440 225 440 225 450 225 c 128,-1,33
108.578125 83.578125 m 128,-1,41
 118.926513672 83.578125 118.926513672 83.578125 126.252319336 76.2523193359 c 128,-1,42
 133.578125 68.9265136719 133.578125 68.9265136719 133.578125 58.578125 c 128,-1,43
 133.578125 48.2297363281 133.578125 48.2297363281 126.252319336 40.9039306641 c 128,-1,44
 118.926513672 33.578125 118.926513672 33.578125 108.578125 33.578125 c 128,-1,45
 98.2297363281 33.578125 98.2297363281 33.578125 90.9039306641 40.9039306641 c 128,-1,46
 83.578125 48.2297363281 83.578125 48.2297363281 83.578125 58.578125 c 128,-1,47
 83.578125 68.9265136719 83.578125 68.9265136719 90.9039306641 76.2523193359 c 128,-1,40
 98.2297363281 83.578125 98.2297363281 83.578125 108.578125 83.578125 c 128,-1,41
391.421875 83.578125 m 128,-1,49
 401.770263672 83.578125 401.770263672 83.578125 409.096069336 76.2523193359 c 128,-1,50
 416.421875 68.9265136719 416.421875 68.9265136719 416.421875 58.578125 c 128,-1,51
 416.421875 48.2297363281 416.421875 48.2297363281 409.096069336 40.9039306641 c 128,-1,52
 401.770263672 33.578125 401.770263672 33.578125 391.421875 33.578125 c 128,-1,53
 381.073486328 33.578125 381.073486328 33.578125 373.747680664 40.9039306641 c 128,-1,54
 366.421875 48.2297363281 366.421875 48.2297363281 366.421875 58.578125 c 128,-1,55
 366.421875 68.9265136719 366.421875 68.9265136719 373.747680664 76.2523193359 c 128,-1,48
 381.073486328 83.578125 381.073486328 83.578125 391.421875 83.578125 c 128,-1,49
250 25 m 128,-1,57
 260 25 260 25 267.5 17.5 c 128,-1,58
 275 10 275 10 275 0 c 128,-1,59
 275 -10 275 -10 267.5 -17.5 c 128,-1,60
 260 -25 260 -25 250 -25 c 128,-1,61
 240 -25 240 -25 232.5 -17.5 c 128,-1,62
 225 -10 225 -10 225 0 c 128,-1,63
 225 10 225 10 232.5 17.5 c 128,-1,56
 240 25 240 25 250 25 c 128,-1,57
EndSplineSet
EndChar

StartChar: acute
Encoding: 180 180 96
Width: 500
Flags: W
LayerCount: 2
Fore
SplineSet
450 225 m 128,-1,1
 460 225 460 225 467.5 217.5 c 128,-1,2
 475 210 475 210 475 200 c 128,-1,3
 475 190 475 190 467.5 182.5 c 128,-1,4
 460 175 460 175 450 175 c 128,-1,5
 440 175 440 175 432.5 182.5 c 128,-1,6
 425 190 425 190 425 200 c 128,-1,7
 425 210 425 210 432.5 217.5 c 128,-1,0
 440 225 440 225 450 225 c 128,-1,1
EndSplineSet
EndChar

StartChar: paragraph
Encoding: 182 182 97
Width: 500
Flags: W
LayerCount: 2
Fore
SplineSet
250 625 m 128,-1,1
 260 625 260 625 267.5 617.5 c 128,-1,2
 275 610 275 610 275 600 c 2,3,-1
 275 -200 l 2,4,5
 275 -210 275 -210 267.5 -217.5 c 128,-1,6
 260 -225 260 -225 250 -225 c 128,-1,7
 240 -225 240 -225 232.5 -217.5 c 128,-1,8
 225 -210 225 -210 225 -200 c 2,9,-1
 225 600 l 2,10,11
 225 610 225 610 232.5 617.5 c 128,-1,0
 240 625 240 625 250 625 c 128,-1,1
250 325 m 128,-1,13
 302 325 302 325 338.5 288.5 c 128,-1,14
 375 252 375 252 375 200 c 128,-1,15
 375 148 375 148 338.5 111.5 c 128,-1,16
 302 75 302 75 250 75 c 128,-1,17
 198 75 198 75 161.5 111.5 c 128,-1,18
 125 148 125 148 125 200 c 128,-1,19
 125 252 125 252 161.5 288.5 c 128,-1,12
 198 325 198 325 250 325 c 128,-1,13
250 275 m 128,-1,21
 219 275 219 275 197 253 c 128,-1,22
 175 231 175 231 175 200 c 128,-1,23
 175 169 175 169 197 147 c 128,-1,24
 219 125 219 125 250 125 c 128,-1,25
 281 125 281 125 303 147 c 128,-1,26
 325 169 325 169 325 200 c 128,-1,27
 325 231 325 231 303 253 c 128,-1,20
 281 275 281 275 250 275 c 128,-1,21
EndSplineSet
EndChar
